<?xml version="1.0" encoding="UTF-8" standalone="no"?>
<svg
   version="1.2"
   viewBox="0 0 870 209"
   width="870"
   height="209"
   id="svg5"
   xmlns="http://www.w3.org/2000/svg"
   xmlns:svg="http://www.w3.org/2000/svg">
  <defs
     id="defs5" />
  <style
     id="style1">
		.s0 { fill: #fefefe } 
		.s1 { fill: #1b3535 } 
		.s2 { fill: #191918 } 
	</style>
  <path
     class="s0"
     d="m 9.1892003,66.609604 131.4599997,0.02 0.02,82.940006 c 0.01,14.18 0.51,31.49 -0.09,45.48 l -131.4699997,0.06 z"
     id="path1"
     style="fill:#808080" />
  <path
     class="s0"
     d="m 21.8292,8.969604 102.24,0.04 v 40.95 c -4.37,0.03 -12.73,0.32 -16.77,-0.24 -0.89,-1.57 -0.56,-2.04 -0.6,-4.14 l 0.01,-18.3 h -67.3 c -0.15,7.45 -0.06,15.23 -0.08,22.71 h -17.48 z"
     id="path2"
     style="fill:#4d4d4d" />
  <path
     class="s0"
     d="m 17.1892,66.109604 q 62.13,-0.33 124.27,0.07 c -13.03,25.6 -30.23,54.610006 -44.79,79.650006 -6.71,11.89 -14.11,25.61 -21.39,36.93 -7.92,-13.08 -15.46,-27.43 -23.1,-40.8 q -21.99,-37.7 -43.4899997,-75.690006 z"
     id="path3"
     style="fill:#4d4d4d" />
  <path
     class="s1"
     d="m 34.6892,81.299604 80.97,-0.03 c -6.02,12.57 -17.89,31.430006 -25.15,44.140006 -5,8.88 -10.28,17.61 -15.31,26.49 -3.91,-7.74 -8.62,-15 -12.75,-22.57 -8.91,-16.34 -18.13,-32.120006 -27.76,-48.030006 z"
     id="path4"
     style="fill:#808080" />
  <path
     class="s2"
     d="m 72.5692,89.099604 c 10.8,-0.69 19.72,6.06 18.32,17.850006 -0.61,5.17 -4.31,8.02 -8.27,10.82 0.04,4.51 0.38,15.55 -0.16,19.51 -1.14,0.8 -2.59,0.58 -4.08,0.58 l -10.69,-0.06 -0.02,-20.24 c -14.66,-7 -11.05,-24.480006 4.9,-28.460006 z"
     id="path5"
     style="fill:#333333" />
  <text
     xml:space="preserve"
     style="font-size:96px;text-align:start;writing-mode:lr-tb;direction:ltr;text-anchor:start;fill:#333333"
     x="150.69028"
     y="193.58885"
     id="text5"><tspan
       id="tspan5"
       x="150.69028"
       y="193.58885"
       style="font-style:normal;font-variant:normal;font-weight:500;font-stretch:normal;font-size:96px;font-family:Montserrat;-inkscape-font-specification:'Montserrat Medium';fill:#333333">CLIENT <tspan
   style="font-style:normal;font-variant:normal;font-weight:bold;font-stretch:normal;font-family:Montserrat;-inkscape-font-specification:'Montserrat Bold'"
   id="tspan1">VAULT</tspan></tspan></text>
</svg>
