<?xml version="1.0" encoding="UTF-8" standalone="no"?>
<svg
   version="1.1"
   width="900"
   height="200"
   viewBox="0 0 900 200"
   xml:space="preserve"
   id="svg44"
   sodipodi:docname="logo_formbuilder.svg"
   inkscape:version="1.3 (0e150ed6c4, 2023-07-21)"
   inkscape:export-filename="logo_formbuilder.png"
   inkscape:export-xdpi="96"
   inkscape:export-ydpi="96"
   xmlns:inkscape="http://www.inkscape.org/namespaces/inkscape"
   xmlns:sodipodi="http://sodipodi.sourceforge.net/DTD/sodipodi-0.dtd"
   xmlns="http://www.w3.org/2000/svg"
   xmlns:svg="http://www.w3.org/2000/svg"><sodipodi:namedview
   id="namedview44"
   pagecolor="#ffffff"
   bordercolor="#000000"
   borderopacity="0.25"
   inkscape:showpageshadow="2"
   inkscape:pageopacity="0.0"
   inkscape:pagecheckerboard="0"
   inkscape:deskcolor="#d1d1d1"
   inkscape:export-bgcolor="#ffffff00"
   inkscape:zoom="0.75277778"
   inkscape:cx="539.33579"
   inkscape:cy="383.24723"
   inkscape:window-width="1920"
   inkscape:window-height="1009"
   inkscape:window-x="-8"
   inkscape:window-y="-8"
   inkscape:window-maximized="1"
   inkscape:current-layer="svg44" />&#10;<desc
   id="desc1">Created with Fabric.js 5.2.4</desc>&#10;<defs
   id="defs1">&#10;</defs>&#10;<g
   transform="scale(0)"
   id="ca9a73be-9424-47c5-839e-91b817ad8876">&#10;</g>&#10;&#10;<g
   transform="matrix(1.9293728,0,0,1.9293728,454.9624,95.111404)"
   id="g44">&#10;<g
   vector-effect="non-scaling-stroke"
   id="g43">&#10;		<g
   transform="translate(-5.89)"
   id="g1">&#10;<path
   style="opacity:1;fill:#e07300;fill-rule:nonzero;stroke:none;stroke-width:1;stroke-linecap:butt;stroke-linejoin:miter;stroke-miterlimit:4;stroke-dasharray:none;stroke-dashoffset:0"
   vector-effect="non-scaling-stroke"
   transform="translate(-249.43,-63.61)"
   d="m 248.79483,30.087471 c 7.50204,1.207237 13.17221,4.349239 14.8472,11.848541 1.64953,7.385567 1.7132,14.629097 -5.48297,19.945656 8.55493,7.025993 9.17621,15.757362 5.99646,25.307587 -1.94187,5.83226 -6.34769,9.10807 -12.14847,9.646087 -6.24248,0.578995 -12.58022,0.130845 -19.06763,0.130845 0,-3.386048 0,-6.487504 0,-9.909073 4.23371,0 8.2103,0.01515 12.18674,-0.0033 7.04524,-0.03275 10.46815,-3.187081 10.51411,-9.659455 0.0512,-7.213875 -2.96681,-10.227669 -10.33386,-10.29554 -0.64419,-0.0059 -1.28941,0.09984 -2.39513,0.192246 0,5.495918 0,10.920334 0,16.684715 -3.53695,0 -6.60847,0 -9.9598,0 0,-13.605194 0,-27.159897 0,-40.88845 3.20695,0 6.17097,0 9.59365,0 0,4.557964 0,8.986595 0,13.29132 7.04581,1.854008 10.38767,0.357323 11.62253,-4.879337 1.63773,-6.945095 -0.5534,-10.040466 -9.08038,-11.848309 1.9819,-3.001995 -3.41644,-7.836336 3.70755,-9.563499 z"
   stroke-linecap="round"
   id="path1" />&#10;</g>&#10;		<g
   transform="translate(193.24,-0.02)"
   id="g2">&#10;<path
   style="opacity:1;fill:#e07300;fill-rule:nonzero;stroke:none;stroke-width:1;stroke-linecap:butt;stroke-linejoin:miter;stroke-miterlimit:4;stroke-dasharray:none;stroke-dashoffset:0"
   vector-effect="non-scaling-stroke"
   transform="translate(-448.56,-63.59)"
   d="m 448.68494,73.134872 c -5.66397,-0.815353 -11.19962,-1.208915 -16.97699,-1.619659 0,-13.646557 0,-27.23362 0,-41.177959 6.28115,0 12.46356,0 18.94519,0 0,3.463504 0,6.699459 0,10.175514 -2.8234,0 -5.56632,0 -8.61679,0 0,7.128315 0,14.02404 0,20.89389 9.32132,1.308666 11.6134,-0.657139 11.63205,-9.783642 0.005,-2.64674 7.9e-4,-5.293499 7.9e-4,-8.25502 3.22403,0 6.12695,0 9.52286,0 0.008,8.078263 2.40313,16.464531 -4.18656,23.541153 -0.62573,0.671944 -0.43527,2.424271 -0.16064,3.563362 2.0968,8.696144 4.30871,17.36454 6.5675,26.371468 -3.83972,0 -7.26284,0 -10.85321,0 -1.94339,-7.876343 -3.84463,-15.581833 -5.8742,-23.709107 z"
   stroke-linecap="round"
   id="path2" />&#10;</g>&#10;		<g
   transform="translate(-63.32,-0.1)"
   id="g3">&#10;<path
   style="opacity:1;fill:#e07300;fill-rule:nonzero;stroke:none;stroke-width:1;stroke-linecap:butt;stroke-linejoin:miter;stroke-miterlimit:4;stroke-dasharray:none;stroke-dashoffset:0"
   vector-effect="non-scaling-stroke"
   transform="translate(-192,-63.52)"
   d="m 190.24292,69.352219 c -0.46501,2.186332 -0.82939,3.968429 -1.25093,6.030105 -2.55615,0 -4.95621,0 -8.0573,0 2.81279,-15.037662 5.6008,-29.94289 8.44287,-45.137115 4.57985,0 9.00179,0 13.68335,0 0,22.086113 0,44.17025 0,66.546325 -3.15545,0 -6.22758,0 -9.79605,0 0,-12.103866 0,-24.155288 0,-36.20671 -0.3293,-0.03805 -0.65861,-0.0761 -0.98791,-0.114151 -0.64447,2.825775 -1.28893,5.65155 -2.03403,8.881546 z"
   stroke-linecap="round"
   id="path3" />&#10;</g>&#10;		<g
   transform="translate(120.05,0.07)"
   id="g4">&#10;<path
   style="opacity:1;fill:#e07300;fill-rule:nonzero;stroke:none;stroke-width:1;stroke-linecap:butt;stroke-linejoin:miter;stroke-miterlimit:4;stroke-dasharray:none;stroke-dashoffset:0"
   vector-effect="non-scaling-stroke"
   transform="translate(-375.37,-63.69)"
   d="m 381.15469,70.981735 c 0,-7.320923 10e-4,-14.14497 -3e-4,-20.969021 -0.002,-8.316009 -0.54675,-8.951042 -9.09357,-10.23415 0,-1.420581 0,-2.89817 0,-4.375759 0,-1.632896 0,-3.265793 0,-4.826103 10.22186,-1.829565 18.80658,4.832707 18.96835,14.737072 0.1984,12.146568 0.15864,24.300972 -0.0205,36.448425 -0.12625,8.563759 -6.67282,15.006394 -15.25205,15.260674 -5.28967,0.156769 -10.58773,0.02902 -16.17382,0.02902 0,-3.298927 0,-6.224022 0,-9.991104 3.06188,0 6.13378,0 9.20568,0 12.36615,-3.1e-5 12.36615,-3.1e-5 12.36618,-12.586235 0,-0.99865 0,-1.997292 0,-3.492821 z"
   stroke-linecap="round"
   id="path4" />&#10;</g>&#10;		<g
   transform="translate(-160.47,6.56)"
   id="g5">&#10;<path
   style="opacity:1;fill:#e07300;fill-rule:nonzero;stroke:none;stroke-width:1;stroke-linecap:butt;stroke-linejoin:miter;stroke-miterlimit:4;stroke-dasharray:none;stroke-dashoffset:0"
   vector-effect="non-scaling-stroke"
   transform="translate(-94.85,-70.17)"
   d="m 89.497879,72.971497 c -0.288353,13.934654 0.07354,15.59999 14.618311,15.0484 1.93671,-0.07345 3.87861,-0.01009 5.91382,-0.01009 -4.15136,7.784736 -10.830791,11.306831 -18.035183,9.644165 -7.24974,-1.673142 -12.115928,-7.803063 -12.230949,-16.152397 -0.178681,-12.970223 -0.0472,-25.944702 -0.0472,-39.215157 3.268104,0 6.181999,0 9.785995,0 0,10.03019 0,20.110615 -0.0048,30.685082 z"
   stroke-linecap="round"
   id="path5" />&#10;</g>&#10;		<g
   transform="translate(-153.33,-6.68)"
   id="g6">&#10;<path
   style="opacity:1;fill:#e07300;fill-rule:nonzero;stroke:none;stroke-width:1;stroke-linecap:butt;stroke-linejoin:miter;stroke-miterlimit:4;stroke-dasharray:none;stroke-dashoffset:0"
   vector-effect="non-scaling-stroke"
   transform="translate(-101.99,-56.93)"
   d="m 92.158653,33.274361 c -0.499412,-3.933642 1.728707,-4.211609 4.293923,-4.086523 8.693004,0.423891 15.151944,7.400198 15.338274,17.03795 0.19269,9.965965 0.0348,19.938702 0.0309,29.908482 -10e-4,2.779587 -1.7e-4,5.559166 -1.7e-4,8.564888 -4.09671,0 -7.33792,0 -10.75793,0 0,-12.298905 0.007,-24.371472 -0.003,-36.444027 -0.006,-7.537537 -1.26214,-8.827809 -8.902826,-8.690251 0,-1.950477 0,-3.898704 4.19e-4,-6.290519 z"
   stroke-linecap="round"
   id="path6" />&#10;</g>&#10;		<g
   transform="translate(153.2,-0.06)"
   id="g7">&#10;<path
   style="opacity:1;fill:#e07300;fill-rule:nonzero;stroke:none;stroke-width:1;stroke-linecap:butt;stroke-linejoin:miter;stroke-miterlimit:4;stroke-dasharray:none;stroke-dashoffset:0"
   vector-effect="non-scaling-stroke"
   transform="translate(-408.52,-63.56)"
   d="m 408.10611,68.834824 c -0.86853,4.97705 -1.25891,9.877067 -1.6781,15.138511 -2.90784,0 -5.99417,0 -9.41919,0 0,-13.478241 0,-27.041359 0,-40.828705 3.15231,0 6.23605,0 9.72986,0 0,4.983925 0,9.75425 0,15.129719 4.58096,0 8.79449,0 13.28726,0 0,3.68488 0,6.760403 0,10.483456 -3.90271,0 -7.67218,0 -11.91983,0.07702 z"
   stroke-linecap="round"
   id="path7" />&#10;</g>&#10;		<g
   transform="translate(42.54,-6.22)"
   id="g8">&#10;<path
   style="opacity:1;fill:#e07300;fill-rule:nonzero;stroke:none;stroke-width:1;stroke-linecap:butt;stroke-linejoin:miter;stroke-miterlimit:4;stroke-dasharray:none;stroke-dashoffset:0"
   vector-effect="non-scaling-stroke"
   transform="translate(-297.86,-57.39)"
   d="m 292.9787,79.588974 c 3.3e-4,-16.703739 3.3e-4,-32.949654 3.3e-4,-49.400446 3.57279,0 6.67786,0 10.17527,0 0,18.030371 0,36.030672 0,54.398554 -3.50406,0 -6.89563,0 -10.59775,0 0.13415,-1.443825 0.27801,-2.99205 0.42215,-4.998108 z"
   stroke-linecap="round"
   id="path8" />&#10;</g>&#10;		<g
   transform="translate(-76.76,0.17)"
   id="g9">&#10;<path
   style="opacity:1;fill:#e07300;fill-rule:nonzero;stroke:none;stroke-width:1;stroke-linecap:butt;stroke-linejoin:miter;stroke-miterlimit:4;stroke-dasharray:none;stroke-dashoffset:0"
   vector-effect="non-scaling-stroke"
   transform="translate(-178.56,-63.78)"
   d="m 181.28578,78.115181 c 2.39946,0.1063 4.36714,0.1063 7.02939,0.1063 -1.23346,6.175484 -1.84692,11.970002 -3.80054,17.270577 -0.54435,1.476921 -5.05194,1.493133 -7.45241,2.10572 -8.19905,-22.476837 -9.26869,-44.798095 -7.56338,-67.394533 0.42792,-0.07968 0.85582,-0.159368 1.28372,-0.239054 1.40611,6.820416 2.79227,13.645016 4.22321,20.460217 1.93136,9.198612 3.89718,18.389992 6.28001,27.690773 z"
   stroke-linecap="round"
   id="path9" />&#10;</g>&#10;		<g
   transform="translate(75.64,-6.43)"
   id="g10">&#10;<path
   style="opacity:1;fill:#e07300;fill-rule:nonzero;stroke:none;stroke-width:1;stroke-linecap:butt;stroke-linejoin:miter;stroke-miterlimit:4;stroke-dasharray:none;stroke-dashoffset:0"
   vector-effect="non-scaling-stroke"
   transform="translate(-330.96,-57.18)"
   d="m 326.06796,64.999481 c 0,-11.775757 0,-23.051582 0,-34.663971 3.32254,0 6.37958,0 9.77445,0 0,17.76767 0,35.59372 0,53.694969 -3.17807,0 -6.22959,0 -9.77445,0 0,-6.316581 0,-12.423828 0,-19.030998 z"
   stroke-linecap="round"
   id="path10" />&#10;</g>&#10;		<g
   transform="translate(21.03,5.67)"
   id="g11">&#10;<path
   style="opacity:1;fill:#e07300;fill-rule:nonzero;stroke:none;stroke-width:1;stroke-linecap:butt;stroke-linejoin:miter;stroke-miterlimit:4;stroke-dasharray:none;stroke-dashoffset:0"
   vector-effect="non-scaling-stroke"
   transform="translate(-276.35,-69.28)"
   d="m 281.10138,43.234142 c 0.0629,17.881508 0.0629,35.285137 0.0629,53.489575 -5.87238,-3.171273 -9.38056,-7.214081 -9.48783,-13.154175 -0.24575,-13.608292 -0.0778,-27.22406 -0.0778,-41.736382 3.17987,0.310955 6.30985,0.617031 9.50269,1.400982 z"
   stroke-linecap="round"
   id="path11" />&#10;</g>&#10;		<g
   transform="translate(-111.68,6.44)"
   id="g12">&#10;<path
   style="opacity:1;fill:#e07300;fill-rule:nonzero;stroke:none;stroke-width:1;stroke-linecap:butt;stroke-linejoin:miter;stroke-miterlimit:4;stroke-dasharray:none;stroke-dashoffset:0"
   vector-effect="non-scaling-stroke"
   transform="translate(-143.64,-70.05)"
   d="m 135.75258,61.884579 c 3.87854,-2.127133 4.46965,-5.635132 4.20027,-9.619816 -0.16495,-2.439728 -0.012,-4.900948 0.25272,-7.91246 0.46981,-0.716423 0.65029,-0.906014 0.79599,-1.128712 2.64294,0 5.28587,0 8.58546,0 -0.0654,7.926803 1.89787,15.777469 -3.44945,22.970264 -1.08894,1.464775 -0.95419,4.338791 -0.49876,6.364212 1.80894,8.044953 3.96846,16.011071 6.07927,24.326126 -3.89102,0 -7.17691,0 -10.77431,0 -1.92853,-7.717033 -3.85141,-15.411483 -5.38875,-23.498024 6.46668,-1.872688 7.34676,-4.097564 3.52645,-8.620185 -0.93555,-1.107525 -2.21016,-1.92862 -3.32889,-2.881405 z"
   stroke-linecap="round"
   id="path12" />&#10;</g>&#10;		<g
   transform="translate(59.3,-0.15)"
   id="g13">&#10;<path
   style="opacity:1;fill:#e07300;fill-rule:nonzero;stroke:none;stroke-width:1;stroke-linecap:butt;stroke-linejoin:miter;stroke-miterlimit:4;stroke-dasharray:none;stroke-dashoffset:0"
   vector-effect="non-scaling-stroke"
   transform="translate(-314.62,-63.46)"
   d="m 314.98138,41.963249 c 1.74286,0.08547 3.03003,0.170906 4.5315,0.270569 0,14.329178 0,28.393951 0,42.721306 -3.28415,0 -6.37735,0 -9.78211,0 0,-14.190941 0,-28.244717 0,-42.726975 1.6185,-0.08942 3.2067,-0.177177 5.25061,-0.2649 z"
   stroke-linecap="round"
   id="path13" />&#10;</g>&#10;		<g
   transform="translate(108.86,-0.18)"
   id="g14">&#10;<path
   style="opacity:1;fill:#e07300;fill-rule:nonzero;stroke:none;stroke-width:1;stroke-linecap:butt;stroke-linejoin:miter;stroke-miterlimit:4;stroke-dasharray:none;stroke-dashoffset:0"
   vector-effect="non-scaling-stroke"
   transform="translate(-364.17,-63.44)"
   d="m 363.09354,42.984566 c 2.24585,-2.83e-4 4.03973,-2.83e-4 6.03164,-2.83e-4 0,13.809647 0,27.21354 0,40.979935 -3.08105,0 -6.12625,0 -9.84906,0 0,-7.425873 -3e-4,-14.819977 9e-5,-22.214073 3.1e-4,-5.144218 0.11924,-10.292233 -0.0467,-15.431068 -0.0845,-2.618947 0.82615,-3.701611 3.86399,-3.334511 z"
   stroke-linecap="round"
   id="path14" />&#10;</g>&#10;		<g
   transform="translate(-197.88,-7.79)"
   id="g15">&#10;<path
   style="opacity:1;fill:#e07300;fill-rule:nonzero;stroke:none;stroke-width:1;stroke-linecap:butt;stroke-linejoin:miter;stroke-miterlimit:4;stroke-dasharray:none;stroke-dashoffset:0"
   vector-effect="non-scaling-stroke"
   transform="translate(-57.44,-55.82)"
   d="m 68.8209,68.117455 c -7.684853,0.364906 -15.140022,0.364906 -22.995567,0.364906 0,-8.45414 0,-16.826462 0,-25.332405 3.25486,0 6.341236,0 9.86605,0 0,5.00959 0,9.773208 0,15.140735 4.618054,0 8.830933,0 13.3592,0 0,3.556286 0,6.509076 -0.229683,9.826764 z"
   stroke-linecap="round"
   id="path15" />&#10;</g>&#10;		<g
   transform="translate(-93.71,13.79)"
   id="g16">&#10;<path
   style="opacity:1;fill:#e07300;fill-rule:nonzero;stroke:none;stroke-width:1;stroke-linecap:butt;stroke-linejoin:miter;stroke-miterlimit:4;stroke-dasharray:none;stroke-dashoffset:0"
   vector-effect="non-scaling-stroke"
   transform="translate(-161.6,-77.4)"
   d="m 166.57648,72.014786 c -5e-5,8.46434 -5e-5,16.431907 -5e-5,24.746826 -3.42485,0 -6.49184,0 -9.95267,0 0,-12.775459 0,-25.62777 0,-38.731148 3.19503,0 6.28794,0 9.95275,0 0,4.610008 0,9.048775 -3e-5,13.984322 z"
   stroke-linecap="round"
   id="path16" />&#10;</g>&#10;		<g
   transform="translate(-125.66,-3.95)"
   id="g17">&#10;<path
   style="opacity:1;fill:#e07300;fill-rule:nonzero;stroke:none;stroke-width:1;stroke-linecap:butt;stroke-linejoin:miter;stroke-miterlimit:4;stroke-dasharray:none;stroke-dashoffset:0"
   vector-effect="non-scaling-stroke"
   transform="translate(-129.65,-59.65)"
   d="m 135.32169,61.823219 c 1.54962,1.014145 2.82423,1.83524 3.75978,2.942765 3.82031,4.522621 2.94023,6.747497 -3.50458,8.234466 -0.88506,-0.353401 -1.40643,-0.713158 -2.347,-1.479584 -3.07329,-3.760254 -5.7274,-7.113838 -8.38149,-10.467418 -0.57309,0.302791 -1.14617,0.605583 -1.71926,0.908378 0.62749,3.258953 1.25498,6.517918 1.88247,9.776875 -2.13922,0 -4.27843,0 -7.06772,0 0,-7.970707 0,-15.894631 0.43747,-24.353691 4.73223,-3.183697 6.43453,1.614528 9.46189,2.606514 0,3.75291 0,7.505817 0,11.770336 2.6186,0 4.83306,0 7.47844,0.06136 z"
   stroke-linecap="round"
   id="path17" />&#10;</g>&#10;		<g
   transform="translate(155.62,28.31)"
   id="g18">&#10;<path
   style="opacity:1;fill:#e07300;fill-rule:nonzero;stroke:none;stroke-width:1;stroke-linecap:butt;stroke-linejoin:miter;stroke-miterlimit:4;stroke-dasharray:none;stroke-dashoffset:0"
   vector-effect="non-scaling-stroke"
   transform="translate(-410.93,-91.93)"
   d="m 396.77106,88.532883 c 1.55813,-0.781235 3.05533,-1.405838 4.56036,-1.425202 7.81857,-0.10057 15.63916,-0.04684 23.823,-0.04684 0,3.335411 0,6.403557 0,9.752549 -9.34924,0 -18.6091,0 -28.44067,0 0,-2.621689 0,-5.233185 0.0573,-8.28051 z"
   stroke-linecap="round"
   id="path18" />&#10;</g>&#10;		<g
   transform="translate(-204.87,19.98)"
   id="g19">&#10;<path
   style="opacity:1;fill:#e07300;fill-rule:nonzero;stroke:none;stroke-width:1;stroke-linecap:butt;stroke-linejoin:miter;stroke-miterlimit:4;stroke-dasharray:none;stroke-dashoffset:0"
   vector-effect="non-scaling-stroke"
   transform="translate(-50.44,-83.59)"
   d="m 45.44146,73.578796 c 3.135971,-1.30532 6.253647,-2.164894 10.023262,-3.2042 0,9.675529 0,17.899948 0,26.435798 -3.215966,0 -6.294979,0 -10.041554,0 0,-7.600822 0,-15.193329 0.01829,-23.231598 z"
   stroke-linecap="round"
   id="path19" />&#10;</g>&#10;		<g
   transform="translate(-94.05,-21.12)"
   id="g20">&#10;<path
   style="opacity:1;fill:#e07300;fill-rule:nonzero;stroke:none;stroke-width:1;stroke-linecap:butt;stroke-linejoin:miter;stroke-miterlimit:4;stroke-dasharray:none;stroke-dashoffset:0"
   vector-effect="non-scaling-stroke"
   transform="translate(-161.27,-42.49)"
   d="m 156.2921,46.907944 c 5.9e-4,-5.775795 5.9e-4,-11.066193 5.9e-4,-16.676997 3.50351,0 6.5797,0 9.96328,0 0,8.083834 0,16.154971 0,24.512858 -3.1979,0 -6.27579,0 -9.96447,0 0,-2.469524 0,-4.909992 6e-4,-7.835861 z"
   stroke-linecap="round"
   id="path20" />&#10;</g>&#10;		<g
   transform="translate(-127.93,-23.67)"
   id="g21">&#10;<path
   style="opacity:1;fill:#e07300;fill-rule:nonzero;stroke:none;stroke-width:1;stroke-linecap:butt;stroke-linejoin:miter;stroke-miterlimit:4;stroke-dasharray:none;stroke-dashoffset:0"
   vector-effect="non-scaling-stroke"
   transform="translate(-127.39,-39.94)"
   d="m 127.91008,49.544285 c -3.09419,-0.544747 -4.79649,-5.342972 -9.44983,-2.622463 -0.3586,-5.374939 -0.3586,-10.821835 -0.3586,-16.594769 6.10051,0 12.14528,0 18.58194,0 0,3.310394 0,6.666805 0,10.212727 -2.76269,0 -5.48428,0 -8.70668,0 0,3.006527 0,5.781894 -0.0668,9.004505 z"
   stroke-linecap="round"
   id="path21" />&#10;</g>&#10;		<g
   transform="translate(181.1,22.08)"
   id="g22">&#10;<path
   style="opacity:1;fill:#e07300;fill-rule:nonzero;stroke:none;stroke-width:1;stroke-linecap:butt;stroke-linejoin:miter;stroke-miterlimit:4;stroke-dasharray:none;stroke-dashoffset:0"
   vector-effect="non-scaling-stroke"
   transform="translate(-436.42,-85.68)"
   d="m 431.42926,77.594879 c 1.25781,-1.27652 2.41595,-2.542183 3.78879,-2.849777 1.86645,-0.418205 3.897,-0.104187 6.19675,-0.104187 0,7.603943 0,14.764397 0,22.200813 -3.22382,0 -6.29951,0 -9.98954,0 0,-6.313034 0,-12.561043 0.004,-19.246849 z"
   stroke-linecap="round"
   id="path22" />&#10;</g>&#10;		<g
   transform="translate(162.14,-28.77)"
   id="g23">&#10;<path
   style="opacity:1;fill:#e07300;fill-rule:nonzero;stroke:none;stroke-width:1;stroke-linecap:butt;stroke-linejoin:miter;stroke-miterlimit:4;stroke-dasharray:none;stroke-dashoffset:0"
   vector-effect="non-scaling-stroke"
   transform="translate(-417.46,-34.84)"
   d="m 414.17313,29.902822 c 3.91696,-5.3e-5 7.35965,-5.3e-5 11.08432,-5.3e-5 0,3.428221 0,6.489405 0,9.875746 -5.1438,0 -10.17597,0 -15.60312,0 0,-2.95937 0,-5.992523 0,-9.534149 1.24026,-0.104719 2.64239,-0.223105 4.5188,-0.341544 z"
   stroke-linecap="round"
   id="path23" />&#10;</g>&#10;		<g
   transform="translate(37.44,28.79)"
   id="g24">&#10;<path
   style="opacity:1;fill:#e07300;fill-rule:nonzero;stroke:none;stroke-width:1;stroke-linecap:butt;stroke-linejoin:miter;stroke-miterlimit:4;stroke-dasharray:none;stroke-dashoffset:0"
   vector-effect="non-scaling-stroke"
   transform="translate(-292.76,-92.4)"
   d="m 285.29022,87.157379 c 5.7547,0.04346 11.0347,0.04346 16.48233,0.04346 -2.10681,7.750374 -8.49322,11.409569 -18.02536,10.215241 0.35266,-3.40094 0.71048,-6.851548 1.54303,-10.258698 z"
   stroke-linecap="round"
   id="path24" />&#10;</g>&#10;		<g
   transform="translate(-189.49,-28.42)"
   id="g25">&#10;<path
   style="opacity:1;fill:#e07300;fill-rule:nonzero;stroke:none;stroke-width:1;stroke-linecap:butt;stroke-linejoin:miter;stroke-miterlimit:4;stroke-dasharray:none;stroke-dashoffset:0"
   vector-effect="non-scaling-stroke"
   transform="translate(-65.83,-35.19)"
   d="m 59.38607,39.951103 c -0.80458,-3.119648 -1.150238,-6.145847 -1.547443,-9.623394 5.567367,0 10.59103,0 15.977215,0 0,2.89386 0,5.952194 0,9.716847 -4.51442,0 -9.242638,0 -14.429772,-0.09345 z"
   stroke-linecap="round"
   id="path25" />&#10;</g>&#10;		<g
   transform="translate(91.03,28.63)"
   id="g26">&#10;<path
   style="opacity:1;fill:#e07300;fill-rule:nonzero;stroke:none;stroke-width:1;stroke-linecap:butt;stroke-linejoin:miter;stroke-miterlimit:4;stroke-dasharray:none;stroke-dashoffset:0"
   vector-effect="non-scaling-stroke"
   transform="translate(-346.35,-92.24)"
   d="m 344.0784,97.08622 c -1.91058,-0.07961 -3.34131,-0.159203 -4.92026,-0.24704 0,-3.244789 0,-6.170052 0,-9.43914 4.73215,0 9.40558,0 14.38709,0 0,3.010849 0,5.918815 0,9.686203 -2.89795,0 -5.94245,0 -9.46683,-2.3e-5 z"
   stroke-linecap="round"
   id="path26" />&#10;</g>&#10;		<g
   transform="translate(-132.41,26.32)"
   id="g27">&#10;<path
   style="opacity:1;fill:#e07300;fill-rule:nonzero;stroke:none;stroke-width:1;stroke-linecap:butt;stroke-linejoin:miter;stroke-miterlimit:4;stroke-dasharray:none;stroke-dashoffset:0"
   vector-effect="non-scaling-stroke"
   transform="translate(-122.9,-89.93)"
   d="m 127.84644,83.007545 c 0,4.553742 0,9.107483 0,13.847313 -3.36727,0 -6.40456,0 -9.8908,0 0,-3.112762 0,-6.026413 0.44741,-9.403442 3.44606,-1.790207 6.44473,-3.117043 9.44339,-4.443871 z"
   stroke-linecap="round"
   id="path27" />&#10;</g>&#10;		<g
   transform="translate(-17.38,-28.41)"
   id="g28">&#10;<path
   style="opacity:1;fill:#e07300;fill-rule:nonzero;stroke:none;stroke-width:1;stroke-linecap:butt;stroke-linejoin:miter;stroke-miterlimit:4;stroke-dasharray:none;stroke-dashoffset:0"
   vector-effect="non-scaling-stroke"
   transform="translate(-237.94,-35.19)"
   d="m 238.00999,40.188385 c -1.92659,9.5e-5 -3.39848,9.5e-5 -5.10264,9.5e-5 0,-3.495151 0,-6.597946 0,-9.990223 3.17091,0 6.21908,0 9.24127,0 1.55499,8.886033 1.28358,9.604306 -4.13863,9.990128 z"
   stroke-linecap="round"
   id="path28" />&#10;</g>&#10;		<g
   transform="translate(-204.99,-28.79)"
   id="g29">&#10;<path
   style="opacity:1;fill:#e07300;fill-rule:nonzero;stroke:none;stroke-width:1;stroke-linecap:butt;stroke-linejoin:miter;stroke-miterlimit:4;stroke-dasharray:none;stroke-dashoffset:0"
   vector-effect="non-scaling-stroke"
   transform="translate(-50.33,-34.82)"
   d="m 48.265522,29.890524 c 2.584164,-0.0032 4.713993,-0.0032 7.166851,-0.0032 0,3.383646 0,6.437289 0,9.862581 -3.05785,0 -6.106956,0 -9.9328,0 0.995613,-3.26184 -2.615383,-7.21997 2.765949,-9.859342 z"
   stroke-linecap="round"
   id="path29" />&#10;</g>&#10;		<g
   transform="translate(108.89,-28.53)"
   id="g30">&#10;<path
   style="opacity:1;fill:#e07300;fill-rule:nonzero;stroke:none;stroke-width:1;stroke-linecap:butt;stroke-linejoin:miter;stroke-miterlimit:4;stroke-dasharray:none;stroke-dashoffset:0"
   vector-effect="non-scaling-stroke"
   transform="translate(-364.21,-35.08)"
   d="m 359.6593,39.48204 c -0.25729,-3.175796 -0.25729,-5.974556 -0.25729,-9.171596 3.20257,0 6.24774,0 9.61743,0 0,2.952801 0,6.026642 0,9.548633 -3.0145,0 -6.05869,0 -9.36014,-0.377037 z"
   stroke-linecap="round"
   id="path30" />&#10;</g>&#10;		<g
   transform="translate(59.27,-28.95)"
   id="g31">&#10;<path
   style="opacity:1;fill:#e07300;fill-rule:nonzero;stroke:none;stroke-width:1;stroke-linecap:butt;stroke-linejoin:miter;stroke-miterlimit:4;stroke-dasharray:none;stroke-dashoffset:0"
   vector-effect="non-scaling-stroke"
   transform="translate(-314.59,-34.67)"
   d="m 310.03714,38.890694 c -0.32346,-3.017147 -0.32346,-5.764431 -0.32346,-8.717289 3.31931,0 6.38074,0 9.74311,0 0,2.908722 0,5.642551 0,8.987156 -3.00153,0 -6.04886,0 -9.41965,-0.269867 z"
   stroke-linecap="round"
   id="path31" />&#10;</g>&#10;		<g
   transform="translate(21.15,-28.86)"
   id="g32">&#10;<path
   style="opacity:1;fill:#e07300;fill-rule:nonzero;stroke:none;stroke-width:1;stroke-linecap:butt;stroke-linejoin:miter;stroke-miterlimit:4;stroke-dasharray:none;stroke-dashoffset:0"
   vector-effect="non-scaling-stroke"
   transform="translate(-276.47,-34.75)"
   d="m 281.32568,34.83268 c -0.10305,1.682884 -0.20605,2.946445 -0.3154,4.287872 -3.23516,0 -6.15551,0 -9.40417,0 0,-2.903057 0,-5.619591 0,-8.742214 2.9396,0 5.97705,0 9.44705,0 0.0815,1.207105 0.17703,2.621063 0.27252,4.454342 z"
   stroke-linecap="round"
   id="path32" />&#10;</g>&#10;		<g
   transform="translate(145.9,-28.74)"
   id="g33">&#10;<path
   style="opacity:1;fill:#e07300;fill-rule:nonzero;stroke:none;stroke-width:1;stroke-linecap:butt;stroke-linejoin:miter;stroke-miterlimit:4;stroke-dasharray:none;stroke-dashoffset:0"
   vector-effect="non-scaling-stroke"
   transform="translate(-401.22,-34.87)"
   d="m 400.95429,29.917557 c 2.0964,-1.59e-4 3.721,-1.59e-4 5.61627,-1.59e-4 0,3.50342 0,6.564333 0,9.896773 -3.25263,0 -6.31525,0 -10.70166,0 3.26904,-3.142403 -3.67618,-9.105499 5.08539,-9.896614 z"
   stroke-linecap="round"
   id="path33" />&#10;</g>&#10;		<g
   transform="translate(75.61,27.82)"
   id="g34">&#10;<path
   style="opacity:1;fill:#e07300;fill-rule:nonzero;stroke:none;stroke-width:1;stroke-linecap:butt;stroke-linejoin:miter;stroke-miterlimit:4;stroke-dasharray:none;stroke-dashoffset:0"
   vector-effect="non-scaling-stroke"
   transform="translate(-330.92,-91.44)"
   d="m 326.07544,89.269424 c 3.03119,-1.289222 6.05148,-2.119285 9.70441,-3.123222 0,4.146645 0,7.181183 0,10.579567 -2.84772,0 -5.90357,0 -9.71531,0 0,-2.204857 0,-4.601021 0.0109,-7.456345 z"
   stroke-linecap="round"
   id="path34" />&#10;</g>&#10;		<g
   transform="translate(59.08,28.81)"
   id="g35">&#10;<path
   style="opacity:1;fill:#e07300;fill-rule:nonzero;stroke:none;stroke-width:1;stroke-linecap:butt;stroke-linejoin:miter;stroke-miterlimit:4;stroke-dasharray:none;stroke-dashoffset:0"
   vector-effect="non-scaling-stroke"
   transform="translate(-314.39,-92.42)"
   d="m 310.51422,88.114151 c 3.19116,-0.114273 5.9516,-0.114273 8.9743,-0.114273 0,3.142517 0,5.852615 0,8.839096 -3.27865,0 -6.3413,0 -10.19488,0 0.2691,-2.93383 0.52948,-5.772194 1.22058,-8.724823 z"
   stroke-linecap="round"
   id="path35" />&#10;</g>&#10;		<g
   transform="translate(-132.3,17.26)"
   id="g36">&#10;<path
   style="opacity:1;fill:#e07300;fill-rule:nonzero;stroke:none;stroke-width:1;stroke-linecap:butt;stroke-linejoin:miter;stroke-miterlimit:4;stroke-dasharray:none;stroke-dashoffset:0"
   vector-effect="non-scaling-stroke"
   transform="translate(-123.02,-80.87)"
   d="m 127.92027,82.610077 c -3.07249,1.724296 -6.07116,3.051132 -9.44206,4.386581 -0.37224,-3.916176 -0.37224,-7.840965 -0.37224,-12.243423 2.4863,0 4.74035,0 7.44905,0.46077 1.06601,1.56678 1.67738,2.672798 2.28875,3.778823 0.0501,1.073265 0.10021,2.146523 0.0765,3.617249 z"
   stroke-linecap="round"
   id="path36" />&#10;</g>&#10;		<g
   transform="translate(203.06,-28.27)"
   id="g37">&#10;<path
   style="opacity:1;fill:#e07300;fill-rule:nonzero;stroke:none;stroke-width:1;stroke-linecap:butt;stroke-linejoin:miter;stroke-miterlimit:4;stroke-dasharray:none;stroke-dashoffset:0"
   vector-effect="non-scaling-stroke"
   transform="translate(-458.38,-35.35)"
   d="m 459.75595,34.409081 c 1.09341,1.848804 1.94055,3.416866 3.0867,5.538436 -3.28247,0 -5.97076,0 -8.92514,0 0,-2.783939 0,-5.521804 0,-9.201898 2.18826,1.323683 3.8902,2.353201 5.83844,3.663462 z"
   stroke-linecap="round"
   id="path37" />&#10;</g>&#10;		<g
   transform="translate(-110.67,-28.23)"
   id="g38">&#10;<path
   style="opacity:1;fill:#e07300;fill-rule:nonzero;stroke:none;stroke-width:1;stroke-linecap:butt;stroke-linejoin:miter;stroke-miterlimit:4;stroke-dasharray:none;stroke-dashoffset:0"
   vector-effect="non-scaling-stroke"
   transform="translate(-144.65,-35.38)"
   d="m 140.591,40.026649 c -0.50905,-2.980907 -0.63841,-5.763614 -0.76779,-8.546318 0.41161,-0.317335 0.82321,-0.63467 1.23482,-0.952007 2.80418,2.728821 5.60837,5.457642 8.41255,8.186463 -0.26871,0.503356 -0.53743,1.006713 -0.80614,1.51007 -2.56459,0 -5.12916,0 -8.07344,-0.198208 z"
   stroke-linecap="round"
   id="path38" />&#10;</g>&#10;		<g
   transform="translate(-127.3,2.83)"
   id="g39">&#10;<path
   style="opacity:1;fill:#e07300;fill-rule:nonzero;stroke:none;stroke-width:1;stroke-linecap:butt;stroke-linejoin:miter;stroke-miterlimit:4;stroke-dasharray:none;stroke-dashoffset:0"
   vector-effect="non-scaling-stroke"
   transform="translate(-128.01,-66.44)"
   d="m 125.44875,71.81871 c -1.06463,-3.338966 -1.69212,-6.597931 -2.31961,-9.856884 0.57309,-0.302795 1.14617,-0.605587 1.71926,-0.908378 2.65409,3.35358 5.3082,6.707164 8.05092,10.379337 -2.27873,0.367706 -4.64609,0.416824 -7.45057,0.385925 z"
   stroke-linecap="round"
   id="path39" />&#10;</g>&#10;		<g
   transform="translate(-169.68,-28.73)"
   id="g40">&#10;<path
   style="opacity:1;fill:#e07300;fill-rule:nonzero;stroke:none;stroke-width:1;stroke-linecap:butt;stroke-linejoin:miter;stroke-miterlimit:4;stroke-dasharray:none;stroke-dashoffset:0"
   vector-effect="non-scaling-stroke"
   transform="translate(-85.63,-34.88)"
   d="m 82.083771,39.266861 c -0.297791,-4.772713 3.426826,-6.254311 7.114601,-8.848269 0,3.228335 0,5.746512 0,8.919611 -2.223351,0 -4.485733,0 -7.114601,-0.07134 z"
   stroke-linecap="round"
   id="path40" />&#10;</g>&#10;		<g
   transform="translate(-128.36,13.34)"
   id="g41">&#10;<path
   style="opacity:1;fill:#e07300;fill-rule:nonzero;stroke:none;stroke-width:1;stroke-linecap:butt;stroke-linejoin:miter;stroke-miterlimit:4;stroke-dasharray:none;stroke-dashoffset:0"
   vector-effect="non-scaling-stroke"
   transform="translate(-126.96,-76.96)"
   d="m 127.91016,78.590096 c -0.67776,-0.703293 -1.28913,-1.809311 -1.90628,-3.268708 0.6537,0.719742 1.31319,1.792855 1.90628,3.268708 z"
   stroke-linecap="round"
   id="path41" />&#10;</g>&#10;		<g
   transform="translate(-114.79,-20.07)"
   id="g42">&#10;<path
   style="opacity:1;fill:#e07300;fill-rule:nonzero;stroke:none;stroke-width:1;stroke-linecap:butt;stroke-linejoin:miter;stroke-miterlimit:4;stroke-dasharray:none;stroke-dashoffset:0"
   vector-effect="non-scaling-stroke"
   transform="translate(-140.53,-43.54)"
   d="m 140.74246,43.176842 c 0.1134,0.269447 -0.0671,0.459038 -0.45067,0.718204 -0.0484,-0.186527 0.0716,-0.475738 0.45067,-0.718204 z"
   stroke-linecap="round"
   id="path42" />&#10;</g>&#10;</g>&#10;</g>&#10;</svg>
