<?xml version="1.0" encoding="UTF-8" standalone="no"?>
<svg
   version="1.1"
   id="Layer_1"
   x="0px"
   y="0px"
   width="100%"
   viewBox="0 0 750 230"
   enable-background="new 0 0 750 230"
   xml:space="preserve"
   sodipodi:docname="3mas1rApp_adobe_express.svg"
   inkscape:version="1.2.2 (b0a8486541, 2022-12-01)"
   xmlns:inkscape="http://www.inkscape.org/namespaces/inkscape"
   xmlns:sodipodi="http://sodipodi.sourceforge.net/DTD/sodipodi-0.dtd"
   xmlns="http://www.w3.org/2000/svg"
   xmlns:svg="http://www.w3.org/2000/svg"><defs
   id="defs35" /><sodipodi:namedview
   id="namedview33"
   pagecolor="#ffffff"
   bordercolor="#000000"
   borderopacity="0.25"
   inkscape:showpageshadow="2"
   inkscape:pageopacity="0.0"
   inkscape:pagecheckerboard="0"
   inkscape:deskcolor="#d1d1d1"
   showgrid="false"
   inkscape:zoom="1.6133333"
   inkscape:cx="363.22314"
   inkscape:cy="115.28926"
   inkscape:window-width="1920"
   inkscape:window-height="1009"
   inkscape:window-x="-8"
   inkscape:window-y="-8"
   inkscape:window-maximized="1"
   inkscape:current-layer="Layer_1" />

<path
   fill="#111111"
   opacity="1.000000"
   stroke="none"
   d=" M118.000000,225.000046   C86.853554,225.000046 56.207104,225.000046 24.940416,225.000046   C26.756340,208.711945 28.539055,192.721695 30.371912,176.281708   C58.140587,176.281708 86.212204,176.281708 114.769951,176.281708   C117.163383,164.499405 119.494431,153.024155 121.901459,141.174927   C103.104691,141.174927 84.362381,141.174927 65.104774,141.174927   C63.226276,124.398430 61.383373,107.939804 59.486584,90.999939   C75.364120,90.999939 90.322685,90.999947 105.281250,90.999931   C113.114433,90.999916 120.951141,91.119003 128.777451,90.887024   C130.143051,90.846550 132.418991,89.539452 132.659027,88.458588   C135.011429,77.866081 137.021240,67.197502 139.208954,56.143669   C107.465637,56.143669 76.030045,56.143669 43.935139,56.143669   C45.768108,39.619637 47.554096,23.519163 49.363235,7.209999   C96.460724,7.209999 143.562332,7.209999 190.487518,7.209999   C189.651245,15.433687 188.894196,23.560080 187.983337,31.669195   C186.744125,42.701550 185.309433,53.712219 184.107941,64.748451   C183.274918,72.400055 182.799149,80.090439 181.975235,87.743195   C180.751617,99.108299 179.299744,110.448753 178.063965,121.812637   C177.265991,129.150360 176.776855,136.521683 175.977798,143.859283   C174.741745,155.209564 173.289062,166.536331 172.063324,177.887634   C171.253143,185.390503 170.682495,192.919189 169.999191,200.435822   C169.332199,207.772995 168.824478,215.132904 167.800507,222.420105   C167.654236,223.461044 165.003464,224.869919 163.496811,224.888412   C148.499680,225.072449 133.499390,225.000031 118.000000,225.000046  z"
   id="path4"
   style="stroke:#ff1a26;stroke-opacity:1" />
<path
   fill="#111111"
   opacity="1.000000"
   stroke="none"
   d=" M480.981598,164.108978   C482.159454,167.320267 482.997894,170.340103 484.602020,172.875504   C485.518738,174.324448 487.645996,175.786728 489.290741,175.861115   C496.440063,176.184464 503.613739,176.079254 510.775757,175.960602   C513.595398,175.913879 514.526367,176.748566 515.144775,179.784973   C518.037720,193.990677 521.436829,208.093231 524.641541,222.235703   C524.816772,223.009155 524.869873,223.810257 525.009460,224.810867   C497.697540,224.810867 470.581207,224.810867 443.132965,224.810867   C437.137390,199.975357 431.137909,175.123672 424.996490,149.683945   C416.508331,154.860687 408.479340,159.757416 400.000671,164.928375   C400.000671,147.058746 399.922028,129.638428 400.150543,112.222137   C400.168732,110.834129 402.036560,108.922142 403.510071,108.190125   C413.332825,103.310417 423.167908,98.419563 433.239441,94.091866   C438.155273,91.979546 439.712738,88.982597 439.045837,83.942535   C437.829559,74.750053 436.901245,65.519463 435.831055,56.113632   C423.954224,56.113632 412.325989,56.113632 400.349304,56.113632   C400.349304,39.830982 400.349304,23.762676 400.349304,7.346437   C425.505676,7.346437 450.901459,7.346437 476.815735,7.346437   C481.505615,28.917233 486.248199,50.789936 491.021301,72.655983   C493.049988,81.949646 494.596802,91.401726 497.450806,100.438118   C498.754486,104.565773 496.519043,105.549278 494.458588,106.843262   C484.495972,113.100067 474.384857,119.120377 463.936768,125.460991   C469.635803,138.265274 475.299408,150.989914 480.981598,164.108978  z"
   id="path6"
   style="stroke:#ff1a26;stroke-opacity:1" />
<path
   fill="#111111"
   opacity="1.000000"
   stroke="none"
   d=" M369.998474,6.999928   C375.807617,6.999928 381.117035,6.999928 386.712280,6.999928   C386.712280,79.622803 386.712280,152.014130 386.712280,224.702942   C365.904449,224.702942 345.021240,224.702942 324.211395,224.702942   C324.819244,220.057159 325.561005,215.568588 325.967834,211.049850   C327.055389,198.969696 327.850220,186.861938 329.037628,174.792343   C330.542908,159.491638 332.397400,144.225525 333.950409,128.929184   C334.794983,120.610664 335.197876,112.247482 336.030731,103.927528   C337.233917,91.908600 338.715057,79.917526 339.923035,67.899025   C340.234955,64.795609 339.969940,61.634193 339.969940,57.902275   C325.008179,65.554848 310.406616,73.023193 294.884064,80.962593   C295.324890,74.814209 295.531464,69.786293 296.078796,64.795746   C296.930878,57.026653 298.081909,49.290695 298.973053,41.525406   C299.458679,37.293617 299.547363,33.014488 300.093719,28.792772   C300.224609,27.781252 301.269409,26.477581 302.226593,26.045727   C314.252808,20.619900 326.512085,15.681821 338.359558,9.897518   C348.540649,4.926764 359.131226,7.947240 369.998474,6.999928  z"
   id="path8"
   style="fill:#111111;fill-opacity:1;stroke:#ff1a26;stroke-opacity:1" />
<path
   fill="#131111"
   opacity="1.000000"
   stroke="none"
   d=" M641.000000,225.001663   C618.523376,225.001663 596.546692,225.001663 574.612061,225.001663   C573.410339,218.146912 573.523926,218.003769 580.023071,217.999023   C584.830261,217.995529 589.637512,217.998337 594.720398,217.998337   C594.720398,211.348709 594.720398,204.945770 594.720398,198.001663   C590.307922,198.001663 585.867432,198.001648 581.426941,198.001648   C565.096985,198.001648 548.767090,198.002304 532.437134,198.001343   C526.014465,198.000961 526.001526,197.999329 526.000549,191.258652   C525.995728,158.098892 525.998352,124.939140 525.998352,91.779381   C525.998352,84.447578 526.169800,77.110085 525.926880,69.786339   C525.803284,66.061195 527.036926,64.886070 530.770752,64.925026   C547.098877,65.095345 563.430725,64.906960 579.759094,65.068001   C583.448975,65.104401 584.686096,64.301208 585.219788,60.219418   C586.130798,53.251678 587.304260,45.910690 590.377502,39.725155   C595.469910,29.475599 600.776489,18.917042 609.618347,11.262482   C616.894653,4.963184 624.570801,5.017119 632.050964,12.201061   C642.135193,21.886000 648.658020,33.750954 653.239441,46.748478   C654.887939,51.425175 656.708740,56.368183 656.750427,61.204292   C656.806946,67.768051 661.290344,65.600159 664.216431,65.846443   C669.263367,66.271248 674.370667,65.979561 679.452637,65.985794   C683.430664,65.990677 687.408691,65.993019 691.386719,65.993622   C699.082153,65.994804 706.777649,65.993973 714.742249,65.993973   C714.742249,109.187431 714.742249,153.281631 714.742249,197.784912   C692.089111,197.784912 669.352539,197.784912 646.309814,197.784912   C646.309814,204.586090 646.309814,210.991470 646.309814,217.817673   C652.939209,217.817673 659.682129,217.817673 666.710571,217.817673   C666.710571,220.294540 666.710571,222.363373 666.710571,225.001663   C658.380127,225.001663 649.940063,225.001663 641.000000,225.001663  M537.001587,156.500000   C537.001587,166.262405 537.001587,176.024796 537.001587,185.710571   C592.980774,185.710571 648.373901,185.710571 703.710266,185.710571   C703.710266,149.025269 703.710266,112.628525 703.710266,76.290359   C688.347168,76.290359 673.273865,76.290359 657.271790,76.290359   C659.870178,96.939156 671.633850,114.113052 676.827332,134.316254   C666.130005,131.081314 656.230774,128.087708 645.947388,124.977936   C645.947388,132.043015 645.947388,138.822769 645.947388,145.982193   C642.867920,145.982193 640.112976,145.982193 637.370728,145.982193   C635.697083,155.911072 634.421265,165.581070 626.776062,172.758545   C621.867371,177.366974 616.645020,176.614624 612.951721,171.132965   C607.865845,163.584427 605.309998,155.310577 604.802856,145.957321   C601.845398,145.957321 599.095459,145.957321 595.785889,145.957321   C595.785889,138.737839 595.785889,131.901947 595.785889,124.697388   C585.315430,127.869659 575.472656,130.851776 564.679504,134.121811   C565.937500,130.424667 566.599609,128.269699 567.399719,126.167290   C569.681396,120.171768 572.068848,114.216202 574.321289,108.209908   C576.625793,102.064888 578.032776,95.416306 581.300903,89.850296   C584.123596,85.042961 584.618713,80.993370 582.551636,76.294174   C567.373718,76.294174 552.296936,76.294174 537.001587,76.294174   C537.001587,102.890724 537.001587,129.195358 537.001587,156.500000  M596.267334,54.093815   C595.131958,60.882954 593.265991,67.644928 593.012329,74.466858   C592.472717,88.978989 595.869141,102.852364 602.348083,115.844986   C603.130493,117.413895 605.766296,118.890465 607.599121,118.961418   C616.082397,119.289833 624.588867,118.969063 633.079651,119.178520   C636.215332,119.255867 637.906128,118.167717 639.151550,115.349052   C647.052246,97.468307 650.648682,79.117363 646.148499,59.656784   C642.834839,45.327274 637.046570,32.242786 627.023926,21.368725   C621.260254,15.115364 618.095398,15.730060 612.889465,22.675072   C605.842896,32.075634 599.776306,41.943695 596.267334,54.093815  M606.001587,204.570740   C606.001587,208.992722 606.001587,213.414719 606.001587,217.681580   C616.369080,217.681580 626.101318,217.681580 635.677551,217.681580   C635.677551,210.958313 635.677551,204.555664 635.677551,198.323563   C625.622070,198.323563 615.890198,198.323563 606.001587,198.323563   C606.001587,200.293991 606.001587,201.945816 606.001587,204.570740  M628.420044,136.073013   C630.825073,136.073013 633.230103,136.073013 635.617981,136.073013   C635.617981,132.978806 635.617981,130.716141 635.617981,128.230164   C625.692566,128.230164 616.023682,128.230164 606.253235,128.230164   C606.253235,131.265076 606.253235,133.943863 606.253235,136.073318   C613.603821,136.073318 620.525085,136.073318 628.420044,136.073013  M621.281555,146.195786   C619.550415,146.195786 617.819275,146.195786 614.826721,146.195786   C616.737549,152.216385 618.297485,157.131409 619.857361,162.046417   C620.376648,162.083572 620.895874,162.120743 621.415161,162.157913   C622.687683,158.140747 623.737244,154.034424 625.297791,150.132462   C626.745422,146.512924 624.925354,146.120117 621.281555,146.195786  M649.754211,114.021973   C651.484436,119.393005 656.041626,116.953186 659.247925,118.245934   C659.725403,117.832855 660.202820,117.419777 660.680237,117.006706   C658.645142,112.636948 656.609985,108.267189 654.574890,103.897430   C654.129944,103.969917 653.684937,104.042397 653.239990,104.114876   C652.115723,107.166359 650.991455,110.217834 649.754211,114.021973  M585.805176,106.492111   C584.316406,110.219124 582.827637,113.946129 580.918518,118.725471   C585.286011,117.546165 588.631775,116.642746 592.129639,115.698273   C590.850403,112.084312 589.804016,109.000916 588.663330,105.952843   C587.958801,104.070122 587.009155,103.538261 585.805176,106.492111  z"
   id="path10"
   style="stroke:#ff1a26;stroke-opacity:1" />
<path
   fill="#FF1A26"
   opacity="1.000000"
   stroke="none"
   d=" M266.983368,80.000000   C271.125488,80.000000 274.771362,80.000000 279.444916,80.000000   C276.851166,92.820770 274.346466,105.201134 271.839294,117.593971   C283.376038,116.842873 294.279388,116.133011 305.919067,115.375206   C304.633636,126.668526 303.324860,138.166748 301.977936,150.000031   C290.794891,150.000031 279.990112,150.135345 269.192108,149.923294   C265.632660,149.853394 264.505219,151.090546 263.893005,154.533752   C262.049225,164.902817 259.720459,175.185654 257.526337,185.765060   C246.944427,185.765060 236.170715,185.765060 225.241928,185.765060   C227.382462,173.885452 229.505157,162.104843 231.696320,149.944244   C221.524994,149.944244 211.416580,149.944244 201.014755,149.944244   C202.102982,140.508972 203.144165,131.481613 204.218704,122.164993   C210.211380,121.772018 216.099045,121.403587 221.983856,120.994255   C226.410614,120.686340 230.855911,120.484596 235.241943,119.870979   C236.265274,119.727814 237.694504,118.223267 237.899216,117.147591   C240.055542,105.817184 241.898285,94.426178 244.151016,83.116325   C244.398849,81.872025 246.620407,80.213585 247.999939,80.140945   C254.147751,79.817253 260.322266,80.000160 266.983368,80.000000  z"
   id="path12" />

<path
   fill="#FF1A26"
   opacity="1.000000"
   stroke="none"
   d=" M596.507141,53.762310   C599.776306,41.943695 605.842896,32.075634 612.889465,22.675072   C618.095398,15.730060 621.260254,15.115364 627.023926,21.368725   C637.046570,32.242786 642.834839,45.327274 646.148499,59.656784   C650.648682,79.117363 647.052246,97.468307 639.151550,115.349052   C637.906128,118.167717 636.215332,119.255867 633.079651,119.178520   C624.588867,118.969063 616.082397,119.289833 607.599121,118.961418   C605.766296,118.890465 603.130493,117.413895 602.348083,115.844986   C595.869141,102.852364 592.472717,88.978989 593.012329,74.466858   C593.265991,67.644928 595.131958,60.882954 596.507141,53.762310  M606.351196,74.848053   C607.398193,75.917984 608.408386,77.027122 609.498474,78.051201   C614.779724,83.012619 621.595276,84.323112 627.567200,81.092697   C633.667908,77.792664 637.872192,72.814964 637.898682,65.545631   C637.923035,58.882462 632.505920,52.055527 626.177063,49.896843   C619.668518,47.676880 612.041870,49.568901 607.764465,54.773071   C602.837036,60.768063 602.594360,67.335213 606.351196,74.848053  z"
   id="path16"
   style="fill:#ff1a26;fill-opacity:1" />

<path
   fill="#FC1A26"
   opacity="1.000000"
   stroke="none"
   d=" M627.933228,136.073166   C620.525085,136.073318 613.603821,136.073318 606.253235,136.073318   C606.253235,133.943863 606.253235,131.265076 606.253235,128.230164   C616.023682,128.230164 625.692566,128.230164 635.617981,128.230164   C635.617981,130.716141 635.617981,132.978806 635.617981,136.073013   C633.230103,136.073013 630.825073,136.073013 627.933228,136.073166  z"
   id="path20" />
<path
   fill="#F29C00"
   opacity="1.000000"
   stroke="none"
   d=" M621.714844,146.196243   C624.925354,146.120117 626.745422,146.512924 625.297791,150.132462   C623.737244,154.034424 622.687683,158.140747 621.415161,162.157913   C620.895874,162.120743 620.376648,162.083572 619.857361,162.046417   C618.297485,157.131409 616.737549,152.216385 614.826721,146.195786   C617.819275,146.195786 619.550415,146.195786 621.714844,146.196243  z"
   id="path22" />
<path
   fill="#F51925"
   opacity="1.000000"
   stroke="none"
   d=" M649.810669,113.645645   C650.991455,110.217834 652.115723,107.166359 653.239990,104.114876   C653.684937,104.042397 654.129944,103.969917 654.574890,103.897430   C656.609985,108.267189 658.645142,112.636948 660.680237,117.006706   C660.202820,117.419777 659.725403,117.832855 659.247925,118.245934   C656.041626,116.953186 651.484436,119.393005 649.810669,113.645645  z"
   id="path24" />
<path
   fill="#FE1A26"
   opacity="1.000000"
   stroke="none"
   d=" M585.857300,106.111603   C587.009155,103.538261 587.958801,104.070122 588.663330,105.952843   C589.804016,109.000916 590.850403,112.084312 592.129639,115.698273   C588.631775,116.642746 585.286011,117.546165 580.918518,118.725471   C582.827637,113.946129 584.316406,110.219124 585.857300,106.111603  z"
   id="path26" />
<path
   fill="#161616"
   opacity="1.000000"
   stroke="none"
   d=" M606.180908,74.504097   C602.594360,67.335213 602.837036,60.768063 607.764465,54.773071   C612.041870,49.568901 619.668518,47.676880 626.177063,49.896843   C632.505920,52.055527 637.923035,58.882462 637.898682,65.545631   C637.872192,72.814964 633.667908,77.792664 627.567200,81.092697   C621.595276,84.323112 614.779724,83.012619 609.498474,78.051201   C608.408386,77.027122 607.398193,75.917984 606.180908,74.504097  M625.340027,73.135483   C626.457458,71.443016 627.823608,69.861725 628.640320,68.034798   C630.297302,64.328125 628.550659,61.192337 625.765381,59.104176   C621.878906,56.190361 617.055420,57.106899 614.173706,60.863453   C611.686096,64.106270 611.303162,67.449722 614.052368,70.901848   C616.953674,74.544861 620.548401,74.850609 625.340027,73.135483  z"
   id="path28"
   style="stroke:#ff1a26;stroke-opacity:1" />

<circle
   id="path1917"
   style="fill:#ff1a26;stroke:#ff1a26;stroke-opacity:1"
   cx="257.85123"
   cy="118.38843"
   r="0.31204301" /></svg>
