<?xml version="1.0" encoding="UTF-8" standalone="no"?>
<svg
   width="1024"
   height="256"
   version="1.1"
   id="svg11"
   sodipodi:docname="logo.svg"
   inkscape:version="1.3 (0e150ed6c4, 2023-07-21)"
   xmlns:inkscape="http://www.inkscape.org/namespaces/inkscape"
   xmlns:sodipodi="http://sodipodi.sourceforge.net/DTD/sodipodi-0.dtd"
   xmlns="http://www.w3.org/2000/svg"
   xmlns:svg="http://www.w3.org/2000/svg">
  <defs
     id="defs11" />
  <sodipodi:namedview
     id="namedview11"
     pagecolor="#ffffff"
     bordercolor="#000000"
     borderopacity="0.25"
     inkscape:showpageshadow="2"
     inkscape:pageopacity="0.0"
     inkscape:pagecheckerboard="0"
     inkscape:deskcolor="#d1d1d1"
     inkscape:zoom="0.79394531"
     inkscape:cx="389.19557"
     inkscape:cy="187.04059"
     inkscape:window-width="1920"
     inkscape:window-height="1009"
     inkscape:window-x="-8"
     inkscape:window-y="-8"
     inkscape:window-maximized="1"
     inkscape:current-layer="svg11" />
  <path
     fill="#F4F1DE"
     d="m 163.52445,60.093566 -25.819,-15.6037 c -1.557,-0.992 -3.213,-1.9258 -4.623,-3.1193 2.523,-1.5569 5.285,-2.833 7.867,-4.3176 l 5.464,-3.1911 c 2.547,-1.5135 4.748,-2.8788 7.761,-3.1581 4.47,-0.333 11.059,4.6435 14.802,6.7601 l 7.909,4.4672 c 1.45,0.8435 3.024,1.6857 4.338,2.7285 3.219,2.556 2.276,6.939 -0.762,9.048 -2.22,1.542 -5.065,2.532 -7.49,3.761 -2.447,1.241 -4.875,2.847 -7.423,3.836 z"
     id="path2"
     style="fill:#050504;fill-opacity:1;stroke:#14c37a;stroke-opacity:1;stroke-width:4;stroke-dasharray:none" />
  <path
     fill="#F4F1DE"
     d="m 77.246441,59.369566 c -1.251,0.69 -2.54,1.509 -3.94,1.838 -2.245,-0.821 -4.438,-2.159 -6.571,-3.253 -3.654,-1.874 -8.871,-3.529 -9.57,-8.218 -0.648,-4.342 3.459,-6.1363 6.629,-7.7496 l 4.66,-2.5372 c 4.629,-2.6369 11.224,-7.6953 16.484,-8.4021 l 0.107,-0.0162 c 3.452,-0.3179 6.125,1.3138 9.007999,2.9698 l 6.21401,3.5783 c 2.276,1.295 4.8,2.3608 6.85,3.996 -1.088,0.9861 -2.404,1.7177 -3.659,2.467 z"
     id="path3"
     style="fill:#050504;fill-opacity:1;stroke:#14c37a;stroke-opacity:1;stroke-width:4;stroke-dasharray:none" />
  <path
     fill="#F4F1DE"
     d="m 119.98345,85.067566 c -0.925,-0.156 -2.167,-1.048 -3.033,-1.507 l -15.672,-9.058 c -3.98,-2.364 -7.98801,-4.587 -11.807009,-7.214 l 30.896009,-17.914 c 5.011,2.309 9.728,5.395 14.449,8.238 l 16.015,9.894 c -1.658,1.263 -3.55,2.336 -5.358,3.372 l -7.734,4.378 c -2.98,1.725 -15.088,9.682 -17.756,9.811 z"
     id="path4"
     style="fill:#050504;fill-opacity:1;stroke:#14c37a;stroke-opacity:1;stroke-width:4;stroke-dasharray:none" />
  <path
     fill="#F4F1DE"
     d="m 17.609441,127.97257 c -2.981,-3.227 -3.403,-6.732 -3.409,-10.987 -0.014,-9.69 0.874,-11.616 9.773,-17.049004 l 40.882,-25.179 0.251,0.018 c 0.23,1.485 0.094,3.136 0.094,4.639 l -0.021,24.397004 c -0.002,0.459 0.07,1.089 -0.088,1.518 -4.433,3.161 -9.412,5.653 -14.021,8.561 l -16.408,10.225 c -2.601,1.636 -8.622,6.391 -11.657,6.549 -2.045,0.106 -4.003,-1.361 -5.396,-2.692 z"
     id="path5"
     style="fill:#050504;fill-opacity:1;stroke:#14c37a;stroke-opacity:1;stroke-width:4;stroke-dasharray:none" />
  <path
     fill="#F4F1DE"
     d="m 223.02245,127.32257 -0.102,0.12 c -4.423,5.11 -8.333,2.189 -12.65,-0.532 l -33.713,-20.807 c -1.46,-0.918 -1.478,-0.64 -1.455,-2.498 l -0.085,-28.499004 c 0.918,-0.38 3.345,1.567 4.15,2.076 l 36.55,22.37 c 5.908,3.606004 7.531,4.386004 10.092,10.757004 0.56,1.394 0.519,10.142 -0.015,11.557 -0.78,2.065 -1.36,3.698 -2.772,5.456 z"
     id="path6"
     style="fill:#050504;fill-opacity:1;stroke:#14c37a;stroke-opacity:1;stroke-width:4;stroke-dasharray:none" />
  <path
     fill="#F4F1DE"
     d="m 92.67844,169.77557 -35.408999,-22.395 10.932,-5.529 c 8.448,-4.664 10.819,-6.998 10.817,-16.271 l 0.001,-43.422004 c 0,-1.864 -0.063,-3.752 0.096,-5.61 2.235,0.899 4.356,2.421 6.414,3.634 l 17.796009,10.488 c 1.018,0.589 2.127,1.127 3.019,1.897 l -0.322,85.531004 c -0.96,0.136 -4.713,-2.715 -5.61,-3.305 z"
     id="path7"
     style="fill:#050504;fill-opacity:1;stroke:#14c37a;stroke-opacity:1;stroke-width:4;stroke-dasharray:none" />
  <path
     fill="#F4F1DE"
     d="m 147.01145,170.12157 -12.02,7.626 c -0.322,0.164 -0.635,0.319 -0.928,0.533 l -0.26,-83.020004 c -0.003,-0.764 0.06,-1.614 -0.166,-2.347 l -0.033,-0.096 c 0.192,-0.321 0.88,-0.618 1.216,-0.817 l 26.075,-15.267 0.201,46.554004 c 0.025,11.1 1.747,13.499 11.556,18.738 l 6.395,3.343 c 1.454,0.705 4.864,1.272 2.176,3.134 -1.45,1.004 -3.056,1.85 -4.557,2.784 z"
     id="path8"
     style="fill:#050504;fill-opacity:1;stroke:#14c37a;stroke-opacity:1;stroke-width:4;stroke-dasharray:none" />
  <path
     fill="#F4F1DE"
     d="m 103.46445,222.85957 -72.839009,-45.836 c -5.684,-3.473 -12.764,-6.491 -15.411,-13.065 -0.222,-0.55 -0.341,-1.156 -0.573,-1.694 l -0.156,-0.349 c -0.417,-1.433 -0.288,-3.19 -0.29,-4.675 l -0.008,-6.031 c -0.011,-4.076 -1.265,-10.867 3.907,-12.347 2.648,-0.132 4.286,1.455 6.376,2.822 l 38.975,24.544 42.445009,27.156 c 0.308,1.148 0.172,2.575 0.177,3.766 l -0.085,26.967 c -0.696,-0.504 -1.739,-0.837 -2.518,-1.258 z"
     id="path9"
     style="fill:#050504;fill-opacity:1;stroke:#14c37a;stroke-opacity:1;stroke-width:4;stroke-dasharray:none" />
  <path
     fill="#F4F1DE"
     d="m 137.87545,222.26057 -3.791,2.149 -0.2,-30.684 79.606,-50.617 c 2.135,-1.347 4.384,-3.132 6.796,-3.894 l 0.102,-0.016 c 3.049,-0.425 5.364,2.143 5.671,5.025 l 0.019,0.203 c 0.235,2.329 0.074,4.804 0.074,7.149 l -0.006,5.435 c -0.021,10.961 -6.003,13.056 -14.118,18.109 l -19.466,12.011 z"
     id="path10"
     style="fill:#050504;fill-opacity:1;stroke:#14c37a;stroke-opacity:1;stroke-width:4;stroke-dasharray:none" />
  <path
     fill="#e07a5f"
     d="m 300.56625,203.98963 c -8.25208,0 -14.65692,-1.7269 -19.21469,-5.18264 -4.55776,-3.4538 -7.72433,-8.10731 -9.49949,-13.96054 -1.77516,-5.85325 -2.66264,-12.37707 -2.66264,-19.57345 v -41.16452 c 0,-7.86893 0.88748,-14.72805 2.66264,-20.5813 1.77516,-5.853234 4.94173,-10.388504 9.49949,-13.601984 4.55777,-3.21539 10.96261,-4.82213 19.21469,-4.82213 7.29252,0 13.07344,1.34315 17.34342,4.02944 4.26995,2.68821 7.34056,6.52576 9.21166,11.514574 1.87111,4.99076 2.80665,10.98742 2.80665,17.99192 v 9.21206 h -15.4006 v -8.20422 c 0,-4.31821 -0.21591,-8.13251 -0.64773,-11.44288 -0.43182,-3.31037 -1.60732,-5.87649 -3.52628,-7.70031 -1.91896,-1.823814 -5.1336,-2.734734 -9.6433,-2.734734 -4.60566,0 -7.96408,0.98459 -10.07512,2.949874 -2.11104,1.96724 -3.47822,4.75043 -4.10192,8.34959 -0.6237,3.59723 -0.93556,7.79527 -0.93556,12.59221 v 46.20179 c 0,5.85323 0.4797,10.48349 1.43929,13.89078 0.95957,3.40534 2.54286,5.82802 4.74965,7.26808 2.20696,1.43812 5.18147,2.15911 8.92366,2.15911 4.41395,0 7.58032,-0.98459 9.49948,-2.95183 1.91898,-1.96722 3.1185,-4.67676 3.5982,-8.13056 0.47969,-3.45574 0.71963,-7.48516 0.71963,-12.09023 v -8.63642 h 15.4006 v 8.63642 c 0,7.09948 -0.86364,13.35973 -2.59074,18.78269 -1.72728,5.42102 -4.70177,9.64233 -8.92366,12.66586 -4.22208,3.02158 -10.17125,4.53335 -17.84733,4.53335 z m 66.49625,-0.14351 c -6.14203,0 -10.98743,-1.24817 -14.53812,-3.74258 -3.55071,-2.4944 -6.06837,-6.04511 -7.55494,-10.65017 -1.4885,-4.607 -2.23082,-10.02802 -2.23082,-16.26502 v -24.18044 c 0,-6.237 0.74232,-11.65802 2.23082,-16.26308 1.48657,-4.60701 4.00423,-8.1577 7.55494,-10.65211 3.55069,-2.49441 8.39609,-3.7426 14.53812,-3.7426 6.14009,0 10.9622,1.24819 14.46446,3.7426 3.50223,2.49441 5.99666,6.0451 7.48516,10.65211 1.48657,4.60506 2.23083,10.02608 2.23083,16.26308 v 24.18044 c 0,6.237 -0.74426,11.65802 -2.23083,16.26502 -1.4885,4.60506 -3.98293,8.15577 -7.48516,10.65017 -3.50226,2.49441 -8.32437,3.74258 -14.46446,3.74258 z m 0,-11.37117 c 2.97313,0 5.06052,-0.86442 6.26023,-2.59131 1.19974,-1.7269 1.91879,-4.00617 2.15913,-6.83588 0.24032,-2.83164 0.36049,-5.78152 0.36049,-8.85157 v -26.05077 c 0,-3.16694 -0.12005,-6.14201 -0.36049,-8.92522 -0.24034,-2.78124 -0.95939,-5.06051 -2.15913,-6.83587 -1.19971,-1.77535 -3.2871,-2.66302 -6.26023,-2.66302 -2.97507,0 -5.08573,0.88767 -6.33392,2.66302 -1.24623,1.77536 -1.99047,4.05463 -2.23079,6.83587 -0.24035,2.78321 -0.36051,5.75828 -0.36051,8.92522 v 26.05077 c 0,3.07005 0.12005,6.01993 0.36051,8.85157 0.24032,2.82971 0.98456,5.10898 2.23079,6.83588 1.24819,1.72689 3.35885,2.59131 6.33392,2.59131 z m 57.57101,11.37117 c -7.00449,0 -12.23366,-2.56805 -15.68744,-7.70029 -3.45574,-5.13418 -5.18264,-13.84232 -5.18264,-26.12442 v -16.11966 c 0,-6.33389 0.52912,-12.21039 1.58347,-17.63141 1.05631,-5.42102 3.04678,-9.76251 5.97341,-13.02636 2.92662,-3.26191 7.22157,-4.89386 12.88099,-4.89386 2.7832,0 5.32607,0.6241 7.62859,1.87227 2.30253,1.24625 4.36667,2.78319 6.18854,4.60506 V 86.110816 h 15.4006 V 202.69484 h -15.4006 v -5.32605 c -1.82187,1.91879 -3.81236,3.47901 -5.97147,4.67678 -2.15911,1.19972 -4.63025,1.80055 -7.41345,1.80055 z m 3.88601,-12.09023 c 1.44004,0 2.97507,-0.26358 4.607,-0.7927 1.62998,-0.52718 3.26191,-1.31795 4.89191,-2.37424 v -54.54944 c -1.3412,-0.95939 -2.8297,-1.79861 -4.46165,-2.5196 -1.62998,-0.71907 -3.40534,-1.07955 -5.32412,-1.07955 -3.55069,0 -5.95013,1.70363 -7.19636,5.11091 -1.24819,3.40534 -1.87227,7.50843 -1.87227,12.30537 v 23.46138 c 0,3.83755 0.21708,7.31655 0.64735,10.43505 0.43221,3.11849 1.31988,5.56445 2.66302,7.33979 1.34315,1.77536 3.35884,2.66303 6.04512,2.66303 z m 63.4727,12.09023 c -6.52383,0 -11.5611,-1.27142 -15.11181,-3.8143 -3.55069,-2.54286 -6.01992,-6.28544 -7.41151,-11.22774 -1.39354,-4.94035 -2.0874,-11.01066 -2.0874,-18.20705 V 151.5993 c 0,-7.38825 0.71905,-13.53028 2.15911,-18.42412 1.43812,-4.89385 3.95773,-8.58797 7.55494,-11.08238 3.59915,-2.49441 8.56471,-3.74259 14.89667,-3.74259 7.00645,0 12.16388,1.44005 15.47424,4.31821 3.31039,2.8801 5.49275,7.0297 6.5471,12.45072 1.0563,5.42102 1.58348,11.92162 1.58348,19.50175 v 6.7661 H 482.7821 v 16.69529 c 0,3.35883 0.31205,6.09358 0.9342,8.20423 0.62408,2.11065 1.63193,3.66891 3.02351,4.67676 1.39161,1.00785 3.19023,1.51177 5.39778,1.51177 2.30253,0 4.05462,-0.55238 5.2524,-1.6552 1.19973,-1.1028 2.01568,-2.68629 2.44789,-4.75042 0.43027,-2.06218 0.64736,-4.48488 0.64736,-7.26809 v -5.03726 h 14.96837 v 3.16695 c 0,8.34764 -1.77534,14.91992 -5.32605,19.7188 -3.55071,4.79695 -9.59581,7.19638 -18.13534,7.19638 z m -9.21012,-50.80879 h 17.70314 v -7.48321 c 0,-3.4538 -0.19189,-6.35717 -0.57564,-8.70816 -0.38375,-2.35098 -1.17647,-4.12633 -2.37424,-5.32605 -1.19972,-1.19779 -3.09524,-1.7986 -5.68656,-1.7986 -2.4944,0 -4.38992,0.57562 -5.68461,1.72689 -1.2947,1.15126 -2.18431,3.09524 -2.66304,5.82997 -0.47871,2.73475 -0.71905,6.50058 -0.71905,11.29752 z m 77.28983,50.95222 c -8.25074,0 -14.65634,-1.7269 -19.21489,-5.18264 -4.55854,-3.4538 -7.72355,-8.10731 -9.49891,-13.96054 -1.77534,-5.85325 -2.66302,-12.37707 -2.66302,-19.57345 v -41.16444 c 0,-7.86893 0.88768,-14.72805 2.66302,-20.5813 1.77536,-5.853234 4.94037,-10.388504 9.49891,-13.601984 4.55855,-3.21539 10.96415,-4.82213 19.21489,-4.82213 7.29329,0 13.07287,1.34315 17.34458,4.02944 4.26974,2.68821 7.33978,6.52576 9.21011,11.514574 1.87227,4.99076 2.80645,10.98742 2.80645,17.99192 v 9.21206 h -15.4006 v -8.20422 c 0,-4.31821 -0.21513,-8.13251 -0.64732,-11.44288 -0.43223,-3.31037 -1.60676,-5.87649 -3.52552,-7.70031 -1.91879,-1.823814 -5.13419,-2.734734 -9.64427,-2.734734 -4.60506,0 -7.9639,0.98459 -10.07455,2.949874 -2.11065,1.96724 -3.47899,4.75043 -4.10113,8.34959 -0.62409,3.59723 -0.93614,7.79527 -0.93614,12.59221 v 46.20179 c 0,5.85323 0.47872,10.48349 1.43812,13.89078 0.96133,3.40534 2.5448,5.82802 4.75042,7.26808 2.20757,1.43812 5.1807,2.15911 8.92328,2.15911 4.41511,0 7.58207,-0.98459 9.50085,-2.95183 1.91683,-1.96722 3.11849,-4.67676 3.59721,-8.13056 0.47873,-3.45574 0.71905,-7.48516 0.71905,-12.09023 v -8.63642 h 15.4006 v 8.63642 c 0,7.09948 -0.86247,13.35973 -2.58937,18.78269 -1.72884,5.42102 -4.70197,9.64233 -8.92522,12.66586 -4.2213,3.02158 -10.17145,4.53335 -17.84655,4.53335 z m 44.04268,-1.29471 V 86.110816 h 15.4006 v 42.027004 c 2.78126,-2.68627 5.90169,-4.98881 9.35549,-6.90758 3.45379,-1.91878 7.29328,-2.88012 11.51459,-2.88012 3.26193,0 5.78152,0.86442 7.55688,2.59132 1.7734,1.7269 3.02159,3.88601 3.74064,6.47733 0.72099,2.59132 1.07955,5.22915 1.07955,7.91543 v 67.36064 h -15.4006 v -62.899 c 0,-2.97313 -0.43027,-5.27759 -1.29469,-6.90759 -0.8644,-1.63193 -2.63782,-2.44789 -5.32605,-2.44789 -1.82381,0 -3.71739,0.5291 -5.68461,1.58347 -1.96724,1.05629 -3.8143,2.35099 -5.5412,3.886 v 66.78501 z m 64.04835,0 v -83.1915 h 15.40059 v 11.80144 c 3.07004,-5.08573 6.14203,-8.49107 9.21207,-10.21991 3.07004,-1.7269 6.14201,-2.58938 9.21206,-2.58938 0.38375,0 0.74425,0 1.07955,0 0.3353,0 0.79077,0.0466 1.36641,0.14351 v 16.98407 c -1.15127,-0.48066 -2.47115,-0.88768 -3.95773,-1.22298 -1.48657,-0.33724 -2.99833,-0.50391 -4.53335,-0.50391 -2.39943,0 -4.58181,0.55043 -6.54903,1.65517 -1.96722,1.10282 -3.9112,3.23867 -5.82998,6.40368 v 60.73989 z m 68.22313,1.15128 c -6.14203,0 -10.98547,-1.24817 -14.53618,-3.74258 -3.5507,-2.4944 -6.07031,-6.04511 -7.55688,-10.65017 -1.48656,-4.607 -2.23082,-10.02802 -2.23082,-16.26502 v -24.18044 c 0,-6.237 0.74426,-11.65802 2.23082,-16.26308 1.48657,-4.60701 4.00618,-8.1577 7.55688,-10.65211 3.55071,-2.49441 8.39415,-3.7426 14.53618,-3.7426 6.14203,0 10.96416,1.24819 14.46447,3.7426 3.50224,2.49441 5.99861,6.0451 7.48516,10.65211 1.48658,4.60506 2.23082,10.02608 2.23082,16.26308 v 24.18044 c 0,6.237 -0.74424,11.65802 -2.23082,16.26502 -1.48655,4.60506 -3.98292,8.15577 -7.48516,10.65017 -3.50031,2.49441 -8.32244,3.74258 -14.46447,3.74258 z m 0,-11.37117 c 2.97507,0 5.06246,-0.86442 6.26025,-2.59131 1.19972,-1.7269 1.91877,-4.00617 2.15909,-6.83588 0.24034,-2.83164 0.36051,-5.78152 0.36051,-8.85157 v -26.05077 c 0,-3.16694 -0.12005,-6.14201 -0.36051,-8.92522 -0.24032,-2.78124 -0.95937,-5.06051 -2.15909,-6.83587 -1.19779,-1.77535 -3.28518,-2.66302 -6.26025,-2.66302 -2.97507,0 -5.08573,0.88767 -6.33196,2.66302 -1.24817,1.77536 -1.99049,4.05463 -2.23081,6.83587 -0.24033,2.78321 -0.36051,5.75828 -0.36051,8.92522 v 26.05077 c 0,3.07005 0.12005,6.01993 0.36051,8.85157 0.24032,2.82971 0.98264,5.10898 2.23081,6.83588 1.24623,1.72689 3.35689,2.59131 6.33196,2.59131 z m 38.28636,10.21989 v -83.1915 h 15.40058 v 8.20227 c 2.78128,-2.58936 5.85325,-4.79693 9.21014,-6.62074 3.35882,-1.82187 7.05294,-2.73475 11.08238,-2.73475 3.35883,0 5.92688,0.86442 7.70029,2.59132 1.77536,1.7269 3.02353,3.88601 3.7426,6.47733 0.71905,2.59132 1.07955,5.22915 1.07955,7.91543 v 67.36064 h -15.4006 v -62.899 c 0,-2.97313 -0.43221,-5.27759 -1.2947,-6.90759 -0.86441,-1.63193 -2.63782,-2.44789 -5.32605,-2.44789 -1.72689,0 -3.52551,0.50391 -5.39778,1.51176 -1.87031,1.00785 -3.66893,2.23082 -5.39583,3.67087 v 67.07185 z m 64.19177,0 v -83.1915 h 15.4006 v 83.1915 z m 0,-95.57051 V 91.004676 h 15.4006 v 16.119654 z m 54.69285,96.72179 c -6.81068,0 -11.97006,-1.36834 -15.47231,-4.10307 -3.50031,-2.73476 -5.85323,-6.59556 -7.05295,-11.58631 -1.19779,-4.98881 -1.7986,-10.7936 -1.7986,-17.41434 v -19.14318 c 0,-7.00449 0.62408,-12.9779 1.87225,-17.9202 1.24623,-4.94036 3.62242,-8.73139 7.12467,-11.36924 3.50031,-2.63976 8.61123,-3.95966 15.32694,-3.95966 6.04511,0 10.72382,0.9846 14.03419,2.95183 3.31038,1.96722 5.58771,4.89385 6.83589,8.77984 1.24817,3.88601 1.87225,8.70814 1.87225,14.46446 v 4.89386 h -13.96247 v -5.03727 c 0,-3.64761 -0.24034,-6.52578 -0.71907,-8.63643 -0.47872,-2.11066 -1.34314,-3.64567 -2.59131,-4.60506 -1.24818,-0.95939 -3.02159,-1.44004 -5.32411,-1.44004 -2.49441,0 -4.41512,0.57562 -5.75826,1.72689 -1.34315,1.15126 -2.23083,3.09524 -2.66304,5.82997 -0.43027,2.73475 -0.64735,6.45214 -0.64735,11.15411 v 26.19612 c 0,7.09948 0.67254,11.8499 2.01568,14.2474 1.34315,2.39942 3.7426,3.59915 7.19638,3.59915 2.59132,0 4.48684,-0.59888 5.68461,-1.79862 1.19972,-1.19971 1.96724,-2.90335 2.30254,-5.11091 0.33531,-2.20563 0.50393,-4.70003 0.50393,-7.48322 v -6.76418 h 13.96247 v 5.75633 c 0,5.56639 -0.64929,10.36334 -1.94396,14.39276 -1.29469,4.02943 -3.59723,7.10142 -6.90759,9.21207 -3.31039,2.11065 -7.94064,3.16694 -13.89078,3.16694 z m 37.85415,-1.15128 V 86.110816 H 946.8118 V 202.69484 Z m 54.54944,1.15128 c -6.52384,0 -11.56111,-1.27142 -15.11182,-3.8143 -3.55071,-2.54286 -6.02187,-6.28544 -7.41345,-11.22774 -1.39159,-4.94035 -2.08739,-11.01066 -2.08739,-18.20705 V 151.5993 c 0,-7.38825 0.72099,-13.53028 2.15909,-18.42412 1.44006,-4.89385 3.95966,-8.58797 7.55688,-11.08238 3.59917,-2.49441 8.56472,-3.74259 14.89669,-3.74259 7.00449,0 12.16192,1.44005 15.47234,4.31821 3.3103,2.8801 5.4946,7.0297 6.549,12.45072 1.0543,5.42102 1.5835,11.92162 1.5835,19.50175 v 6.7661 h -32.8169 v 16.69529 c 0,3.35883 0.31397,6.09358 0.93613,8.20423 0.62408,2.11065 1.62998,3.66891 3.02353,4.67676 1.39158,1.00785 3.19019,1.51177 5.39581,1.51177 2.30448,0 4.05463,-0.55238 5.25434,-1.6552 1.19972,-1.1028 2.0157,-2.68629 2.44597,-4.75042 0.43221,-2.06218 0.64927,-4.48488 0.64927,-7.26809 v -5.03726 h 14.96845 v 3.16695 c 0,8.34764 -1.7754,14.91992 -5.3261,19.7188 -3.5507,4.79695 -9.59584,7.19638 -18.13534,7.19638 z m -9.21206,-50.80879 h 17.70505 v -7.48321 c 0,-3.4538 -0.19187,-6.35717 -0.57757,-8.70816 -0.38375,-2.35098 -1.17452,-4.12633 -2.37424,-5.32605 -1.19777,-1.19779 -3.09329,-1.7986 -5.68461,-1.7986 -2.49442,0 -4.38994,0.57562 -5.68461,1.72689 -1.29663,1.15126 -2.1843,3.09524 -2.66303,5.82997 -0.48066,2.73475 -0.72099,6.50058 -0.72099,11.29752 z"
     id="path11"
     style="fill:#050504;fill-opacity:1;stroke-width:4;stroke:#14c37a;stroke-opacity:1;stroke-dasharray:none" />
</svg>
