<?xml version="1.0" encoding="UTF-8" standalone="no"?>
<svg
   width="256"
   height="256"
   version="1.1"
   id="svg11"
   sodipodi:docname="logo_min.svg"
   inkscape:version="1.4.3 (0d15f75, 2025-12-25)"
   xmlns:inkscape="http://www.inkscape.org/namespaces/inkscape"
   xmlns:sodipodi="http://sodipodi.sourceforge.net/DTD/sodipodi-0.dtd"
   xmlns="http://www.w3.org/2000/svg"
   xmlns:svg="http://www.w3.org/2000/svg">
  <defs
     id="defs11" />
  <sodipodi:namedview
     id="namedview11"
     pagecolor="#ffffff"
     bordercolor="#000000"
     borderopacity="0.25"
     inkscape:showpageshadow="2"
     inkscape:pageopacity="0.0"
     inkscape:pagecheckerboard="0"
     inkscape:deskcolor="#d1d1d1"
     inkscape:zoom="2.2456164"
     inkscape:cx="388.53474"
     inkscape:cy="105.31629"
     inkscape:window-width="2560"
     inkscape:window-height="1494"
     inkscape:window-x="-11"
     inkscape:window-y="-11"
     inkscape:window-maximized="1"
     inkscape:current-layer="svg11" />
  <path
     id="path2"
     style="fill:#050504;fill-opacity:1;stroke:#00a6c7;stroke-width:2.707;stroke-dasharray:none;stroke-opacity:1"
     d="m 162.1621,30.701172 c -0.29472,-0.01867 -0.58391,-0.01886 -0.86328,0.002 -3.013,0.2793 -5.21277,1.644703 -7.75977,3.158203 l -5.46484,3.191406 c -2.582,1.4846 -5.34419,2.76146 -7.86719,4.31836 1.41,1.1935 3.06605,2.12714 4.62305,3.11914 l 25.82031,15.603516 2.02344,1.210938 c 2.548,-0.989001 4.97487,-2.594938 7.42187,-3.835938 2.425,-1.229 5.27024,-2.219719 7.49024,-3.761719 3.038,-2.109 3.98072,-6.490875 0.76172,-9.046875 -1.314,-1.0428 -2.88789,-1.885015 -4.33789,-2.728515 l -7.90821,-4.46875 c -3.50906,-1.984313 -9.51869,-6.481617 -13.93945,-6.761719 z M 93.42968,31 c -0.409088,-0.01743 -0.828266,-0.0085 -1.259766,0.03125 l -0.107422,0.01563 c -5.26,0.7068 -11.853422,5.765444 -16.482422,8.402344 l -4.660156,2.537109 c -3.17,1.6133 -7.276906,3.408 -6.628906,7.75 0.699,4.689 5.916312,6.34475 9.570312,8.21875 2.133,1.094 4.325313,2.430953 6.570313,3.251953 1.4,-0.329 2.688453,-1.14789 3.939453,-1.83789 L 110.58397,44.042969 c 1.255,-0.7493 2.57021,-1.480697 3.65821,-2.466797 -2.05,-1.6352 -4.57361,-2.701094 -6.84961,-3.996094 l -6.21484,-3.578125 C 98.655102,32.552953 96.293295,31.12199 93.42968,31 Z m 34.0625,18.375 -30.896485,17.914062 c 3.818995,2.627 7.828595,4.848891 11.808595,7.212891 l 15.67187,9.058594 c 0.866,0.459 2.10821,1.351812 3.03321,1.507812 2.66799,-0.129 14.77585,-8.0875 17.75585,-9.8125 l 7.73243,-4.376953 c 1.808,-1.036 3.70137,-2.110047 5.35937,-3.373047 L 141.9414,57.613281 C 137.2204,54.770281 132.50318,51.684 127.49218,49.375 Z M 71.980461,74.757812 31.097648,99.9375 c -8.899,5.433 -9.785484,7.35883 -9.771484,17.04883 0.006,4.255 0.427203,7.75933 3.408203,10.98633 1.393,1.331 3.351484,2.7974 5.396484,2.6914 3.035,-0.158 9.05525,-4.91283 11.65625,-6.54883 l 16.408203,-10.22461 c 4.609001,-2.90799 9.588485,-5.39954 14.021485,-8.56054 0.158,-0.429 0.08589,-1.05858 0.08789,-1.51758 l 0.02148,-24.398438 c 0,-1.503 0.134297,-3.153671 -0.0957,-4.638671 z m 110.457029,0.300782 c -0.11001,-0.0022 -0.20886,0.0132 -0.29492,0.04883 l 0.084,28.498046 c -0.023,1.858 -0.005,1.58005 1.45508,2.49805 l 33.71289,20.80664 c 4.317,2.721 8.22739,5.6432 12.65039,0.5332 l 0.10156,-0.12109 c 1.412,-1.758 1.99344,-3.39008 2.77344,-5.45508 0.534,-1.415 0.57367,-10.1646 0.0137,-11.5586 -2.561,-6.371 -4.18379,-7.14985 -10.09179,-10.755854 L 186.29296,77.181641 c -0.72953,-0.461282 -2.79206,-2.102003 -3.85547,-2.123047 z m -96.197264,1.490234 c -0.159,1.858 -0.0957,3.745375 -0.0957,5.609375 l -0.002,43.421877 c 0.002,9.273 -2.368406,11.60748 -10.816406,16.27148 l -10.931641,5.5293 35.408203,22.39453 7.734378,5.01758 c 0.897,0.59 4.64937,3.44069 5.60937,3.30469 l 0.32227,-85.529301 c -0.892,-0.77 -1.99958,-1.309437 -3.01758,-1.898437 L 92.654289,80.181641 c -2.058,-1.213 -4.179063,-2.733813 -6.414063,-3.632813 z M 168.01952,76.734375 141.9453,92 c -0.336,0.199 -1.02479,0.497359 -1.21679,0.818359 l 0.0332,0.0957 c 0.226,0.733001 0.16301,1.581704 0.16601,2.345704 l 0.25977,83.021487 c 0.293,-0.214 0.60769,-0.3692 0.92969,-0.5332 l 12.01953,-7.62696 29.6543,-18.83398 c 1.501,-0.934 3.10664,-1.78116 4.55664,-2.78516 2.688,-1.862 -0.72178,-2.42781 -2.17578,-3.13281 l -6.39454,-3.34375 c -9.809,-5.239 -11.53164,-7.63828 -11.55664,-18.73828 z m 139.67188,8.369141 c -8.25208,0 -14.65708,1.606875 -19.21485,4.822265 -4.55776,3.21348 -7.72484,7.748329 -9.5,13.601559 -1.77516,5.85325 -2.66211,12.7131 -2.66211,20.58204 v 41.16406 c 0,7.19638 0.88695,13.71901 2.66211,19.57226 1.77516,5.85323 4.94224,10.50714 9.5,13.96094 4.55777,3.45574 10.96277,5.18359 19.21485,5.18359 7.67608,0 13.62557,-1.51162 17.84765,-4.5332 4.22189,-3.02353 7.19655,-7.24499 8.92383,-12.66601 1.7271,-5.42296 2.58984,-11.68373 2.58984,-18.78321 v -8.63672 h -15.40039 v 8.63672 c 0,4.60507 -0.23906,8.63411 -0.71875,12.08985 -0.4797,3.4538 -1.68063,6.16364 -3.59961,8.13086 -1.91916,1.96724 -5.08409,2.95117 -9.49804,2.95117 -3.74219,0 -6.71687,-0.72009 -8.92383,-2.15821 -2.20679,-1.44006 -3.79043,-3.86223 -4.75,-7.26757 -0.95959,-3.40729 -1.43945,-8.0374 -1.43945,-13.89063 v -46.20312 c 0,-4.79694 0.31184,-8.99457 0.93554,-12.5918 0.6237,-3.59916 1.99053,-6.38237 4.10157,-8.34961 2.11104,-1.965284 5.47051,-2.949219 10.07617,-2.949219 4.5097,0 7.72362,0.910561 9.64258,2.734379 1.91896,1.82382 3.09357,4.38884 3.52539,7.69921 0.43182,3.31037 0.64843,7.12515 0.64843,11.44336 v 8.20508 h 15.40039 v -9.21289 c 0,-7.0045 -0.93553,-13.00143 -2.80664,-17.99219 -1.8711,-4.98881 -4.94098,-8.825458 -9.21093,-11.513668 -4.26998,-2.686289 -10.05123,-4.029296 -17.34375,-4.029296 z m 259.50586,0 c -8.25074,0 -14.6563,1.606875 -19.21485,4.822265 -4.55854,3.21348 -7.72464,7.748329 -9.5,13.601559 -1.77534,5.85325 -2.66211,12.7131 -2.66211,20.58204 v 41.16406 c 0,7.19638 0.88677,13.71901 2.66211,19.57226 1.77536,5.85323 4.94146,10.50714 9.5,13.96094 4.55855,3.45574 10.96411,5.18359 19.21485,5.18359 7.6751,0 13.6244,-1.51162 17.8457,-4.5332 4.22325,-3.02353 7.19694,-7.24499 8.92578,-12.66601 1.7269,-5.42296 2.58984,-11.68373 2.58984,-18.78321 v -8.63672 h -15.40039 v 8.63672 c 0,4.60507 -0.24197,8.63411 -0.7207,12.08985 -0.47872,3.4538 -1.67887,6.16364 -3.5957,8.13086 -1.91878,1.96724 -5.08685,2.95117 -9.50196,2.95117 -3.74258,0 -6.7143,-0.72009 -8.92187,-2.15821 -2.20562,-1.44006 -3.79062,-3.86223 -4.75195,-7.26757 -0.9594,-3.40729 -1.4375,-8.0374 -1.4375,-13.89063 v -46.20312 c 0,-4.79694 0.31145,-8.99457 0.93554,-12.5918 0.62214,-3.59916 1.99092,-6.38237 4.10156,-8.34961 2.11066,-1.965284 5.46916,-2.949219 10.07422,-2.949219 4.51008,0 7.72575,0.910561 9.64454,2.734379 1.91876,1.82382 3.09316,4.38884 3.52539,7.69921 0.43219,3.31037 0.64843,7.12515 0.64843,11.44336 v 8.20508 h 15.40039 v -9.21289 c 0,-7.0045 -0.93437,-13.00143 -2.80664,-17.99219 -1.87033,-4.98881 -4.94119,-8.825458 -9.21093,-11.513668 -4.27171,-2.686289 -10.05046,-4.029296 -17.34375,-4.029296 z m -122.05469,1.007812 v 38.716792 c -1.82187,-1.82187 -3.88497,-3.35921 -6.1875,-4.60546 -2.30252,-1.24817 -4.84571,-1.87305 -7.62891,-1.87305 -5.65942,0 -9.95424,1.63262 -12.88086,4.89453 -2.92663,3.26385 -4.91634,7.60437 -5.97265,13.02539 -1.05435,5.42102 -1.58399,11.29892 -1.58399,17.63281 v 16.11914 c 0,12.2821 1.7259,20.99082 5.18164,26.125 3.45378,5.13224 8.68301,7.69922 15.6875,7.69922 2.7832,0 5.25496,-0.60106 7.41407,-1.80078 2.1591,-1.19777 4.14883,-2.75699 5.9707,-4.67578 v 5.32617 h 15.40234 V 86.111328 Z m 166.09765,0 V 202.69531 h 15.40039 v -66.78515 c 1.7269,-1.53501 3.57378,-2.83043 5.54102,-3.88672 1.96722,-1.05437 3.85978,-1.58399 5.68359,-1.58399 2.68823,0 4.46178,0.81729 5.32618,2.44922 0.86442,1.63 1.29492,3.93312 1.29492,6.90625 v 62.90039 h 15.40039 v -67.36133 c 0,-2.68628 -0.35714,-5.32469 -1.07813,-7.91601 -0.71905,-2.59132 -1.96878,-4.74966 -3.74218,-6.47656 -1.77536,-1.7269 -4.29471,-2.5918 -7.55664,-2.5918 -4.22131,0 -8.05989,0.96208 -11.51368,2.88086 -3.4538,1.91877 -6.57421,4.22193 -9.35547,6.9082 V 86.111328 Z m 327.29688,0 V 202.69531 h 15.40039 V 86.111328 Z m -92.54883,4.892578 V 107.125 h 15.40234 V 91.003906 Z M 374.18749,118.34961 c -6.14203,0 -10.98837,1.24778 -14.53906,3.74219 -3.55071,2.49441 -6.06812,6.04533 -7.55469,10.65234 -1.4885,4.60506 -2.23047,10.02667 -2.23047,16.26367 v 24.17969 c 0,6.237 0.74197,11.65863 2.23047,16.26562 1.48657,4.60506 4.00398,8.156 7.55469,10.6504 3.55069,2.49441 8.39703,3.74218 14.53906,3.74218 6.14009,0 10.96258,-1.24777 14.46484,-3.74218 3.50223,-2.4944 5.99588,-6.04533 7.48438,-10.6504 1.48657,-4.607 2.23047,-10.02862 2.23047,-16.26562 v -24.17969 c 0,-6.237 -0.7439,-11.65861 -2.23047,-16.26367 -1.4885,-4.60701 -3.98215,-8.15793 -7.48438,-10.65234 -3.50226,-2.49441 -8.32475,-3.74219 -14.46484,-3.74219 z m 124.92969,0 c -6.33196,0 -11.29734,1.24973 -14.89649,3.74414 -3.59721,2.49441 -6.11656,6.18818 -7.55468,11.08203 -1.44006,4.89384 -2.16016,11.03558 -2.16016,18.42383 v 18.99805 c 0,7.19639 0.69435,13.26668 2.08789,18.20703 1.39159,4.9423 3.86142,8.6837 7.41211,11.22656 3.55071,2.54288 8.5875,3.81445 15.11133,3.81445 8.53953,0 14.58405,-2.39836 18.13476,-7.19531 3.55071,-4.79888 5.32617,-11.37111 5.32617,-19.71875 v -3.16797 h -14.96874 v 5.03711 c -1e-5,2.78321 -0.21622,5.20735 -0.64649,7.26953 -0.43221,2.06413 -1.24754,3.6472 -2.44727,4.75 -1.19778,1.10282 -2.95137,1.6543 -5.2539,1.6543 -2.20755,0 -4.00488,-0.50387 -5.39649,-1.51172 -1.39158,-1.00785 -2.39935,-2.56513 -3.02343,-4.67578 -0.62215,-2.11065 -0.93555,-4.84625 -0.93555,-8.20508 v -16.69531 h 32.81641 v -6.76563 c 0,-7.58013 -0.52769,-14.08093 -1.58399,-19.50195 -1.05435,-5.42102 -3.23648,-9.57107 -6.54687,-12.45117 -3.31036,-2.87816 -8.46816,-4.31836 -15.47461,-4.31836 z m 244.39453,0 c -6.14203,0 -10.9864,1.24778 -14.53711,3.74219 -3.5507,2.49441 -6.07007,6.04533 -7.55664,10.65234 -1.48656,4.60506 -2.23047,10.02667 -2.23047,16.26367 v 24.17969 c 0,6.237 0.74391,11.65863 2.23047,16.26562 1.48657,4.60506 4.00594,8.156 7.55664,10.6504 3.55071,2.49441 8.39508,3.74218 14.53711,3.74218 6.14203,0 10.96258,-1.24777 14.46289,-3.74218 3.50224,-2.4944 5.99978,-6.04533 7.48633,-10.6504 1.48658,-4.607 2.23047,-10.02862 2.23047,-16.26562 v -24.17969 c 0,-6.237 -0.74389,-11.65861 -2.23047,-16.26367 -1.48655,-4.60701 -3.98409,-8.15793 -7.48633,-10.65234 -3.50031,-2.49441 -8.32086,-3.74219 -14.46289,-3.74219 z m 73.97851,0 c -4.02944,0 -7.72321,0.9125 -11.08203,2.73437 -3.35689,1.82381 -6.42965,4.03174 -9.21093,6.6211 v -8.20117 h -15.40039 v 83.1914 h 15.40039 v -67.07226 c 1.7269,-1.44005 3.52617,-2.66403 5.39648,-3.67188 1.87227,-1.00785 3.67155,-1.51172 5.39844,-1.51172 2.68823,0 4.46176,0.81729 5.32617,2.44922 0.86249,1.63 1.29492,3.93312 1.29492,6.90625 v 62.90039 h 15.40039 v -67.36133 c 0,-2.68628 -0.36103,-5.32469 -1.08008,-7.91601 -0.71907,-2.59132 -1.96682,-4.74966 -3.74218,-6.47656 -1.77341,-1.7269 -4.34235,-2.5918 -7.70118,-2.5918 z m 83.19141,0 c -6.71571,0 -11.82586,1.32118 -15.32617,3.96094 -3.50225,2.63785 -5.87877,6.42878 -7.125,11.36914 -1.24817,4.9423 -1.87305,10.91543 -1.87305,17.91992 v 19.14258 c 0,6.62074 0.60104,12.42525 1.79883,17.41406 1.19972,4.99075 3.55242,8.85118 7.05273,11.58594 3.50225,2.73473 8.66198,4.10351 15.47266,4.10351 5.95014,0 10.58024,-1.05536 13.89063,-3.16601 3.31036,-2.11065 5.61351,-5.18346 6.9082,-9.21289 1.29467,-4.02942 1.94336,-8.82619 1.94336,-14.39258 v -5.75586 h -13.96094 v 6.76367 c 0,2.78319 -0.17055,5.27679 -0.50586,7.48242 -0.3353,2.20756 -1.10106,3.91162 -2.30078,5.11133 -1.19777,1.19974 -3.09423,1.79883 -5.68555,1.79883 -3.45378,0 -5.85216,-1.20019 -7.19531,-3.59961 -1.34314,-2.3975 -2.01562,-7.14661 -2.01562,-14.24609 v -26.19727 c 0,-4.70197 0.21621,-8.41955 0.64648,-11.1543 0.43221,-2.73473 1.31896,-4.67881 2.66211,-5.83007 1.34314,-1.15127 3.26535,-1.72657 5.75976,-1.72657 2.30253,0 4.07604,0.48202 5.32422,1.44141 1.24817,0.95939 2.11113,2.49286 2.58985,4.60351 0.47873,2.11065 0.7207,4.98911 0.7207,8.63672 v 5.03711 h 13.96094 v -4.89257 c 0,-5.75632 -0.62293,-10.57884 -1.8711,-14.46485 -1.24818,-3.88599 -3.52555,-6.81208 -6.83593,-8.7793 -3.31037,-1.96723 -7.99005,-2.95312 -14.03516,-2.95312 z m 92.4043,0 c -6.33197,0 -11.29732,1.24973 -14.89649,3.74414 -3.59722,2.49441 -6.11658,6.18818 -7.55664,11.08203 -1.4381,4.89384 -2.16015,11.03558 -2.16015,18.42383 v 18.99805 c 0,7.19639 0.6963,13.26668 2.08789,18.20703 1.39158,4.9423 3.86335,8.6837 7.41406,11.22656 3.55071,2.54288 8.58749,3.81445 15.11133,3.81445 8.53947,0 14.58407,-2.39836 18.13477,-7.19531 3.5507,-4.79888 5.3262,-11.37111 5.3262,-19.71875 v -3.16797 h -14.9688 v 5.03711 c 0,2.78321 -0.2162,5.20735 -0.6484,7.26953 -0.4303,2.06413 -1.24562,3.6472 -2.44533,4.75 -1.19972,1.10282 -2.95138,1.6543 -5.25586,1.6543 -2.20562,0 -4.00296,-0.50387 -5.39454,-1.51172 -1.39355,-1.00785 -2.39935,-2.56513 -3.02343,-4.67578 -0.62216,-2.11065 -0.9375,-4.84625 -0.9375,-8.20508 v -16.69531 h 32.81836 v -6.76563 c 0,-7.58013 -0.5297,-14.08093 -1.584,-19.50195 -1.0544,-5.42102 -3.2385,-9.57107 -6.5488,-12.45117 -3.3104,-2.87816 -8.4682,-4.31836 -15.47267,-4.31836 z m -283.97266,0.14648 c -3.07005,0 -6.14285,0.86099 -9.21289,2.58789 -3.07004,1.72884 -6.1409,5.13498 -9.21094,10.22071 V 119.50391 H 675.2871 v 83.1914 h 15.40234 v -60.74023 c 1.91878,-3.16501 3.86091,-5.30148 5.82813,-6.4043 1.96722,-1.10474 4.15135,-1.6543 6.55078,-1.6543 1.53502,0 3.04663,0.16667 4.5332,0.50391 1.48658,0.3353 2.80576,0.742 3.95703,1.22266 v -16.98438 c -0.57564,-0.0969 -1.03188,-0.14258 -1.36718,-0.14258 z m 136.875,1.00782 v 83.1914 h 15.40234 v -83.1914 z M 374.18749,129.7207 c 2.97313,0 5.06006,0.88872 6.25977,2.66407 1.19974,1.77536 1.91981,4.05469 2.16015,6.83593 0.24044,2.78321 0.35938,5.75689 0.35938,8.92383 v 26.05078 c 0,3.07005 -0.11906,6.01993 -0.35938,8.85157 -0.24034,2.8297 -0.96041,5.10903 -2.16015,6.83593 -1.19971,1.72689 -3.28664,2.5918 -6.25977,2.5918 -2.97507,0 -5.08579,-0.86491 -6.33398,-2.5918 -1.24623,-1.7269 -1.99015,-4.00622 -2.23047,-6.83593 -0.24046,-2.83164 -0.36133,-5.78152 -0.36133,-8.85157 v -26.05078 c 0,-3.16694 0.12098,-6.14062 0.36133,-8.92383 0.24032,-2.78124 0.98424,-5.06057 2.23047,-6.83593 1.24819,-1.77535 3.35891,-2.66407 6.33398,-2.66407 z m 124.78711,0 c 2.59132,0 4.48583,0.60104 5.68555,1.79883 1.19777,1.19972 1.99125,2.97519 2.375,5.32617 0.38375,2.35099 0.57422,5.25519 0.57422,8.70899 v 7.48242 h -17.70313 v -4.46094 c 0,-4.79694 0.24199,-8.56408 0.7207,-11.29883 0.47873,-2.73473 1.36741,-4.67881 2.66211,-5.83007 1.29469,-1.15127 3.19115,-1.72657 5.68555,-1.72657 z m 244.53711,0 c 2.97507,0 5.06197,0.88872 6.25976,2.66407 1.19972,1.77536 1.91789,4.05469 2.15821,6.83593 0.24046,2.78321 0.36133,5.75689 0.36133,8.92383 v 26.05078 c 0,3.07005 -0.12099,6.01993 -0.36133,8.85157 -0.24032,2.8297 -0.95849,5.10903 -2.15821,6.83593 -1.19779,1.72689 -3.28469,2.5918 -6.25976,2.5918 -2.97507,0 -5.0858,-0.86491 -6.33203,-2.5918 -1.24817,-1.7269 -1.99015,-4.00622 -2.23047,-6.83593 -0.24046,-2.83164 -0.36133,-5.78152 -0.36133,-8.85157 v -26.05078 c 0,-3.16694 0.121,-6.14062 0.36133,-8.92383 0.24032,-2.78124 0.9823,-5.06057 2.23047,-6.83593 1.24623,-1.77535 3.35696,-2.66407 6.33203,-2.66407 z m 249.42969,0 c 2.59132,0 4.48777,0.60104 5.68554,1.79883 1.19972,1.19972 1.99126,2.97519 2.37496,5.32617 0.3857,2.35099 0.5762,5.25519 0.5762,8.70899 v 7.48242 h -17.70506 v -4.46094 c 0,-4.79694 0.24004,-8.56408 0.7207,-11.29883 0.47873,-2.73473 1.36743,-4.67881 2.66406,-5.83007 1.29467,-1.15127 3.18918,-1.72657 5.6836,-1.72657 z m -557.58399,0.71875 c 1.91878,0 3.69424,0.36101 5.32422,1.08008 1.63195,0.72099 3.11974,1.56014 4.46094,2.51953 v 54.55078 c -1.63,1.05629 -3.26065,1.84587 -4.89063,2.37305 -1.63193,0.52912 -3.16738,0.79297 -4.60742,0.79297 -2.68628,0 -4.70177,-0.88675 -6.04492,-2.66211 -1.34314,-1.77534 -2.23185,-4.22135 -2.66406,-7.33984 -0.43027,-3.1185 -0.64649,-6.598 -0.64649,-10.43555 v -23.46094 c 0,-4.79694 0.62486,-8.9013 1.87305,-12.30664 1.24623,-3.40728 3.64462,-5.11133 7.19531,-5.11133 z m -409.65234,8.41797 c -0.157966,-0.005 -0.320828,-0.002 -0.486328,0.006 -5.172,1.48 -3.91725,8.2697 -3.90625,12.3457 l 0.0078,6.03125 c 0.002,1.485 -0.125984,3.24279 0.291016,4.67579 l 0.154297,0.34765 c 0.232,0.538 0.352219,1.14531 0.574219,1.69531 2.647,6.574 9.726156,9.59146 15.410156,13.06446 l 72.83984,45.83594 c 0.779,0.421 1.82158,0.75381 2.51758,1.25781 l 0.0859,-26.9668 c -0.005,-1.191 0.13027,-2.61762 -0.17774,-3.76562 L 70.570304,166.22852 31.595695,141.68359 c -1.959375,-1.28156 -3.52113,-2.75557 -5.890625,-2.82617 z m 202.37109,0.29492 c -0.18452,0.004 -0.37194,0.0203 -0.5625,0.0469 l -0.10156,0.0156 c -2.412,0.762 -4.66188,2.54753 -6.79688,3.89454 l -79.60546,50.61523 0.19921,30.68555 3.79102,-2.15039 54.6875,-35.12891 19.4668,-12.01172 c 8.115,-5.053 14.09618,-7.14837 14.11718,-18.10937 l 0.006,-5.4336 c 0,-2.345 0.16079,-4.82139 -0.0742,-7.15039 l -0.0195,-0.20312 c -0.28781,-2.70188 -2.33966,-5.12782 -5.10742,-5.07032 z" />
</svg>
