<?xml version="1.0" encoding="UTF-8" standalone="no"?>
<svg
   width="1024"
   height="256"
   version="1.1"
   id="svg11"
   sodipodi:docname="logo.svg"
   inkscape:version="1.4.3 (0d15f75, 2025-12-25)"
   xmlns:inkscape="http://www.inkscape.org/namespaces/inkscape"
   xmlns:sodipodi="http://sodipodi.sourceforge.net/DTD/sodipodi-0.dtd"
   xmlns="http://www.w3.org/2000/svg"
   xmlns:svg="http://www.w3.org/2000/svg">
  <defs
     id="defs11" />
  <sodipodi:namedview
     id="namedview11"
     pagecolor="#ffffff"
     bordercolor="#000000"
     borderopacity="0.25"
     inkscape:showpageshadow="2"
     inkscape:pageopacity="0.0"
     inkscape:pagecheckerboard="0"
     inkscape:deskcolor="#d1d1d1"
     inkscape:zoom="1.5878906"
     inkscape:cx="509.79582"
     inkscape:cy="187.04059"
     inkscape:window-width="2560"
     inkscape:window-height="1494"
     inkscape:window-x="-11"
     inkscape:window-y="-11"
     inkscape:window-maximized="1"
     inkscape:current-layer="svg11" />
  <path
     id="path2"
     style="fill:#050504;fill-opacity:1;stroke:#00a6c7;stroke-opacity:1;stroke-width:2.707;stroke-dasharray:none"
     d="M 155.03711 30.701172 C 154.74239 30.682498 154.4532 30.682313 154.17383 30.703125 C 151.16083 30.982425 148.96106 32.347828 146.41406 33.861328 L 140.94922 37.052734 C 138.36722 38.537334 135.60503 39.814194 133.08203 41.371094 C 134.49203 42.564594 136.14808 43.498234 137.70508 44.490234 L 163.52539 60.09375 L 165.54883 61.304688 C 168.09683 60.315687 170.5237 58.70975 172.9707 57.46875 C 175.3957 56.23975 178.24094 55.249031 180.46094 53.707031 C 183.49894 51.598031 184.44166 47.216156 181.22266 44.660156 C 179.90866 43.617356 178.33477 42.775141 176.88477 41.931641 L 168.97656 37.462891 C 165.4675 35.478578 159.45787 30.981274 155.03711 30.701172 z M 86.304688 31 C 85.8956 30.982573 85.476422 30.991512 85.044922 31.03125 L 84.9375 31.046875 C 79.6775 31.753675 73.084078 36.812319 68.455078 39.449219 L 63.794922 41.986328 C 60.624922 43.599628 56.518016 45.394328 57.166016 49.736328 C 57.865016 54.425328 63.082328 56.081078 66.736328 57.955078 C 68.869328 59.049078 71.061641 60.386031 73.306641 61.207031 C 74.706641 60.878031 75.995094 60.059141 77.246094 59.369141 L 103.45898 44.042969 C 104.71398 43.293669 106.02919 42.562272 107.11719 41.576172 C 105.06719 39.940972 102.54358 38.875078 100.26758 37.580078 L 94.052734 34.001953 C 91.53011 32.552953 89.168303 31.12199 86.304688 31 z M 120.36719 49.375 L 89.470703 67.289062 C 93.289702 69.916062 97.299297 72.137953 101.2793 74.501953 L 116.95117 83.560547 C 117.81717 84.019547 119.05938 84.912359 119.98438 85.068359 C 122.65237 84.939359 134.76023 76.980859 137.74023 75.255859 L 145.47266 70.878906 C 147.28066 69.842906 149.17403 68.768859 150.83203 67.505859 L 134.81641 57.613281 C 130.09541 54.770281 125.37819 51.684 120.36719 49.375 z M 64.855469 74.757812 L 23.972656 99.9375 C 15.073656 105.3705 14.187172 107.29633 14.201172 116.98633 C 14.207172 121.24133 14.628375 124.74566 17.609375 127.97266 C 19.002375 129.30366 20.960859 130.77006 23.005859 130.66406 C 26.040859 130.50606 32.061109 125.75123 34.662109 124.11523 L 51.070312 113.89062 C 55.679313 110.98263 60.658797 108.49108 65.091797 105.33008 C 65.249797 104.90108 65.177688 104.2715 65.179688 103.8125 L 65.201172 79.414062 C 65.201172 77.911062 65.335469 76.260391 65.105469 74.775391 L 64.855469 74.757812 z M 175.3125 75.058594 C 175.20249 75.056417 175.10364 75.071797 175.01758 75.107422 L 175.10156 103.60547 C 175.07856 105.46347 175.09664 105.18552 176.55664 106.10352 L 210.26953 126.91016 C 214.58653 129.63116 218.49692 132.55336 222.91992 127.44336 L 223.02148 127.32227 C 224.43348 125.56427 225.01492 123.93219 225.79492 121.86719 C 226.32892 120.45219 226.36859 111.70259 225.80859 110.30859 C 223.24759 103.93759 221.6248 103.15874 215.7168 99.552734 L 179.16797 77.181641 C 178.43844 76.720359 176.37591 75.079638 175.3125 75.058594 z M 79.115234 76.548828 C 78.956234 78.406828 79.019531 80.294203 79.019531 82.158203 L 79.017578 125.58008 C 79.019578 134.85308 76.649172 137.18756 68.201172 141.85156 L 57.269531 147.38086 L 92.677734 169.77539 L 100.41211 174.79297 C 101.30911 175.38297 105.06148 178.23366 106.02148 178.09766 L 106.34375 92.568359 C 105.45175 91.798359 104.34417 91.258922 103.32617 90.669922 L 85.529297 80.181641 C 83.471297 78.968641 81.350234 77.447828 79.115234 76.548828 z M 160.89453 76.734375 L 134.82031 92 C 134.48431 92.199 133.79552 92.497359 133.60352 92.818359 L 133.63672 92.914062 C 133.86272 93.647063 133.79973 94.495766 133.80273 95.259766 L 134.0625 178.28125 C 134.3555 178.06725 134.67019 177.91205 134.99219 177.74805 L 147.01172 170.12109 L 176.66602 151.28711 C 178.16702 150.35311 179.77266 149.50595 181.22266 148.50195 C 183.91066 146.63995 180.50088 146.07414 179.04688 145.36914 L 172.65234 142.02539 C 162.84334 136.78639 161.1207 134.38711 161.0957 123.28711 L 160.89453 76.734375 z M 300.56641 85.103516 C 292.31433 85.103516 285.90933 86.710391 281.35156 89.925781 C 276.7938 93.139261 273.62672 97.67411 271.85156 103.52734 C 270.0764 109.38059 269.18945 116.24044 269.18945 124.10938 L 269.18945 165.27344 C 269.18945 172.46982 270.0764 178.99245 271.85156 184.8457 C 273.62672 190.69893 276.7938 195.35284 281.35156 198.80664 C 285.90933 202.26238 292.31433 203.99023 300.56641 203.99023 C 308.24249 203.99023 314.19198 202.47861 318.41406 199.45703 C 322.63595 196.4335 325.61061 192.21204 327.33789 186.79102 C 329.06499 181.36806 329.92773 175.10729 329.92773 168.00781 L 329.92773 159.37109 L 314.52734 159.37109 L 314.52734 168.00781 C 314.52734 172.61288 314.28828 176.64192 313.80859 180.09766 C 313.32889 183.55146 312.12796 186.2613 310.20898 188.22852 C 308.28982 190.19576 305.12489 191.17969 300.71094 191.17969 C 296.96875 191.17969 293.99407 190.4596 291.78711 189.02148 C 289.58032 187.58142 287.99668 185.15925 287.03711 181.75391 C 286.07752 178.34662 285.59766 173.71651 285.59766 167.86328 L 285.59766 121.66016 C 285.59766 116.86322 285.9095 112.66559 286.5332 109.06836 C 287.1569 105.4692 288.52373 102.68599 290.63477 100.71875 C 292.74581 98.753466 296.10528 97.769531 300.71094 97.769531 C 305.22064 97.769531 308.43456 98.680092 310.35352 100.50391 C 312.27248 102.32773 313.44709 104.89275 313.87891 108.20312 C 314.31073 111.51349 314.52734 115.32827 314.52734 119.64648 L 314.52734 127.85156 L 329.92773 127.85156 L 329.92773 118.63867 C 329.92773 111.63417 328.9922 105.63724 327.12109 100.64648 C 325.24999 95.65767 322.18011 91.821022 317.91016 89.132812 C 313.64018 86.446523 307.85893 85.103516 300.56641 85.103516 z M 560.07227 85.103516 C 551.82153 85.103516 545.41597 86.710391 540.85742 89.925781 C 536.29888 93.139261 533.13278 97.67411 531.35742 103.52734 C 529.58208 109.38059 528.69531 116.24044 528.69531 124.10938 L 528.69531 165.27344 C 528.69531 172.46982 529.58208 178.99245 531.35742 184.8457 C 533.13278 190.69893 536.29888 195.35284 540.85742 198.80664 C 545.41597 202.26238 551.82153 203.99023 560.07227 203.99023 C 567.74737 203.99023 573.69667 202.47861 577.91797 199.45703 C 582.14122 196.4335 585.11491 192.21204 586.84375 186.79102 C 588.57065 181.36806 589.43359 175.10729 589.43359 168.00781 L 589.43359 159.37109 L 574.0332 159.37109 L 574.0332 168.00781 C 574.0332 172.61288 573.79123 176.64192 573.3125 180.09766 C 572.83378 183.55146 571.63363 186.2613 569.7168 188.22852 C 567.79802 190.19576 564.62995 191.17969 560.21484 191.17969 C 556.47226 191.17969 553.50054 190.4596 551.29297 189.02148 C 549.08735 187.58142 547.50235 185.15925 546.54102 181.75391 C 545.58162 178.34662 545.10352 173.71651 545.10352 167.86328 L 545.10352 121.66016 C 545.10352 116.86322 545.41497 112.66559 546.03906 109.06836 C 546.6612 105.4692 548.02998 102.68599 550.14062 100.71875 C 552.25128 98.753466 555.60978 97.769531 560.21484 97.769531 C 564.72492 97.769531 567.94059 98.680092 569.85938 100.50391 C 571.77814 102.32773 572.95254 104.89275 573.38477 108.20312 C 573.81696 111.51349 574.0332 115.32827 574.0332 119.64648 L 574.0332 127.85156 L 589.43359 127.85156 L 589.43359 118.63867 C 589.43359 111.63417 588.49922 105.63724 586.62695 100.64648 C 584.75662 95.65767 581.68576 91.821022 577.41602 89.132812 C 573.14431 86.446523 567.36556 85.103516 560.07227 85.103516 z M 438.01758 86.111328 L 438.01758 124.82812 C 436.19571 123.00625 434.13261 121.46891 431.83008 120.22266 C 429.52756 118.97449 426.98437 118.34961 424.20117 118.34961 C 418.54175 118.34961 414.24693 119.98223 411.32031 123.24414 C 408.39368 126.50799 406.40397 130.84851 405.34766 136.26953 C 404.29331 141.69055 403.76367 147.56845 403.76367 153.90234 L 403.76367 170.02148 C 403.76367 182.30358 405.48957 191.0123 408.94531 196.14648 C 412.39909 201.27872 417.62832 203.8457 424.63281 203.8457 C 427.41601 203.8457 429.88777 203.24464 432.04688 202.04492 C 434.20598 200.84715 436.19571 199.28793 438.01758 197.36914 L 438.01758 202.69531 L 453.41992 202.69531 L 453.41992 86.111328 L 438.01758 86.111328 z M 604.11523 86.111328 L 604.11523 202.69531 L 619.51562 202.69531 L 619.51562 135.91016 C 621.24252 134.37515 623.0894 133.07973 625.05664 132.02344 C 627.02386 130.96907 628.91642 130.43945 630.74023 130.43945 C 633.42846 130.43945 635.20201 131.25674 636.06641 132.88867 C 636.93083 134.51867 637.36133 136.82179 637.36133 139.79492 L 637.36133 202.69531 L 652.76172 202.69531 L 652.76172 135.33398 C 652.76172 132.6477 652.40458 130.00929 651.68359 127.41797 C 650.96454 124.82665 649.71481 122.66831 647.94141 120.94141 C 646.16605 119.21451 643.6467 118.34961 640.38477 118.34961 C 636.16346 118.34961 632.32488 119.31169 628.87109 121.23047 C 625.41729 123.14924 622.29688 125.4524 619.51562 128.13867 L 619.51562 86.111328 L 604.11523 86.111328 z M 931.41211 86.111328 L 931.41211 202.69531 L 946.8125 202.69531 L 946.8125 86.111328 L 931.41211 86.111328 z M 838.86328 91.003906 L 838.86328 107.125 L 854.26562 107.125 L 854.26562 91.003906 L 838.86328 91.003906 z M 367.0625 118.34961 C 360.92047 118.34961 356.07413 119.59739 352.52344 122.0918 C 348.97273 124.58621 346.45532 128.13713 344.96875 132.74414 C 343.48025 137.3492 342.73828 142.77081 342.73828 149.00781 L 342.73828 173.1875 C 342.73828 179.4245 343.48025 184.84613 344.96875 189.45312 C 346.45532 194.05818 348.97273 197.60912 352.52344 200.10352 C 356.07413 202.59793 360.92047 203.8457 367.0625 203.8457 C 373.20259 203.8457 378.02508 202.59793 381.52734 200.10352 C 385.02957 197.60912 387.52322 194.05819 389.01172 189.45312 C 390.49829 184.84612 391.24219 179.4245 391.24219 173.1875 L 391.24219 149.00781 C 391.24219 142.77081 390.49829 137.3492 389.01172 132.74414 C 387.52322 128.13713 385.02957 124.58621 381.52734 122.0918 C 378.02508 119.59739 373.20259 118.34961 367.0625 118.34961 z M 491.99219 118.34961 C 485.66023 118.34961 480.69485 119.59934 477.0957 122.09375 C 473.49849 124.58816 470.97914 128.28193 469.54102 133.17578 C 468.10096 138.06962 467.38086 144.21136 467.38086 151.59961 L 467.38086 170.59766 C 467.38086 177.79405 468.07521 183.86434 469.46875 188.80469 C 470.86034 193.74699 473.33017 197.48839 476.88086 200.03125 C 480.43157 202.57413 485.46836 203.8457 491.99219 203.8457 C 500.53172 203.8457 506.57624 201.44734 510.12695 196.65039 C 513.67766 191.85151 515.45312 185.27928 515.45312 176.93164 L 515.45312 173.76367 L 500.48438 173.76367 L 500.48438 178.80078 C 500.48437 181.58399 500.26816 184.00813 499.83789 186.07031 C 499.40568 188.13444 498.59035 189.71751 497.39062 190.82031 C 496.19284 191.92313 494.43925 192.47461 492.13672 192.47461 C 489.92917 192.47461 488.13184 191.97074 486.74023 190.96289 C 485.34865 189.95504 484.34088 188.39776 483.7168 186.28711 C 483.09465 184.17646 482.78125 181.44086 482.78125 178.08203 L 482.78125 161.38672 L 515.59766 161.38672 L 515.59766 154.62109 C 515.59766 147.04096 515.06997 140.54016 514.01367 135.11914 C 512.95932 129.69812 510.77719 125.54807 507.4668 122.66797 C 504.15644 119.78981 498.99864 118.34961 491.99219 118.34961 z M 736.38672 118.34961 C 730.24469 118.34961 725.40032 119.59739 721.84961 122.0918 C 718.29891 124.58621 715.77954 128.13713 714.29297 132.74414 C 712.80641 137.3492 712.0625 142.77081 712.0625 149.00781 L 712.0625 173.1875 C 712.0625 179.4245 712.80641 184.84613 714.29297 189.45312 C 715.77954 194.05818 718.29891 197.60912 721.84961 200.10352 C 725.40032 202.59793 730.24469 203.8457 736.38672 203.8457 C 742.52875 203.8457 747.3493 202.59793 750.84961 200.10352 C 754.35185 197.60912 756.84939 194.05819 758.33594 189.45312 C 759.82252 184.84612 760.56641 179.4245 760.56641 173.1875 L 760.56641 149.00781 C 760.56641 142.77081 759.82252 137.3492 758.33594 132.74414 C 756.84939 128.13713 754.35185 124.58621 750.84961 122.0918 C 747.3493 119.59739 742.52875 118.34961 736.38672 118.34961 z M 810.36523 118.34961 C 806.33579 118.34961 802.64202 119.26211 799.2832 121.08398 C 795.92631 122.90779 792.85355 125.11572 790.07227 127.70508 L 790.07227 119.50391 L 774.67188 119.50391 L 774.67188 202.69531 L 790.07227 202.69531 L 790.07227 135.62305 C 791.79917 134.183 793.59844 132.95902 795.46875 131.95117 C 797.34102 130.94332 799.1403 130.43945 800.86719 130.43945 C 803.55542 130.43945 805.32895 131.25674 806.19336 132.88867 C 807.05585 134.51867 807.48828 136.82179 807.48828 139.79492 L 807.48828 202.69531 L 822.88867 202.69531 L 822.88867 135.33398 C 822.88867 132.6477 822.52764 130.00929 821.80859 127.41797 C 821.08952 124.82665 819.84177 122.66831 818.06641 120.94141 C 816.293 119.21451 813.72406 118.34961 810.36523 118.34961 z M 893.55664 118.34961 C 886.84093 118.34961 881.73078 119.67079 878.23047 122.31055 C 874.72822 124.9484 872.3517 128.73933 871.10547 133.67969 C 869.8573 138.62199 869.23242 144.59512 869.23242 151.59961 L 869.23242 170.74219 C 869.23242 177.36293 869.83346 183.16744 871.03125 188.15625 C 872.23097 193.147 874.58367 197.00743 878.08398 199.74219 C 881.58623 202.47692 886.74596 203.8457 893.55664 203.8457 C 899.50678 203.8457 904.13688 202.79034 907.44727 200.67969 C 910.75763 198.56904 913.06078 195.49623 914.35547 191.4668 C 915.65014 187.43738 916.29883 182.64061 916.29883 177.07422 L 916.29883 171.31836 L 902.33789 171.31836 L 902.33789 178.08203 C 902.33789 180.86522 902.16734 183.35882 901.83203 185.56445 C 901.49673 187.77201 900.73097 189.47607 899.53125 190.67578 C 898.33348 191.87552 896.43702 192.47461 893.8457 192.47461 C 890.39192 192.47461 887.99354 191.27442 886.65039 188.875 C 885.30725 186.4775 884.63477 181.72839 884.63477 174.62891 L 884.63477 148.43164 C 884.63477 143.72967 884.85098 140.01209 885.28125 137.27734 C 885.71346 134.54261 886.60021 132.59853 887.94336 131.44727 C 889.2865 130.296 891.20871 129.7207 893.70312 129.7207 C 896.00565 129.7207 897.77916 130.20272 899.02734 131.16211 C 900.27551 132.1215 901.13847 133.65497 901.61719 135.76562 C 902.09592 137.87627 902.33789 140.75473 902.33789 144.40234 L 902.33789 149.43945 L 916.29883 149.43945 L 916.29883 144.54688 C 916.29883 138.79056 915.6759 133.96804 914.42773 130.08203 C 913.17955 126.19604 910.90218 123.26995 907.5918 121.30273 C 904.28143 119.3355 899.60175 118.34961 893.55664 118.34961 z M 985.96094 118.34961 C 979.62897 118.34961 974.66362 119.59934 971.06445 122.09375 C 967.46723 124.58816 964.94787 128.28193 963.50781 133.17578 C 962.06971 138.06962 961.34766 144.21136 961.34766 151.59961 L 961.34766 170.59766 C 961.34766 177.79405 962.04396 183.86434 963.43555 188.80469 C 964.82713 193.74699 967.2989 197.48839 970.84961 200.03125 C 974.40032 202.57413 979.4371 203.8457 985.96094 203.8457 C 994.50044 203.8457 1000.545 201.44734 1004.0957 196.65039 C 1007.6464 191.85151 1009.4219 185.27928 1009.4219 176.93164 L 1009.4219 173.76367 L 994.45312 173.76367 L 994.45312 178.80078 C 994.45313 181.58399 994.2369 184.00813 993.80469 186.07031 C 993.37442 188.13444 992.55909 189.71751 991.35938 190.82031 C 990.15966 191.92313 988.408 192.47461 986.10352 192.47461 C 983.8979 192.47461 982.10056 191.97074 980.70898 190.96289 C 979.31543 189.95504 978.30963 188.39776 977.68555 186.28711 C 977.06339 184.17646 976.74805 181.44086 976.74805 178.08203 L 976.74805 161.38672 L 1009.5664 161.38672 L 1009.5664 154.62109 C 1009.5664 147.04096 1009.0367 140.54016 1007.9824 135.11914 C 1006.928 129.69812 1004.7439 125.54807 1001.4336 122.66797 C 998.12317 119.78981 992.96543 118.34961 985.96094 118.34961 z M 701.98828 118.49609 C 698.91823 118.49609 695.84543 119.35708 692.77539 121.08398 C 689.70535 122.81282 686.63449 126.21896 683.56445 131.30469 L 683.56445 119.50391 L 668.16211 119.50391 L 668.16211 202.69531 L 683.56445 202.69531 L 683.56445 141.95508 C 685.48323 138.79007 687.42536 136.6536 689.39258 135.55078 C 691.3598 134.44604 693.54393 133.89648 695.94336 133.89648 C 697.47838 133.89648 698.98999 134.06315 700.47656 134.40039 C 701.96314 134.73569 703.28232 135.14239 704.43359 135.62305 L 704.43359 118.63867 C 703.85795 118.54176 703.40171 118.49609 703.06641 118.49609 L 701.98828 118.49609 z M 838.86328 119.50391 L 838.86328 202.69531 L 854.26562 202.69531 L 854.26562 119.50391 L 838.86328 119.50391 z M 367.0625 129.7207 C 370.03563 129.7207 372.12256 130.60942 373.32227 132.38477 C 374.52201 134.16013 375.24208 136.43946 375.48242 139.2207 C 375.72286 142.00391 375.8418 144.97759 375.8418 148.14453 L 375.8418 174.19531 C 375.8418 177.26536 375.72274 180.21524 375.48242 183.04688 C 375.24208 185.87658 374.52201 188.15591 373.32227 189.88281 C 372.12256 191.6097 370.03563 192.47461 367.0625 192.47461 C 364.08743 192.47461 361.97671 191.6097 360.72852 189.88281 C 359.48229 188.15591 358.73837 185.87659 358.49805 183.04688 C 358.25759 180.21524 358.13672 177.26536 358.13672 174.19531 L 358.13672 148.14453 C 358.13672 144.97759 358.2577 142.00391 358.49805 139.2207 C 358.73837 136.43946 359.48229 134.16013 360.72852 132.38477 C 361.97671 130.60942 364.08743 129.7207 367.0625 129.7207 z M 491.84961 129.7207 C 494.44093 129.7207 496.33544 130.32174 497.53516 131.51953 C 498.73293 132.71925 499.52641 134.49472 499.91016 136.8457 C 500.29391 139.19669 500.48438 142.10089 500.48438 145.55469 L 500.48438 153.03711 L 482.78125 153.03711 L 482.78125 148.57617 C 482.78125 143.77923 483.02324 140.01209 483.50195 137.27734 C 483.98068 134.54261 484.86936 132.59853 486.16406 131.44727 C 487.45875 130.296 489.35521 129.7207 491.84961 129.7207 z M 736.38672 129.7207 C 739.36179 129.7207 741.44869 130.60942 742.64648 132.38477 C 743.8462 134.16013 744.56437 136.43946 744.80469 139.2207 C 745.04515 142.00391 745.16602 144.97759 745.16602 148.14453 L 745.16602 174.19531 C 745.16602 177.26536 745.04503 180.21524 744.80469 183.04688 C 744.56437 185.87658 743.8462 188.15591 742.64648 189.88281 C 741.44869 191.6097 739.36179 192.47461 736.38672 192.47461 C 733.41165 192.47461 731.30092 191.6097 730.05469 189.88281 C 728.80652 188.15591 728.06454 185.87659 727.82422 183.04688 C 727.58376 180.21524 727.46289 177.26536 727.46289 174.19531 L 727.46289 148.14453 C 727.46289 144.97759 727.58389 142.00391 727.82422 139.2207 C 728.06454 136.43946 728.80652 134.16013 730.05469 132.38477 C 731.30092 130.60942 733.41165 129.7207 736.38672 129.7207 z M 985.81641 129.7207 C 988.40773 129.7207 990.30418 130.32174 991.50195 131.51953 C 992.70167 132.71925 993.4932 134.49472 993.87695 136.8457 C 994.26265 139.19669 994.45312 142.10089 994.45312 145.55469 L 994.45312 153.03711 L 976.74805 153.03711 L 976.74805 148.57617 C 976.74805 143.77923 976.98809 140.01209 977.46875 137.27734 C 977.94748 134.54261 978.83618 132.59853 980.13281 131.44727 C 981.42748 130.296 983.32199 129.7207 985.81641 129.7207 z M 428.23242 130.43945 C 430.1512 130.43945 431.92666 130.80046 433.55664 131.51953 C 435.18859 132.24052 436.67638 133.07967 438.01758 134.03906 L 438.01758 188.58984 C 436.38758 189.64613 434.75693 190.43571 433.12695 190.96289 C 431.49502 191.49201 429.95957 191.75586 428.51953 191.75586 C 425.83325 191.75586 423.81776 190.86911 422.47461 189.09375 C 421.13147 187.31841 420.24276 184.8724 419.81055 181.75391 C 419.38028 178.63541 419.16406 175.15591 419.16406 171.31836 L 419.16406 147.85742 C 419.16406 143.06048 419.78892 138.95612 421.03711 135.55078 C 422.28334 132.1435 424.68173 130.43945 428.23242 130.43945 z M 18.580078 138.85742 C 18.422112 138.85272 18.25925 138.85503 18.09375 138.86328 C 12.92175 140.34328 14.1765 147.13298 14.1875 151.20898 L 14.195312 157.24023 C 14.197313 158.72523 14.069328 160.48302 14.486328 161.91602 L 14.640625 162.26367 C 14.872625 162.80167 14.992844 163.40898 15.214844 163.95898 C 17.861844 170.53298 24.941 173.55044 30.625 177.02344 L 103.46484 222.85938 C 104.24384 223.28038 105.28642 223.61319 105.98242 224.11719 L 106.06836 197.15039 C 106.06336 195.95939 106.19863 194.53277 105.89062 193.38477 L 63.445312 166.22852 L 24.470703 141.68359 C 22.511328 140.40203 20.949573 138.92802 18.580078 138.85742 z M 220.95117 139.15234 C 220.76665 139.15618 220.57923 139.17266 220.38867 139.19922 L 220.28711 139.21484 C 217.87511 139.97684 215.62523 141.76237 213.49023 143.10938 L 133.88477 193.72461 L 134.08398 224.41016 L 137.875 222.25977 L 192.5625 187.13086 L 212.0293 175.11914 C 220.1443 170.06614 226.12548 167.97077 226.14648 157.00977 L 226.15234 151.57617 C 226.15234 149.23117 226.31313 146.75478 226.07812 144.42578 L 226.05859 144.22266 C 225.77078 141.52078 223.71893 139.09484 220.95117 139.15234 z " />
</svg>
