<?xml version="1.0" encoding="UTF-8" standalone="no"?>
<svg
   version="1.1"
   id="Layer_1"
   x="0px"
   y="0px"
   width="230.98599"
   viewBox="0 0 230.98599 324.85998"
   enable-background="new 0 0 1600 400"
   xml:space="preserve"
   sodipodi:docname="logo.svg"
   inkscape:version="1.2.2 (b0a8486541, 2022-12-01)"
   height="324.85999"
   xmlns:inkscape="http://www.inkscape.org/namespaces/inkscape"
   xmlns:sodipodi="http://sodipodi.sourceforge.net/DTD/sodipodi-0.dtd"
   xmlns="http://www.w3.org/2000/svg"
   xmlns:svg="http://www.w3.org/2000/svg"><defs
   id="defs53" /><sodipodi:namedview
   id="namedview51"
   pagecolor="#ffffff"
   bordercolor="#000000"
   borderopacity="0.25"
   inkscape:showpageshadow="2"
   inkscape:pageopacity="0.0"
   inkscape:pagecheckerboard="0"
   inkscape:deskcolor="#d1d1d1"
   showgrid="false"
   inkscape:zoom="0.75625"
   inkscape:cx="703.47107"
   inkscape:cy="60.826446"
   inkscape:window-width="1920"
   inkscape:window-height="1009"
   inkscape:window-x="-8"
   inkscape:window-y="-8"
   inkscape:window-maximized="1"
   inkscape:current-layer="Layer_1" />

<path
   fill="#020202"
   opacity="1"
   stroke="none"
   d="m 228.96103,179.61844 c -6e-5,39.99715 -0.024,79.49432 0.0252,118.99139 0.008,6.03119 -1.27115,11.61261 -5.15149,16.29984 -4.0857,4.93536 -9.07465,7.80426 -15.90702,7.78979 -62.16189,-0.13153 -124.325858,-0.30307 -186.48459,0.16059 -9.587639,0.0715 -20.69051369,-8.94196 -21.36612669,-20.24301 -0.09933,-1.66162 -0.07315,-3.33185 -0.07324,-4.99811 -0.003299995,-58.99573 -0.0065,-117.99147 -3.28e-4,-176.9872 0.0018,-17.1925 8.90466999,-26.014009 26.22600469,-26.016419 22.831684,-0.003 45.663364,-7.9e-4 68.495044,-8.1e-4 1.6363,0 3.27263,0 5.421436,0 0,-5.22447 2e-5,-10.16307 2e-5,-15.10166 0,-9.33266 -0.14426,-18.668417 0.0564,-27.996755 0.11279,-5.244461 -0.770026,-9.419602 -4.517126,-13.861626 -9.84807,-11.674458 -5.0895,-30.6246716 9.270526,-35.6847336 10.74402,-3.785893 21.62157,-2.59779805 28.96113,7.83496 6.47297,9.2009396 5.78132,21.7495996 -2.17518,29.7858316 -2.37851,2.402359 -3.07058,4.722221 -3.04789,7.875832 0.11148,15.496315 0.0506,30.993871 0.0506,47.148151 1.866,0 3.62648,-1e-5 5.38698,-1e-5 23.33165,1e-5 46.66333,-0.0217 69.99495,0.008 15.38071,0.0194 24.79856,9.502199 24.82581,25.000549 0.0349,19.83185 0.009,39.66379 0.009,59.9957 m -28.60553,11.50012 c 0,-22.57455 0,-45.14911 0,-67.66626 -57.7267,0 -114.759106,0 -171.736506,0 0,57.31563 0,114.2338 0,171.30472 57.30174,0 114.336356,0 171.736506,0 0,-34.40942 0,-68.52393 0,-103.63846 z"
   id="path4"
   style="fill:#665ed5;fill-opacity:1" />



















<path
   fill="#010101"
   opacity="1"
   stroke="none"
   d="m 131.05453,269.05045 c -16.9866,-0.002 -33.475638,0.1669 -49.959028,-0.0659 -11.16296,-0.15765 -17.92271,-9.62509 -14.08296,-19.2464 2.24898,-5.63525 6.58878,-8.95297 12.58956,-9.00024 23.146078,-0.18238 46.295358,-0.20493 69.441288,-0.0191 7.91111,0.0635 13.90342,6.53833 13.91703,14.12689 0.0133,7.40217 -5.62619,13.51905 -13.43097,14.00028 -5.97315,0.36828 -11.98198,0.15759 -18.47492,0.2045 z"
   id="path44" />
<path
   fill="#040404"
   opacity="1"
   stroke="none"
   d="m 135.19397,170.00678 c 2.86246,-6.40547 7.41121,-9.72388 14.19737,-9.47475 5.92093,0.21739 10.01309,3.33086 12.41721,8.5627 2.52647,5.49804 1.05681,11.82455 -3.40697,15.99367 -4.30241,4.0184 -11.0441,4.95159 -16.24796,2.24911 -5.33087,-2.76845 -8.33114,-8.50798 -7.56039,-14.51302 0.10567,-0.82331 0.33073,-1.63131 0.60074,-2.81771 z"
   id="path46" />
<path
   fill="#040404"
   opacity="1"
   stroke="none"
   d="m 94.209912,172.92206 c -0.0676,8.0033 -2.89399,12.73309 -8.92031,14.96138 -5.65482,2.09093 -10.81887,1.03726 -15.18262,-3.14198 -4.1518,-3.97623 -5.32039,-10.34565 -3.06435,-15.63025 2.43759,-5.70987 7.96596,-8.99974 14.37799,-8.55622 6.45092,0.44622 10.94446,4.65453 12.78929,12.36707 z"
   id="path48" />
<path
   style="fill:#665ed5;fill-opacity:1;stroke:#665ed5;stroke-width:1.32231"
   d="m 74.170572,266.57123 c -4.22316,-2.32246 -7.21156,-6.76268 -7.24332,-10.76229 -0.0371,-4.67214 3.18945,-11.01117 6.50892,-12.78769 1.57482,-0.84282 16.95931,-1.36152 40.382558,-1.36152 30.16295,0 38.5777,0.38224 41.48239,1.88431 8.80025,4.55078 8.80025,18.12688 0,22.67767 -4.64034,2.39961 -76.837068,2.71064 -81.130548,0.34952 z"
   id="path1263" /><path
   style="fill:#665ed5;fill-opacity:1;stroke:#665ed5;stroke-width:1.32231"
   d="m 75.331962,186.86711 c -12.73608,-5.54305 -10.12081,-23.21406 3.7622,-25.42062 4.36802,-0.69425 5.44978,-0.25637 9.58678,3.88063 7.62619,7.62619 5.77129,17.48757 -4.0622,21.59626 -5.18277,2.1655 -4.16776,2.17165 -9.28678,-0.0563 z"
   id="path1265" /><path
   style="fill:#665ed5;fill-opacity:1;stroke:#665ed5;stroke-width:1.32231"
   d="m 145.29009,187.83988 c -7.85751,-1.52087 -12.42566,-14.72474 -7.28846,-21.06671 5.76731,-7.11986 13.27611,-7.60957 19.60696,-1.27873 7.45608,7.45609 5.50063,17.36342 -4.22952,21.42894 -2.42705,1.01408 -4.58068,1.76276 -4.78586,1.66371 -0.20518,-0.099 -1.69158,-0.43528 -3.30312,-0.74721 z"
   id="path1267" /></svg>
