<?xml version="1.0" encoding="UTF-8" standalone="no"?>
<svg
   width="950"
   height="350"
   version="1.1"
   id="svg27"
   xmlns="http://www.w3.org/2000/svg"
   xmlns:svg="http://www.w3.org/2000/svg">
  <defs
     id="defs27" />
  <g
     id="g24"
     transform="translate(-40.679111,-328.29377)">
    <path
       fill="#f4f2d8"
       d="m 770.019,338.41 c 17.902,-0.691 35.994,-0.059 53.918,-0.099 l 40.729,0.062 c 14.036,0.051 28.595,-0.77 42.317,2.668 q 3.07,0.794 6.084,1.779 3.015,0.985 5.961,2.157 2.946,1.173 5.813,2.528 2.867,1.355 5.643,2.888 2.776,1.533 5.451,3.237 2.674,1.704 5.236,3.573 2.562,1.868 5.001,3.895 2.44,2.026 4.747,4.201 0.861,0.817 1.702,1.656 0.841,0.838 1.661,1.697 0.82,0.859 1.618,1.738 0.799,0.878 1.575,1.776 0.777,0.898 1.531,1.815 0.755,0.917 1.487,1.852 0.731,0.935 1.44,1.888 0.708,0.953 1.393,1.923 0.685,0.97 1.345,1.957 0.661,0.986 1.298,1.989 0.636,1.002 1.247,2.02 0.612,1.018 1.198,2.05 0.586,1.033 1.147,2.079 0.561,1.047 1.096,2.107 0.535,1.06 1.043,2.133 0.509,1.073 0.991,2.158 0.482,1.085 0.937,2.182 0.456,1.096 0.884,2.204 0.428,1.107 0.829,2.225 0.401,1.117 0.774,2.245 0.373,1.127 0.719,2.263 0.345,1.136 0.663,2.28 0.317,1.144 0.606,2.296 0.289,1.151 0.55,2.31 0.261,1.158 0.493,2.322 0.233,1.165 0.436,2.334 0.204,1.17 0.378,2.345 0.175,1.174 0.321,2.352 0.146,1.179 0.263,2.36 0.117,1.182 0.204,2.366 0.088,1.184 0.147,2.37 0.058,1.186 0.088,2.373 c 0.758,25.83 0.138,51.83 0.162,77.679 l -0.041,35.934 c -0.038,13.329 0.501,26.46 -2.597,39.54 -4.211,17.773 -12.202,32.334 -24.693,45.623 q -0.831,0.89 -1.685,1.76 -0.853,0.87 -1.728,1.718 -0.874,0.848 -1.769,1.674 -0.896,0.826 -1.811,1.63 -0.916,0.804 -1.851,1.584 -0.935,0.781 -1.889,1.539 -0.955,0.757 -1.927,1.49 -0.973,0.734 -1.963,1.443 -0.991,0.709 -1.999,1.394 -1.008,0.684 -2.032,1.344 -1.025,0.659 -2.065,1.292 -1.041,0.634 -2.096,1.242 -1.056,0.607 -2.127,1.189 -1.071,0.581 -2.155,1.136 -1.085,0.554 -2.183,1.082 -1.098,0.527 -2.209,1.028 -1.111,0.5 -2.234,0.972 -1.123,0.473 -2.257,0.917 -1.134,0.445 -2.279,0.861 -1.145,0.416 -2.3,0.804 -1.155,0.388 -2.319,0.747 -1.164,0.359 -2.337,0.689 -1.173,0.33 -2.353,0.631 -1.181,0.301 -2.368,0.573 -1.188,0.271 -2.382,0.513 -1.194,0.242 -2.393,0.455 -1.2,0.212 -2.404,0.395 -1.205,0.183 -2.414,0.335 -1.208,0.153 -2.42,0.276 -1.212,0.122 -2.427,0.215 -1.215,0.093 -2.431,0.155 -1.217,0.063 -2.435,0.095 c -23.361,0.588 -46.863,-0.105 -70.239,-0.11 -8.163,-10e-4 -38.76,1.018 -44.267,-0.552 -7.12,-0.909 -15.016,-0.258 -22.235,-0.254 l -43.607,0.031 -143.832,-0.032 -503.9409,0.034 -0.2692,-323.246 c 32.9702,0.791 66.0741,0.202 99.0611,0.19 L 332.93,338.85 Z M 135.728,439.151 q 0.863,-0.074 1.72,-0.19 0.858,-0.116 1.71,-0.274 0.851,-0.158 1.693,-0.357 0.843,-0.199 1.674,-0.439 0.832,-0.24 1.651,-0.521 0.819,-0.28 1.624,-0.6 0.804,-0.32 1.592,-0.679 0.788,-0.359 1.557,-0.756 0.77,-0.397 1.519,-0.831 0.749,-0.433 1.476,-0.903 0.727,-0.47 1.43,-0.975 0.703,-0.505 1.381,-1.044 0.678,-0.539 1.328,-1.11 0.651,-0.571 1.273,-1.173 0.622,-0.602 1.214,-1.234 0.592,-0.632 1.152,-1.292 0.56,-0.659 1.088,-1.346 0.527,-0.686 1.021,-1.398 0.493,-0.711 0.951,-1.446 0.458,-0.734 0.879,-1.491 0.422,-0.756 0.806,-1.531 0.385,-0.776 0.73,-1.57 0.346,-0.793 0.653,-1.603 0.307,-0.81 0.574,-1.633 0.267,-0.824 0.493,-1.659 0.226,-0.836 0.412,-1.681 0.185,-0.846 0.329,-1.7 0.144,-0.853 0.246,-1.713 0.102,-0.86 0.162,-1.723 0.059,-0.864 0.077,-1.73 0.018,-0.865 -0.007,-1.73 -0.024,-0.866 -0.091,-1.729 -0.067,-0.863 -0.176,-1.722 -0.108,-0.859 -0.259,-1.711 -0.151,-0.853 -0.343,-1.697 -0.192,-0.844 -0.425,-1.678 -0.233,-0.834 -0.506,-1.655 -0.274,-0.821 -0.587,-1.629 -0.313,-0.807 -0.665,-1.597 -0.352,-0.791 -0.743,-1.564 -0.39,-0.773 -0.818,-1.525 -0.427,-0.753 -0.891,-1.484 -0.464,-0.731 -0.963,-1.438 -0.499,-0.708 -1.032,-1.39 -0.532,-0.682 -1.098,-1.338 -0.566,-0.655 -1.162,-1.282 -0.597,-0.627 -1.224,-1.225 -0.627,-0.597 -1.282,-1.163 -0.655,-0.566 -1.337,-1.099 -0.682,-0.533 -1.389,-1.033 -0.707,-0.499 -1.438,-0.963 -0.731,-0.464 -1.483,-0.892 -0.753,-0.428 -1.525,-0.819 -0.773,-0.391 -1.564,-0.743 -0.79,-0.353 -1.597,-0.667 -0.807,-0.313 -1.628,-0.587 -0.822,-0.274 -1.655,-0.507 -0.834,-0.234 -1.678,-0.426 -0.844,-0.193 -1.696,-0.344 -0.853,-0.151 -1.712,-0.26 -0.858,-0.109 -1.721,-0.177 -0.864,-0.067 -1.729,-0.092 -0.865,-0.025 -1.731,-0.008 -0.865,0.018 -1.729,0.077 -0.873,0.06 -1.742,0.163 -0.869,0.103 -1.732,0.249 -0.863,0.146 -1.717,0.334 -0.855,0.189 -1.699,0.419 -0.845,0.23 -1.676,0.501 -0.832,0.272 -1.65,0.584 -0.817,0.312 -1.618,0.665 -0.801,0.352 -1.584,0.743 -0.783,0.391 -1.545,0.821 -0.763,0.429 -1.503,0.896 -0.741,0.466 -1.457,0.969 -0.717,0.502 -1.407,1.039 -0.691,0.537 -1.355,1.108 -0.663,0.571 -1.298,1.173 -0.634,0.603 -1.238,1.236 -0.604,0.633 -1.176,1.296 -0.572,0.662 -1.111,1.352 -0.539,0.689 -1.043,1.405 -0.504,0.715 -0.972,1.454 -0.468,0.74 -0.899,1.501 -0.431,0.762 -0.824,1.544 -0.393,0.782 -0.747,1.582 -0.3535,0.801 -0.6674,1.617 -0.314,0.817 -0.5873,1.648 -0.2733,0.832 -0.5053,1.676 -0.2319,0.843 -0.422,1.698 -0.19,0.854 -0.3377,1.716 -0.1477,0.863 -0.2527,1.732 -0.1049,0.868 -0.1669,1.741 -0.0619,0.873 -0.0808,1.748 -0.0188,0.875 0.0056,1.75 0.0243,0.875 0.0918,1.747 0.0675,0.873 0.178,1.741 0.1104,0.868 0.2636,1.729 0.1531,0.862 0.3486,1.715 0.1954,0.853 0.4327,1.695 0.2373,0.843 0.5159,1.672 0.2786,0.83 0.5977,1.645 0.3192,0.814 0.6782,1.612 0.359,0.799 0.757,1.578 0.398,0.779 0.834,1.538 0.435,0.759 0.908,1.495 0.473,0.737 0.981,1.449 0.509,0.712 1.052,1.398 0.543,0.687 1.119,1.345 0.576,0.659 1.184,1.288 0.609,0.63 1.247,1.228 0.638,0.599 1.305,1.165 0.667,0.567 1.361,1.1 0.695,0.532 1.414,1.03 0.72,0.498 1.463,0.96 0.744,0.462 1.509,0.886 0.765,0.425 1.55,0.811 0.786,0.387 1.589,0.734 0.803,0.347 1.623,0.654 0.819,0.307 1.653,0.573 0.833,0.266 1.679,0.491 0.846,0.225 1.702,0.408 0.855,0.183 1.719,0.323 0.864,0.14 1.734,0.238 0.869,0.098 1.743,0.152 0.873,0.055 1.748,0.066 0.875,0.011 1.75,-0.02 0.874,-0.032 1.746,-0.107 z m 0.498,194.377 q 0.851,-0.085 1.696,-0.211 0.845,-0.126 1.684,-0.294 0.838,-0.167 1.667,-0.375 0.829,-0.209 1.647,-0.457 0.817,-0.249 1.622,-0.537 0.805,-0.288 1.594,-0.616 0.79,-0.327 1.563,-0.692 0.772,-0.366 1.526,-0.769 0.754,-0.403 1.487,-0.842 0.734,-0.439 1.444,-0.914 0.711,-0.474 1.398,-0.983 0.687,-0.509 1.348,-1.051 0.661,-0.542 1.295,-1.115 0.634,-0.573 1.239,-1.177 0.605,-0.604 1.18,-1.237 0.574,-0.633 1.118,-1.293 0.543,-0.66 1.053,-1.345 0.51,-0.686 0.986,-1.396 0.476,-0.71 0.917,-1.442 0.44,-0.733 0.845,-1.486 0.404,-0.753 0.771,-1.525 0.367,-0.772 0.696,-1.561 0.329,-0.789 0.619,-1.593 0.29,-0.804 0.54,-1.621 0.25,-0.818 0.46,-1.646 0.21,-0.829 0.379,-1.667 0.169,-0.838 0.297,-1.683 0.128,-0.845 0.215,-1.695 0.086,-0.851 0.131,-1.704 0.044,-0.854 0.047,-1.708 0.003,-0.855 -0.036,-1.709 -0.038,-0.854 -0.119,-1.705 -0.081,-0.851 -0.203,-1.697 -0.122,-0.846 -0.285,-1.685 -0.164,-0.839 -0.368,-1.669 -0.204,-0.83 -0.449,-1.649 -0.244,-0.819 -0.528,-1.625 -0.285,-0.806 -0.608,-1.597 -0.324,-0.791 -0.685,-1.566 -0.362,-0.774 -0.761,-1.53 -0.4,-0.756 -0.835,-1.491 -0.436,-0.736 -0.907,-1.449 -0.471,-0.713 -0.977,-1.402 -0.505,-0.69 -1.044,-1.353 -0.538,-0.664 -1.109,-1.301 -0.57,-0.636 -1.171,-1.244 -0.601,-0.608 -1.231,-1.186 -0.629,-0.578 -1.287,-1.124 -0.657,-0.547 -1.341,-1.06 -0.683,-0.514 -1.39,-0.993 -0.708,-0.48 -1.438,-0.924 -0.731,-0.444 -1.482,-0.852 -0.751,-0.408 -1.521,-0.779 -0.77,-0.371 -1.557,-0.704 -0.788,-0.332 -1.59,-0.626 -0.803,-0.294 -1.619,-0.548 -0.816,-0.254 -1.644,-0.468 -0.827,-0.214 -1.664,-0.387 -0.837,-0.173 -1.682,-0.305 -0.844,-0.133 -1.694,-0.223 -0.85,-0.091 -1.704,-0.14 -0.853,-0.049 -1.708,-0.056 -0.855,-0.007 -1.709,0.028 -0.854,0.035 -1.705,0.111 -0.857,0.077 -1.708,0.196 -0.852,0.119 -1.697,0.28 -0.845,0.16 -1.681,0.363 -0.836,0.202 -1.661,0.445 -0.825,0.243 -1.637,0.526 -0.812,0.284 -1.609,0.607 -0.798,0.323 -1.578,0.685 -0.78,0.361 -1.542,0.761 -0.761,0.4 -1.502,0.837 -0.741,0.437 -1.459,0.909 -0.719,0.473 -1.413,0.981 -0.695,0.507 -1.363,1.048 -0.669,0.542 -1.31,1.115 -0.641,0.573 -1.253,1.177 -0.612,0.605 -1.194,1.238 -0.581,0.634 -1.131,1.295 -0.55,0.662 -1.066,1.35 -0.517,0.687 -0.999,1.4 -0.482,0.712 -0.928,1.447 -0.447,0.735 -0.856,1.492 -0.41,0.756 -0.782,1.531 -0.372,0.776 -0.705,1.569 -0.334,0.793 -0.6276,1.601 -0.2939,0.808 -0.5477,1.63 -0.2537,0.822 -0.4667,1.655 -0.213,0.833 -0.3847,1.676 -0.1718,0.843 -0.3018,1.693 -0.13,0.85 -0.2181,1.706 -0.088,0.855 -0.1338,1.714 -0.0458,0.859 -0.0493,1.719 -0.0035,0.86 0.0354,1.72 0.0388,0.859 0.1199,1.715 0.0811,0.856 0.2043,1.708 0.1231,0.851 0.288,1.695 0.1649,0.844 0.3712,1.679 0.2062,0.835 0.4533,1.659 0.2471,0.824 0.5344,1.634 0.2872,0.811 0.6142,1.607 0.327,0.795 0.693,1.574 0.365,0.778 0.769,1.538 0.403,0.759 0.844,1.498 0.44,0.739 0.916,1.455 0.477,0.716 0.988,1.408 0.511,0.692 1.055,1.358 0.544,0.666 1.121,1.304 0.576,0.638 1.184,1.247 0.607,0.61 1.243,1.188 0.637,0.579 1.301,1.125 0.664,0.547 1.354,1.06 0.69,0.513 1.405,0.992 0.715,0.478 1.452,0.921 0.737,0.443 1.496,0.849 0.758,0.406 1.535,0.774 0.778,0.368 1.572,0.697 0.795,0.33 1.604,0.62 0.81,0.29 1.633,0.539 0.823,0.25 1.658,0.459 0.834,0.209 1.677,0.377 0.844,0.167 1.695,0.293 0.851,0.126 1.707,0.21 0.856,0.084 1.715,0.125 0.859,0.042 1.719,0.041 0.86,-0.001 1.719,-0.044 0.859,-0.043 1.715,-0.128 z"
       id="path1" />
    <path
       fill="#ef4832"
       d="m 770.019,338.41 c 17.902,-0.691 35.994,-0.059 53.918,-0.099 l 40.729,0.062 c 14.036,0.051 28.595,-0.77 42.317,2.668 q 3.07,0.794 6.084,1.779 3.015,0.985 5.961,2.157 2.946,1.173 5.813,2.528 2.867,1.355 5.643,2.888 2.776,1.533 5.451,3.237 2.674,1.704 5.236,3.573 2.562,1.868 5.001,3.895 2.44,2.026 4.747,4.201 0.861,0.817 1.702,1.656 0.841,0.838 1.661,1.697 0.82,0.859 1.618,1.738 0.799,0.878 1.575,1.776 0.777,0.898 1.531,1.815 0.755,0.917 1.487,1.852 0.731,0.935 1.44,1.888 0.708,0.953 1.393,1.923 0.685,0.97 1.345,1.957 0.661,0.986 1.298,1.989 0.636,1.002 1.247,2.02 0.612,1.018 1.198,2.05 0.586,1.033 1.147,2.079 0.561,1.047 1.096,2.107 0.535,1.06 1.043,2.133 0.509,1.073 0.991,2.158 0.482,1.085 0.937,2.182 0.456,1.096 0.884,2.204 0.428,1.107 0.829,2.225 0.401,1.117 0.774,2.245 0.373,1.127 0.719,2.263 0.345,1.136 0.663,2.28 0.317,1.144 0.606,2.296 0.289,1.151 0.55,2.31 0.261,1.158 0.493,2.322 0.233,1.165 0.436,2.334 0.204,1.17 0.378,2.345 0.175,1.174 0.321,2.352 0.146,1.179 0.263,2.36 0.117,1.182 0.204,2.366 0.088,1.184 0.147,2.37 0.058,1.186 0.088,2.373 c 0.758,25.83 0.138,51.83 0.162,77.679 l -0.041,35.934 c -0.038,13.329 0.501,26.46 -2.597,39.54 -4.211,17.773 -12.202,32.334 -24.693,45.623 q -0.831,0.89 -1.685,1.76 -0.853,0.87 -1.728,1.718 -0.874,0.848 -1.769,1.674 -0.896,0.826 -1.811,1.63 -0.916,0.804 -1.851,1.584 -0.935,0.781 -1.889,1.539 -0.955,0.757 -1.927,1.49 -0.973,0.734 -1.963,1.443 -0.991,0.709 -1.999,1.394 -1.008,0.684 -2.032,1.344 -1.025,0.659 -2.065,1.292 -1.041,0.634 -2.096,1.242 -1.056,0.607 -2.127,1.189 -1.071,0.581 -2.155,1.136 -1.085,0.554 -2.183,1.082 -1.098,0.527 -2.209,1.028 -1.111,0.5 -2.234,0.972 -1.123,0.473 -2.257,0.917 -1.134,0.445 -2.279,0.861 -1.145,0.416 -2.3,0.804 -1.155,0.388 -2.319,0.747 -1.164,0.359 -2.337,0.689 -1.173,0.33 -2.353,0.631 -1.181,0.301 -2.368,0.573 -1.188,0.271 -2.382,0.513 -1.194,0.242 -2.393,0.455 -1.2,0.212 -2.404,0.395 -1.205,0.183 -2.414,0.335 -1.208,0.153 -2.42,0.276 -1.212,0.122 -2.427,0.215 -1.215,0.093 -2.431,0.155 -1.217,0.063 -2.435,0.095 c -23.361,0.588 -46.863,-0.105 -70.239,-0.11 -8.163,-10e-4 -38.76,1.018 -44.267,-0.552 l -0.08,-48.746 52.341,0.384 c 8.261,0.042 23.86,1.285 31.168,-0.93 3.999,-1.212 6.902,-4.38 7.89,-8.419 2.904,-11.879 -8.658,-48.814 -3.886,-57.481 2.238,-4.066 6.689,-5.115 10.806,-6.287 4.702,1.455 9.205,4.625 13.45,7.1 l 26.79,15.551 c 5.214,3.07 10.835,7.278 16.548,9.274 1.967,0.687 3.902,0.781 5.93,0.296 3.808,-0.91 7.019,-3.776 8.927,-7.126 1.058,-1.856 1.461,-3.365 1.581,-5.503 0.545,-9.746 0.654,-119.816 -0.544,-123.252 -1.402,-4.015 -4.675,-7.188 -8.521,-8.869 -3.185,-1.393 -5.833,-0.863 -9.03,0.349 -5.174,1.961 -9.912,5.537 -14.489,8.604 -9.014,6.039 -28.758,19.941 -37.793,23.304 -0.202,0.076 -0.406,0.145 -0.61,0.218 -4.243,-1.334 -8.949,-3.726 -12.285,-6.687 -2.031,-1.802 -3.147,-3.777 -3.466,-6.487 -1.323,-11.232 9.96,-36.072 9.168,-48.058 -0.209,-3.174 -1.36,-6.102 -3.826,-8.195 -1.642,-1.394 -3.501,-2.263 -5.641,-2.535 -9.475,-1.207 -20.065,-0.364 -29.685,-0.401 -18.204,-0.071 -36.84,-0.738 -54.993,0.394 q 0.297,-25.171 0.203,-50.344 z"
       id="path2" />
    <path
       fill="#ef4832"
       d="m 650.925,477.664 c 4.898,-0.147 9.16,1.32 13.92,2.045 3.802,0.579 7.606,0.341 11.408,-0.083 l 0.242,0.674 c -0.353,1.342 -0.691,2.416 -1.423,3.619 -2.426,0.732 -5.143,0.552 -7.662,0.603 1.787,4.251 3.135,8.52 2.375,13.2 -0.761,4.69 -3.521,8.713 -7.453,11.333 -5.375,3.583 -11.807,3.978 -17.994,2.887 -1.343,1.573 -3.393,3.741 -3.185,5.977 0.678,7.276 24.901,3.957 32.555,10.025 1.913,1.517 3.078,3.551 3.31,5.992 0.525,5.524 -1.875,9.927 -5.135,14.127 -1.184,1.217 -2.492,2.372 -3.9,3.324 -6.805,4.599 -17.373,5.505 -25.293,4.002 -4.329,-0.822 -8.699,-2.734 -11.175,-6.556 -1.589,-2.454 -1.996,-5.38 -1.221,-8.191 1.672,-6.056 7.306,-9.635 12.392,-12.588 -2.299,-0.835 -4.75,-1.676 -6.394,-3.587 -1.216,-1.413 -1.849,-3.283 -1.559,-5.137 0.574,-3.671 3.758,-6.441 6.664,-8.397 -0.27,-0.185 -0.542,-0.366 -0.809,-0.554 -4.073,-2.856 -6.867,-6.897 -7.602,-11.877 q -0.127,-0.883 -0.166,-1.774 -0.04,-0.891 0.01,-1.782 0.05,-0.89 0.187,-1.772 0.138,-0.881 0.363,-1.744 0.224,-0.863 0.534,-1.7 0.309,-0.837 0.7,-1.638 0.391,-0.802 0.859,-1.561 0.468,-0.759 1.01,-1.468 c 3.678,-4.817 8.63,-6.7 14.442,-7.399 z"
       id="path3" />
    <path
       fill="#f4f2d8"
       d="m 644.406,528.969 c 6.327,0.383 13.434,0.312 19.547,2.064 2.556,0.733 5.057,2.093 6.339,4.525 1.162,2.204 1.175,5.145 0.355,7.464 -1.315,3.717 -4.84,5.959 -8.178,7.636 -4.981,1.454 -10.088,1.979 -15.231,1.024 -3.781,-0.702 -7.631,-2.412 -9.749,-5.779 -1.273,-2.023 -1.746,-4.435 -1.215,-6.773 0.971,-4.282 4.59,-7.839 8.132,-10.161 z"
       id="path4" />
    <path
       fill="#f4f2d8"
       d="m 649.855,480.569 c 2.383,-0.019 4.634,0.09 6.784,1.233 3.41,1.815 5.635,5.254 6.607,8.917 1.164,4.387 0.894,9.704 -1.567,13.621 -1.971,3.136 -4.334,4.255 -7.857,4.974 -2.369,0.143 -4.612,0.28 -6.816,-0.755 -3.201,-1.503 -5.413,-4.47 -6.577,-7.74 -1.518,-4.262 -1.636,-9.693 0.506,-13.769 2.039,-3.88 4.836,-5.312 8.92,-6.481 z"
       id="path5" />
    <path
       fill="#ef4832"
       d="m 363.763,510.713 c -4.782,-2.538 -8.452,-5.189 -10.038,-10.71 q -0.227,-0.787 -0.374,-1.592 -0.146,-0.806 -0.21,-1.622 -0.065,-0.817 -0.046,-1.635 0.019,-0.819 0.12,-1.631 0.101,-0.813 0.284,-1.611 0.183,-0.798 0.446,-1.574 0.263,-0.775 0.603,-1.52 0.34,-0.745 0.753,-1.452 c 2.801,-4.732 7.762,-7.68 13.016,-8.923 6.934,-1.64 11.008,1.78 17.405,2.596 3.828,0.488 7.811,0.041 11.675,0.243 l 0.631,0.498 c -0.235,1.333 -0.421,1.339 -1.455,2.249 -2.95,0.802 -6.37,0.537 -9.429,0.565 2.826,5.021 4.54,9.819 2.819,15.647 -1.252,4.237 -4.247,7.444 -8.174,9.378 -5.703,2.809 -14.064,1.272 -16.295,2.615 -1.624,1.56 -4.471,3.902 -4.395,6.339 0.068,2.17 2.152,3.626 3.637,4.899 6.396,0.235 12.806,-0.089 19.198,0.147 3.72,0.138 8.075,0.761 10.662,3.742 2.024,2.334 2.452,5.458 2.219,8.443 -0.453,5.824 -2.952,11.066 -7.489,14.803 -6.403,5.275 -15.773,6.649 -23.829,5.763 -4.944,-0.543 -10.44,-2.32 -13.526,-6.471 q -0.339,-0.452 -0.628,-0.938 -0.289,-0.486 -0.526,-0.999 -0.236,-0.513 -0.418,-1.049 -0.181,-0.535 -0.305,-1.087 -0.123,-0.551 -0.188,-1.113 -0.065,-0.561 -0.071,-1.127 -0.005,-0.565 0.049,-1.128 0.054,-0.562 0.167,-1.116 c 1.103,-5.632 5.727,-9.513 10.197,-12.609 -1.17,-0.923 -2.311,-1.878 -3.221,-3.068 -1.198,-1.565 -1.74,-3.527 -1.416,-5.478 0.696,-4.19 4.966,-7.137 8.152,-9.474 z"
       id="path6" />
    <path
       fill="#f4f2d8"
       d="m 363.258,529.358 c 6.886,0.409 14.476,-0.738 21.204,0.512 2.3,0.427 4.613,1.416 5.94,3.435 1.507,2.293 1.409,5.385 0.8,7.954 -1.121,4.732 -4.363,7.381 -8.246,9.87 -4.918,2.118 -11.286,2.834 -16.514,1.636 -4.718,-1.082 -7.361,-3.386 -9.833,-7.426 -0.155,-1.888 -0.39,-3.855 -0.306,-5.749 0.217,-4.848 3.571,-7.345 6.955,-10.232 z"
       id="path7" />
    <path
       fill="#f4f2d8"
       d="m 369.079,481.057 c 2.085,-0.191 4.187,-0.056 6.277,0.004 3.049,1.785 4.989,3.184 6.517,6.482 1.955,4.218 2.348,9.726 0.71,14.112 -1.486,3.981 -3.837,5.65 -7.603,7.286 -2.01,0.138 -4.264,0.458 -6.204,-0.206 -2.898,-0.991 -5.357,-3.209 -6.73,-5.933 -2.072,-4.113 -2.218,-9.543 -0.681,-13.856 1.477,-4.147 3.793,-6.113 7.714,-7.889 z"
       id="path8" />
    <path
       fill="#ef4832"
       d="m 708.511,478.09 c 7.872,-0.672 10.659,1.672 17.708,2.532 3.589,0.438 7.288,-0.76 10.938,-0.449 0.514,1.227 0.216,1.739 -0.021,2.999 -2.059,2.271 -7.097,1.835 -10.016,1.995 1.57,4.26 2.654,8.562 1.769,13.123 -0.841,4.33 -3.387,7.979 -7.038,10.425 -6.096,4.085 -12.648,3.638 -19.492,2.419 -0.888,0.914 -2.16,2.084 -2.705,3.243 -0.643,1.37 -0.55,2.23 -0.187,3.65 4.702,6.759 22.737,4.609 30.543,8.035 2.813,1.234 5.289,3.279 6.364,6.23 1.503,4.127 -0.047,8.203 -1.742,11.979 -1.345,2.118 -2.728,4.033 -4.708,5.607 -6.685,5.315 -16.579,7.216 -24.936,6.075 -4.676,-0.638 -9.782,-2.441 -12.673,-6.403 -1.536,-2.104 -2.212,-4.605 -1.734,-7.184 1.15,-6.212 7.232,-10.726 12.022,-14.213 -2.472,-0.961 -5.287,-2.062 -7.14,-4.019 -1.464,-1.546 -2.365,-3.374 -2.241,-5.536 0.219,-3.816 2.949,-6.529 5.534,-9.021 -2.466,-2.298 -4.03,-4.2 -5.065,-7.476 -1.56,-4.936 -0.896,-10.66 1.669,-15.147 3.031,-5.304 7.488,-7.459 13.151,-8.864 z"
       id="path9" />
    <path
       fill="#f4f2d8"
       d="m 705.184,528.896 c 5.607,-0.188 12.429,0.255 17.885,1.563 2.999,0.718 5.993,2.075 7.524,4.909 1.193,2.206 1.256,5.177 0.458,7.524 -1.36,3.998 -4.96,6.036 -8.53,7.753 -4.437,1.254 -8.978,1.855 -13.58,1.242 -3.848,-0.512 -8.09,-2.012 -10.449,-5.284 q -0.287,-0.394 -0.532,-0.816 -0.245,-0.421 -0.445,-0.866 -0.2,-0.445 -0.353,-0.908 -0.153,-0.463 -0.257,-0.94 -0.104,-0.476 -0.158,-0.961 -0.054,-0.485 -0.057,-0.973 -0.004,-0.487 0.044,-0.973 0.047,-0.485 0.144,-0.963 c 0.886,-4.581 4.706,-7.759 8.306,-10.307 z"
       id="path10" />
    <path
       fill="#f4f2d8"
       d="m 708.158,481.05 c 1.852,-0.092 3.89,-0.28 5.697,0.2 3.073,0.817 5.698,3.13 7.171,5.911 2.141,4.043 2.721,9.555 1.306,13.921 -1.396,4.308 -3.81,6.23 -7.762,8.159 -2.516,0.25 -5.536,0.428 -7.879,-0.653 -2.937,-1.354 -5.008,-3.925 -6.091,-6.93 -1.586,-4.402 -1.785,-10.361 0.262,-14.649 1.566,-3.283 3.936,-4.819 7.296,-5.959 z"
       id="path11" />
    <path
       fill="#ef4832"
       d="m 603.373,499.153 c 0.081,-4.609 0.723,-11.108 -2.793,-14.719 -2.087,-2.142 -6.654,-3.011 -9.508,-2.83 -5.552,0.351 -12.067,10.338 -13.06,10.155 -0.409,-0.075 -0.687,-0.468 -1.03,-0.702 -0.589,-2.06 0.284,-4.192 1.289,-5.991 2.119,-3.795 6.439,-5.527 10.492,-6.6 4.872,-1.29 11.045,-1.035 15.44,1.632 2.401,1.457 3.873,3.51 5.237,5.904 0.361,8.21 -1.096,30.57 0.904,36.629 2.609,1.097 6.508,0.546 9.34,0.373 -3.162,2.296 -8.177,5.388 -12.252,4.777 -1.44,-0.216 -2.695,-0.975 -3.393,-2.28 -0.745,-1.391 -0.601,-4.621 -1.703,-5.287 -2.926,2.707 -5.718,5.304 -9.498,6.79 -3.699,1.453 -7.75,1.431 -11.377,-0.232 -3.171,-1.454 -5.645,-4.095 -6.698,-7.443 -0.912,-2.902 -0.725,-6.226 0.771,-8.905 1.643,-2.942 5.217,-4.811 8.343,-5.745 5.953,-3.259 12.944,-4.095 19.496,-5.526 z"
       id="path12" />
    <path
       fill="#f4f2d8"
       d="m 602.558,502.324 c 1.379,3.447 0.968,11.038 -0.61,14.505 -0.606,1.331 -1.739,2.544 -2.772,3.559 -3.978,2.331 -6.31,2.794 -10.897,2.579 -2.282,-1.28 -4.63,-2.673 -6.015,-4.974 -1.016,-1.687 -1.429,-3.637 -0.835,-5.546 1.148,-3.687 4.733,-5.475 7.917,-7.11 4.255,-1.439 8.811,-2.135 13.212,-3.013 z"
       id="path13" />
    <path
       fill="#ef4832"
       d="m 762.485,481.159 c 4.801,-2.85 10.3,-4.304 15.816,-2.774 4.362,1.211 7.821,4.212 9.982,8.146 1.565,2.848 2.674,6.659 1.557,9.853 -0.652,1.865 -1.885,3.203 -3.716,3.958 -1.439,0.593 -3.164,0.731 -4.702,0.752 -3.518,0.083 -7.128,0.339 -10.639,0.186 -4.646,0.163 -9.333,0.046 -13.986,0.107 0.146,3.72 0.339,6.949 1.737,10.48 1.667,4.212 4.509,7.596 8.785,9.279 8.883,3.495 16.884,-1.066 24.748,-4.622 -2.504,3.175 -5.342,5.856 -8.799,7.975 -5.187,3.18 -11.334,4.421 -17.277,2.872 q -0.512,-0.131 -1.016,-0.288 -0.504,-0.156 -1,-0.339 -0.496,-0.182 -0.981,-0.39 -0.486,-0.207 -0.961,-0.439 -0.474,-0.232 -0.936,-0.488 -0.462,-0.255 -0.91,-0.534 -0.449,-0.279 -0.882,-0.581 -0.434,-0.302 -0.852,-0.625 -0.417,-0.323 -0.818,-0.668 -0.4,-0.344 -0.783,-0.708 -0.382,-0.364 -0.746,-0.747 -0.363,-0.384 -0.706,-0.785 -0.344,-0.401 -0.666,-0.82 -0.323,-0.418 -0.623,-0.852 -0.301,-0.434 -0.579,-0.883 -0.278,-0.449 -0.533,-0.912 c -3.493,-6.389 -3.936,-14.909 -1.822,-21.842 1.763,-5.782 5.913,-11.409 11.308,-14.311 z"
       id="path14" />
    <path
       fill="#f4f2d8"
       d="m 764.63,482.812 c 3.37,-1.579 6.631,-2.752 10.318,-1.502 3.057,1.037 5.208,3.429 6.575,6.284 1.5,3.133 1.864,6.724 1.323,10.129 l -0.839,0.782 c -8.21,0.117 -16.456,0.077 -24.658,0.416 0.728,-6.707 2.725,-11.114 7.281,-16.109 z"
       id="path15" />
    <path
       fill="#ef4832"
       d="m 425.031,449.222 c -1.334,10.001 -0.987,30.643 -0.454,41.299 3.744,-5.458 8.854,-10.626 15.636,-11.909 3.241,-0.613 6.867,-0.29 9.599,1.698 3.277,2.383 4.543,6.399 5.037,10.251 1.399,10.898 -0.6,22.179 0.874,33.165 2.214,0.032 4.022,-0.066 6.03,1.012 l 0.44,0.765 c -1.071,1.038 -1.934,1.085 -3.389,1.046 -0.887,-0.024 -1.776,-0.085 -2.662,-0.142 -3.9,0.075 -11.39,0.933 -14.994,-0.449 0.193,-0.273 0.358,-0.567 0.577,-0.82 1.214,-1.399 4.484,-1.606 6.227,-1.839 0.387,-9.719 0.961,-20.042 0.276,-29.73 -0.219,-3.099 -1.003,-6.652 -3.561,-8.695 -1.936,-1.546 -4.388,-1.722 -6.757,-1.359 -6.165,0.945 -9.826,5.814 -13.183,10.569 -1.135,6.236 -0.826,23.084 -0.148,29.699 2.289,0.144 4.125,0.346 6.24,1.266 l -0.882,1.26 0.194,-0.05 c -3.745,0.278 -17.315,1.334 -19.931,-0.606 1.105,-1.482 4.64,-1.819 6.494,-2.291 1.272,-3.654 1.416,-63.775 0.353,-67.515 -0.902,-3.173 -3.871,-1.313 -6.223,-2.549 l 0.132,-0.726 c 4.29,-1.79 9.521,-2.333 14.075,-3.35 z"
       id="path16" />
    <path
       fill="#ef4832"
       d="m 519.469,453.741 c 11.04,-0.148 22.076,0.069 33.117,-0.081 5.61,-0.076 11.429,0.136 16.967,-0.818 -0.532,3.505 -1.414,14.788 -3.515,17.14 -1.389,-0.301 -1.319,-0.239 -2.113,-1.415 -0.224,-2.718 0.828,-8.184 -1.671,-9.846 -3.495,-2.326 -13.608,-1.077 -17.939,-1.196 -0.697,7.805 -0.309,15.904 -0.302,23.75 l -0.11,36.957 c -0.01,9.396 5.576,3.032 9.597,7.065 l -0.281,0.825 c -3.775,0.526 -20.208,1.114 -23.45,0.279 -1.004,-0.258 -0.65,-0.036 -1.205,-0.906 1.668,-2.108 5.545,-1.15 7.8,-2.795 1.621,-4.612 0.88,-56.53 0.483,-65.174 -4.998,0.055 -11.794,1.265 -16.531,0.729 -4.388,2.216 -3.1,8.485 -6.184,11.843 -0.544,0.593 -0.46,0.407 -1.325,0.406 -1.874,-3.901 -0.839,-12.403 -0.837,-16.808 z"
       id="path17" />
    <path
       fill="#ef4832"
       d="m 223.483,485.125 c 4.604,-3.604 10.612,-7.249 16.686,-6.446 2.99,0.395 5.626,1.712 7.395,4.208 6.703,9.456 0.669,35.001 3.82,40.439 2.012,0.135 3.662,0.15 5.291,1.452 l -0.017,0.753 c -1.269,0.668 -2.278,0.745 -3.702,0.799 -3.083,0.118 -14.047,0.989 -16.042,-0.835 1.492,-1.49 4.942,-1.393 7.061,-1.695 0.158,-8.378 2.056,-28.005 -1.878,-35.162 -1.289,-2.346 -3.212,-4.136 -5.847,-4.803 -4.27,-1.08 -9.124,1.425 -12.737,3.5 l -3.961,3.245 -0.047,32.844 c 2.458,0.369 4.698,0.539 6.9,1.759 l -0.179,0.591 c -4.476,1.209 -16.468,1.547 -20.756,-0.022 l 0.594,-1.173 c 2.003,-0.835 4.311,-1.024 6.447,-1.362 0.115,-0.341 0.169,-0.7 0.232,-1.055 0.465,-2.634 0.731,-35.668 -0.268,-36.787 -1.775,-1.99 -6.099,-2.215 -8.606,-2.645 5.171,-1.66 10.48,-2.496 15.641,-4.335 0.019,2.238 -0.648,6.686 0.495,8.404 1.554,0.082 2.232,-0.789 3.478,-1.674 z"
       id="path18" />
    <path
       fill="#ef4832"
       d="m 174.053,458.379 c -2.69,-0.537 -5.095,-0.545 -7.684,-1.658 l -0.151,-0.822 c 4.516,-1.903 16.246,-1.653 21.324,-1.119 1.273,0.134 2.127,0.145 2.96,1.182 -1.975,1.702 -5.365,2.506 -7.79,3.513 -0.491,6.444 -0.942,60.705 0.267,62.872 0.347,0.623 1.936,0.964 2.616,1.216 1.897,-0.013 4.096,-0.29 5.83,0.565 l 0.239,0.881 c -0.539,0.877 -0.648,1.194 -1.721,1.468 -1.991,0.509 -4.861,0.063 -6.966,0.09 -4.957,0.069 -10.445,0.681 -15.316,-0.156 l -0.288,-0.824 c 1.729,-2.073 4.853,-1.509 6.387,-3.808 2.555,-3.826 1.507,-56.729 0.293,-63.4 z"
       id="path19" />
    <path
       fill="#ef4832"
       d="m 277.813,481.279 c 4.982,-3.329 12.279,-4.368 18.138,-3.171 1.929,0.394 3.753,1.177 4.92,2.826 0.578,0.816 0.46,1.76 0.232,2.694 -0.054,0.225 -0.117,0.448 -0.17,0.674 -0.568,2.414 0.532,4.833 -0.137,7.093 l -0.612,0.105 c -4.115,-3.985 -3.6,-10.889 -10.91,-10.958 -2.874,-0.027 -5.196,0.859 -7.728,2.121 -0.821,0.87 -1.688,1.771 -2.354,2.768 -1.186,1.774 -1.768,4.389 -1.256,6.484 1.619,6.636 14.811,7.742 20.076,10.984 2.906,1.79 5.22,4.463 5.837,7.894 0.632,3.513 -0.813,7.632 -2.979,10.386 -3.354,4.262 -8.532,6.646 -13.836,7.292 -4.379,0.534 -9.914,0.27 -13.416,-2.772 -2.355,-2.046 -3.034,-4.644 -3.138,-7.66 -0.057,-1.656 -0.304,-3.392 0.882,-4.632 0.986,0.123 6.225,9.874 11.298,11.692 2.792,1 7.24,0.33 9.794,-1.077 2.181,-1.202 4.054,-3.374 4.595,-5.835 3.005,-13.66 -19.366,-12.064 -24.679,-20.876 -1.457,-2.416 -1.367,-5.154 -0.598,-7.784 1.044,-3.567 2.698,-6.448 6.041,-8.248 z"
       id="path20" />
    <path
       fill="#ef4832"
       d="m 474.303,484.211 c 2.705,-2.002 5.196,-4.211 7.193,-6.933 1.984,-2.706 4.056,-8.742 6.667,-10.407 1.802,2.546 0.753,9.957 0.629,13.186 2.763,0.032 5.519,0.186 8.278,0.331 2.512,-0.137 6.161,-0.753 8.29,0.861 0.134,0.102 0.242,0.235 0.362,0.353 -0.237,1.063 -0.259,1.041 -1.167,1.573 -2.978,1.741 -7.467,1.039 -10.827,0.93 -1.88,0.092 -3.581,0.146 -5.377,0.744 -0.133,0.757 -0.261,1.471 -0.289,2.241 -0.243,6.64 -0.574,22.374 0.648,28.142 0.512,2.42 1.509,4.919 3.297,6.686 5.585,5.522 10.677,-1.241 16.189,-1.197 l 0.188,0.699 c -0.253,0.534 -0.494,1.085 -0.862,1.555 -2.689,3.438 -8.11,5.137 -12.253,5.462 -3.407,0.267 -6.813,-0.285 -9.373,-2.72 -2.126,-2.022 -3.274,-4.859 -3.858,-7.685 -1.755,-8.493 -0.565,-24.861 -0.5,-34.092 z"
       id="path21" />
    <path
       fill="#ef4832"
       d="m 820.658,496.897 q -0.195,1.466 -0.35,2.937 c -0.507,4.727 -2.048,20.53 1.494,23.812 1.444,1.339 5.094,0.827 7.003,0.878 l 0.601,1.058 c -0.526,0.806 -0.589,0.828 -1.527,1.083 -2.365,0.641 -21.02,0.692 -22.59,-0.173 l -0.147,-1.003 c 1.642,-1.66 4.853,-1.02 6.939,-2.477 1.151,-2.644 1.843,-33.893 0.798,-36.084 -1.327,-2.782 -5.419,-2.387 -7.844,-3.55 0.636,-1.047 1.258,-1.25 2.274,-1.826 2.888,-1.637 7.123,-4.245 10.49,-3.31 2.301,2.83 1.187,10.068 1.416,13.843 3.247,-4.894 5.299,-10.91 11.153,-13.284 2.448,-0.894 5.045,-1.857 7.591,-0.774 1.221,0.519 2.373,1.714 2.821,2.946 0.412,1.137 0.425,2.455 -0.135,3.543 -0.59,1.146 -1.617,1.834 -2.851,2.142 -3.551,0.885 -7.207,-2.197 -10.761,-1.617 -2.515,3.86 -4.819,7.498 -6.375,11.856 z"
       id="path22" />
    <path
       fill="#ef4832"
       d="m 329.75,479.102 c 0.742,-0.102 1.227,-0.017 1.957,0.104 1.095,3.68 0.253,37.348 0.324,44.118 3.542,0.78 6.616,1.217 9.858,2.935 -7.035,0.96 -14.877,0.314 -22.014,0.408 l -1.537,-0.227 -0.339,-0.487 c 1.483,-1.661 4.852,-2.394 6.991,-3.127 0.231,-6.135 1.646,-33.316 -0.44,-37.624 -2.457,-1.791 -5.649,-2.368 -8.541,-3.221 z"
       id="path23" />
    <path
       fill="#ef4832"
       d="m 327.475,454.878 c 0.365,-10e-4 0.73,0.014 1.094,0.039 1.777,0.121 3.254,0.481 4.363,2.043 0.806,1.137 0.969,2.487 0.662,3.819 -0.54,2.341 -1.967,3.397 -3.888,4.661 -1.76,0.073 -3.244,-0.045 -4.536,-1.455 -0.811,-0.884 -1.082,-1.92 -1.023,-3.096 0.141,-2.758 1.405,-4.178 3.328,-6.011 z"
       id="path24" />
  </g>
</svg>
