<?xml version="1.0" standalone="no"?>
<!DOCTYPE svg PUBLIC "-//W3C//DTD SVG 20010904//EN"
 "http://www.w3.org/TR/2001/REC-SVG-20010904/DTD/svg10.dtd">
<svg version="1.0" xmlns="http://www.w3.org/2000/svg"
 width="1287.000000pt" height="305.000000pt" viewBox="0 0 1287.000000 305.000000"
 preserveAspectRatio="xMidYMid meet">

<g transform="translate(0.000000,305.000000) scale(0.100000,-0.100000)"
fill="#000000" stroke="none">
<path d="M890 2641 c-195 -43 -345 -125 -485 -266 -318 -320 -363 -810 -110
-1190 129 -194 329 -332 565 -391 58 -15 107 -28 108 -29 2 -2 -6 -24 -17 -49
-25 -57 -122 -161 -176 -189 l-40 -20 35 -10 c52 -14 233 -2 325 22 44 11 127
44 185 73 90 45 118 65 195 143 101 101 153 182 192 300 23 70 27 97 27 210 0
95 -4 145 -17 187 -9 31 -17 58 -17 61 0 3 42 15 93 28 l94 22 39 -26 c44 -31
122 -37 177 -13 70 29 126 129 112 199 -22 103 -100 163 -205 155 -70 -5 -116
-36 -152 -100 l-23 -43 -209 -55 -209 -56 -23 -45 c-39 -76 -130 -119 -209
-98 -169 45 -196 274 -40 349 58 28 140 25 185 -8 16 -12 37 -22 47 -22 10 0
166 39 346 87 265 70 332 84 345 75 46 -32 79 -44 124 -44 61 1 112 26 152 76
28 34 31 44 31 110 0 65 -3 77 -29 110 -54 71 -158 96 -236 56 -39 -20 -83
-69 -94 -105 -5 -16 -29 -27 -123 -51 -227 -60 -768 -205 -820 -220 -45 -12
-56 -20 -72 -53 -85 -166 -317 -129 -356 56 -18 86 60 195 149 208 60 9 106 0
149 -30 l36 -24 450 121 c248 67 451 125 451 129 0 4 -37 45 -82 91 -128 129
-250 202 -428 254 -119 35 -318 42 -440 15z m1328 -507 c30 -34 28 -70 -7
-105 -38 -38 -74 -38 -112 0 -33 33 -37 65 -13 99 33 48 92 50 132 6z m-170
-406 c33 -32 30 -80 -9 -112 -17 -14 -37 -26 -44 -26 -33 0 -67 22 -79 51 -18
43 -9 78 28 100 36 22 70 18 104 -13z"/>
<path d="M732 1957 c-69 -74 32 -179 112 -116 34 27 37 88 4 119 -31 28 -88
27 -116 -3z"/>
<path d="M1155 1718 c-52 -28 -62 -92 -20 -133 50 -51 135 -15 135 57 -1 40
-17 64 -54 78 -33 12 -36 12 -61 -2z"/>
<path d="M3839 1166 c-94 -25 -139 -79 -139 -167 0 -46 4 -55 36 -85 25 -24
59 -41 122 -60 124 -36 152 -50 152 -73 0 -30 -36 -44 -98 -39 -48 4 -60 10
-82 36 l-26 32 -48 -16 c-26 -9 -50 -23 -53 -30 -9 -23 37 -83 84 -110 53 -32
154 -43 221 -25 86 24 143 105 128 184 -13 72 -64 107 -213 147 -96 26 -114
41 -88 70 26 28 117 28 145 0 19 -19 20 -19 75 2 30 11 55 26 55 33 0 26 -71
85 -122 100 -61 18 -87 18 -149 1z"/>
<path d="M5197 1166 c-150 -42 -230 -199 -183 -360 43 -146 204 -221 364 -170
69 22 115 64 148 130 70 143 7 331 -131 388 -52 22 -143 28 -198 12z m162
-134 c70 -51 91 -145 49 -217 -57 -98 -199 -100 -258 -3 -28 46 -27 129 2 176
41 67 145 89 207 44z"/>
<path d="M5915 1171 c-46 -12 -87 -36 -119 -70 -23 -24 -30 -42 -33 -83 -7
-95 38 -134 202 -178 88 -23 105 -33 105 -61 0 -24 -30 -39 -80 -39 -48 0 -77
13 -106 46 l-21 25 -49 -18 c-28 -11 -50 -26 -52 -35 -2 -10 15 -37 38 -62 54
-59 117 -80 211 -74 119 9 189 70 189 165 0 76 -54 127 -165 158 -140 38 -168
58 -133 93 19 19 112 15 139 -7 24 -18 25 -18 77 1 55 21 61 31 37 66 -40 56
-162 93 -240 73z"/>
<path d="M2418 1164 c-5 -4 -8 -126 -8 -271 l0 -263 60 0 59 0 3 58 c3 55 4
57 32 60 52 6 72 -6 107 -63 l33 -55 68 0 c37 0 68 3 68 8 0 4 -18 34 -40 67
-22 33 -40 65 -40 71 0 6 10 19 21 30 77 68 77 217 1 297 -50 53 -76 61 -222
65 -74 2 -138 1 -142 -4z m253 -127 c46 -35 53 -111 13 -151 -23 -23 -35 -26
-90 -26 l-64 0 0 95 0 95 63 0 c34 0 69 -6 78 -13z"/>
<path d="M3087 1164 c-4 -4 -7 -126 -7 -271 l0 -263 198 2 197 3 0 50 0 50
-135 5 -135 5 0 45 0 45 108 3 107 3 0 49 0 49 -107 3 -108 3 -3 52 -3 52 138
3 138 3 0 55 0 55 -191 3 c-104 1 -193 -1 -197 -4z"/>
<path d="M4370 900 l0 -271 58 3 57 3 5 55 5 55 91 5 c80 5 95 9 127 33 102
78 113 232 23 322 -53 53 -100 65 -250 65 l-116 0 0 -270z m271 121 c21 -22
29 -39 29 -66 0 -27 -8 -44 -29 -66 -26 -26 -36 -29 -90 -29 l-61 0 0 95 0 95
61 0 c54 0 64 -3 90 -29z"/>
<path d="M6417 1164 c-4 -4 -7 -126 -7 -271 l0 -263 198 2 197 3 0 50 0 50
-135 5 -135 5 -3 48 -3 47 110 0 111 0 0 50 0 49 -107 3 -108 3 -3 52 -3 52
138 3 138 3 0 55 0 55 -191 3 c-104 1 -193 -1 -197 -4z"/>
<path d="M7441 909 c-61 -143 -111 -265 -111 -270 0 -5 28 -9 63 -9 l62 0 17
40 17 41 128 -3 128 -3 18 -37 17 -38 65 0 c57 0 64 2 58 18 -4 9 -55 130
-113 267 l-107 250 -65 3 -66 3 -111 -262z m219 2 c17 -44 29 -85 25 -90 -8
-14 -132 -14 -140 -1 -8 12 65 181 75 175 4 -3 22 -41 40 -84z"/>
<path d="M8137 1163 c-4 -3 -7 -125 -7 -270 l0 -263 60 0 60 0 2 162 3 161
130 -161 130 -162 60 2 60 3 0 265 0 265 -55 0 -55 0 -3 -157 c-1 -87 -6 -158
-11 -158 -4 0 -65 72 -136 160 l-129 160 -51 0 c-29 0 -55 -3 -58 -7z"/>
<path d="M9083 1158 c-10 -13 -223 -511 -223 -522 0 -3 29 -6 64 -6 l64 0 16
40 16 40 128 0 129 0 18 -40 18 -40 64 0 c34 0 63 3 62 8 0 4 -51 124 -112
267 l-112 260 -61 3 c-41 2 -64 -1 -71 -10z m109 -245 c25 -62 32 -90 24 -95
-15 -11 -134 -10 -140 1 -6 9 65 181 74 181 3 0 22 -39 42 -87z"/>
<path d="M9677 1164 c-4 -4 -7 -126 -7 -271 l0 -263 195 0 195 0 0 55 0 55
-135 0 -135 0 -2 213 -3 212 -50 3 c-28 2 -54 0 -58 -4z"/>
<path d="M10130 1162 c0 -5 52 -85 115 -178 l115 -169 0 -92 0 -93 55 0 55 0
0 93 0 94 111 163 c61 90 113 170 116 177 4 11 -8 13 -63 11 l-68 -3 -70 -112
c-39 -62 -75 -112 -81 -112 -5 0 -42 50 -81 112 l-71 112 -67 3 c-36 2 -66 -1
-66 -6z"/>
<path d="M10900 1110 l0 -60 140 0 c77 0 140 -1 140 -3 0 -1 -70 -73 -156
-158 l-155 -156 3 -49 3 -49 248 -3 247 -2 0 55 0 55 -155 0 c-118 0 -155 3
-155 13 0 7 65 77 145 157 l145 145 0 57 0 58 -225 0 -225 0 0 -60z"/>
<path d="M11630 900 l0 -270 195 0 195 0 0 55 0 54 -137 3 -138 3 0 45 0 45
108 3 107 3 0 49 0 50 -94 0 c-124 0 -126 1 -126 61 l0 48 138 3 137 3 0 55 0
55 -192 3 -193 2 0 -270z"/>
<path d="M12257 1163 c-4 -3 -7 -125 -7 -270 l0 -263 60 0 59 0 3 58 3 57 48
3 47 3 38 -60 37 -61 68 0 c37 0 67 3 67 8 0 4 -18 34 -40 67 -22 33 -40 65
-40 71 0 6 10 19 21 30 33 29 59 94 59 150 0 98 -65 183 -157 205 -44 10 -257
12 -266 2z m267 -139 c36 -36 36 -100 1 -138 -21 -23 -32 -26 -90 -26 l-65 0
0 95 0 95 64 0 c55 0 67 -3 90 -26z"/>
</g>
</svg>
