<svg xmlns="http://www.w3.org/2000/svg" id="a8e9db46-9036-4b5d-ae65-e89ed36f5603" data-name="Capa 1" viewBox="0 0 500 168.29"><defs><style>.b74daa0b-fead-4115-9d1b-4022e8b0b981{fill:#0b1d51;}</style></defs><title>logo</title><path class="b74daa0b-fead-4115-9d1b-4022e8b0b981" d="M253.23,270.54H222.76l-5.43,16.84a1.12,1.12,0,0,1-1.06.77H198.05a1.11,1.11,0,0,1-1-1.49l29.77-80.51a1.11,1.11,0,0,1,1-.72h20.69a1.11,1.11,0,0,1,1.05.73l29.31,80.5a1.1,1.1,0,0,1-1,1.49H259.72a1.11,1.11,0,0,1-1.06-.77Zm-4.63-14.83-10-31.05h-1.16l-10,31.05Z" transform="translate(-6 -171.86)"></path><path class="b74daa0b-fead-4115-9d1b-4022e8b0b981" d="M285,271.12V201.21a1.11,1.11,0,0,1,1.11-1.11h15.85a1.11,1.11,0,0,1,1.12,1.11v65.63c0,4.17,1.62,5.56,5,5.56h8a1.11,1.11,0,0,1,1.11,1.11V287a1.11,1.11,0,0,1-1.11,1.11H302.58C290.53,288.15,285,282,285,271.12Z" transform="translate(-6 -171.86)"></path><path class="b74daa0b-fead-4115-9d1b-4022e8b0b981" d="M346,201.44v12.95a1.12,1.12,0,0,1-1.11,1.12H328.79a1.12,1.12,0,0,1-1.12-1.12V201.44a1.12,1.12,0,0,1,1.12-1.11h16.08A1.11,1.11,0,0,1,346,201.44Zm-18.07,71.88V226a1.11,1.11,0,0,1,1.11-1.11h16A1.12,1.12,0,0,1,346.1,226v42.46c0,2.89.58,3.94,3.82,3.94h5a1.11,1.11,0,0,1,1.11,1.11V287a1.11,1.11,0,0,1-1.11,1.11H343.32C332.77,288,327.91,282.59,327.91,273.32Z" transform="translate(-6 -171.86)"></path><path class="b74daa0b-fead-4115-9d1b-4022e8b0b981" d="M384.7,226v12c2.31-8.11,7.41-13.07,13.67-13.07h12.21a1.11,1.11,0,0,1,1.11,1.11v14.35a1.11,1.11,0,0,1-1.11,1.11h-15.8c-5.8,0-8,2-8,8.57v37a1.11,1.11,0,0,1-1.11,1.11h-16a1.11,1.11,0,0,1-1.11-1.11V226a1.11,1.11,0,0,1,1.11-1.11h13.88A1.12,1.12,0,0,1,384.7,226Z" transform="translate(-6 -171.86)"></path><path class="b74daa0b-fead-4115-9d1b-4022e8b0b981" d="M414.7,256.52c0-18.3,10.08-33.95,29.78-33.95,9.62,0,16.57,3.83,20,10.78V226a1.12,1.12,0,0,1,1.12-1.11H478a1.11,1.11,0,0,1,1.11,1.11v40.14c0,5.79.93,7.53,3.94,7.53h4.1a1.12,1.12,0,0,1,1.12,1.11V287a1.11,1.11,0,0,1-1.12,1.11h-9.31c-5.68,0-11-2.78-12.75-9.26-2.55,5.9-9.5,11.47-20,11.47C426.29,290.36,414.7,277.84,414.7,256.52Zm46.93,0c0-13.44-5.45-20.16-14.49-20.16-8.57,0-14.36,6.95-14.36,20.16,0,11.36,4.28,20.05,14.13,20.05C457,276.57,461.63,269.62,461.63,256.52Z" transform="translate(-6 -171.86)"></path><path class="b74daa0b-fead-4115-9d1b-4022e8b0b981" d="M497.14,224.89a8.87,8.87,0,1,1-8.86,8.87A8.84,8.84,0,0,1,497.14,224.89Zm0,15.87a7,7,0,1,0-7-7A6.94,6.94,0,0,0,497.1,240.76Z" transform="translate(-6 -171.86)"></path><path class="b74daa0b-fead-4115-9d1b-4022e8b0b981" d="M493.58,233.74c0-1.15,0-2.29,0-3.44a.88.88,0,0,1,.87-1,26.58,26.58,0,0,1,4,.05,2.6,2.6,0,0,1,2.23,2.18,2.66,2.66,0,0,1-1.41,2.83c-.32.16-.32.28-.11.54.42.52.81,1.07,1.22,1.61s.43,1.15,0,1.49-1,.23-1.48-.39c-.65-.86-1.29-1.73-1.94-2.6a1.51,1.51,0,0,0-1.36-.31c-.18.1-.14.27-.14.42,0,.66,0,1.32,0,2s-.39,1.12-.95,1.12-.89-.44-.89-1.11C493.57,236,493.58,234.86,493.58,233.74Zm3.29-.89h0c.4,0,.79,0,1.18,0a.83.83,0,0,0,.8-.83.8.8,0,0,0-.8-.81c-.76,0-1.51,0-2.26,0-.18,0-.32,0-.36.27-.23,1.15,0,1.39,1.12,1.39Z" transform="translate(-6 -171.86)"></path><path class="b74daa0b-fead-4115-9d1b-4022e8b0b981" d="M88.89,171.86H79.52a1.68,1.68,0,0,0-1.42.78L6.27,285.55a1.69,1.69,0,0,0,1.43,2.6H58.92a1.69,1.69,0,0,0,1.43-.78l5-7.9a1.69,1.69,0,0,0-1.43-2.6H25.17L90.32,174.46A1.7,1.7,0,0,0,88.89,171.86Z" transform="translate(-6 -171.86)"></path><path class="b74daa0b-fead-4115-9d1b-4022e8b0b981" d="M174.2,288.15H123a1.69,1.69,0,0,1-1.43-.78l-5-7.9a1.7,1.7,0,0,1,1.43-2.6h38.77L102.4,191.43,64.5,251q-5.34.58-10.66,1.4l-3,.47a.82.82,0,0,0-.5.27L101,172.65a1.68,1.68,0,0,1,2.86,0l71.79,112.91A1.68,1.68,0,0,1,174.2,288.15Z" transform="translate(-6 -171.86)"></path><path class="b74daa0b-fead-4115-9d1b-4022e8b0b981" d="M131.69,254l-.84,2.16c-4.8,12.2-21.2,20.73-39.9,20.73s-35.1-8.53-39.9-20.73L50.21,254a.77.77,0,0,1,0-.68.78.78,0,0,1,.61-.44l3-.47q5.32-.82,10.66-1.4a242.84,242.84,0,0,1,53,0l-21.3-33.7a1,1,0,0,1,0-1.08l5.51-8.64a1,1,0,0,1,1.7,0l28.22,45.6A.81.81,0,0,1,131.69,254Z" transform="translate(-6 -171.86)"></path><path class="b74daa0b-fead-4115-9d1b-4022e8b0b981" d="M21.34,327.32H11.26l-1.94,6.1H6L14.22,309h4.27l8.22,24.46H23.27Zm-.88-2.81L16.3,311.29l-4.16,13.22Z" transform="translate(-6 -171.86)"></path><path class="b74daa0b-fead-4115-9d1b-4022e8b0b981" d="M45.11,320.79v7c0,3.61-2.52,6.06-6.25,6.06a6.18,6.18,0,0,1-5.69-3.1V340H30.24V315.16h2.27l.58,2.82a6.15,6.15,0,0,1,5.77-3.25C42.59,314.73,45.11,317.17,45.11,320.79Zm-2.92.8c0-2.48-1.76-4.13-4.39-4.13a4.71,4.71,0,0,0-4.63,3.11V328a4.72,4.72,0,0,0,4.63,3.1c2.63,0,4.39-1.64,4.39-4.12Z" transform="translate(-6 -171.86)"></path><path class="b74daa0b-fead-4115-9d1b-4022e8b0b981" d="M49.92,329V307.86h2.92v20.45a2.31,2.31,0,0,0,2.49,2.41h.91v2.7H54.63C51.78,333.42,49.92,331.67,49.92,329Z" transform="translate(-6 -171.86)"></path><path class="b74daa0b-fead-4115-9d1b-4022e8b0b981" d="M60,308.48h3.4v3H60Zm.26,6.68h2.92v18.26H60.22Z" transform="translate(-6 -171.86)"></path><path class="b74daa0b-fead-4115-9d1b-4022e8b0b981" d="M68,326.92v-5.26c0-4.2,2.92-6.93,7.6-6.93a12.33,12.33,0,0,1,4.85,1v2.67a11.35,11.35,0,0,0-4.34-.95c-3.25,0-5.19,1.79-5.19,4.56v4.6c0,2.78,1.94,4.57,5.19,4.57a11.35,11.35,0,0,0,4.34-1v2.66a12.34,12.34,0,0,1-4.85,1C71,333.86,68,331.12,68,326.92Z" transform="translate(-6 -171.86)"></path><path class="b74daa0b-fead-4115-9d1b-4022e8b0b981" d="M99,321.12v12.3H96.69l-.54-2.59c-1.1,1.9-3.25,3-6.07,3-3.68,0-6-1.93-6-5.29,0-3.55,2.59-5.77,6.83-5.77H96v-1.36c0-2.51-1.79-4.12-5-4.12a11.28,11.28,0,0,0-5.55,1.5v-2.67a13.19,13.19,0,0,1,6-1.42C96.15,314.73,99,317.28,99,321.12ZM96,328v-2.74h-5c-2.48,0-4,1.13-4,3.07s1.46,3,3.83,3A5.15,5.15,0,0,0,96,328Z" transform="translate(-6 -171.86)"></path><path class="b74daa0b-fead-4115-9d1b-4022e8b0b981" d="M103.52,326.92v-5.26c0-4.2,2.92-6.93,7.59-6.93a12.34,12.34,0,0,1,4.86,1v2.67a11.43,11.43,0,0,0-4.34-.95c-3.25,0-5.19,1.79-5.19,4.56v4.6c0,2.78,1.94,4.57,5.19,4.57a11.43,11.43,0,0,0,4.34-1v2.66a12.35,12.35,0,0,1-4.86,1C106.44,333.86,103.52,331.12,103.52,326.92Z" transform="translate(-6 -171.86)"></path><path class="b74daa0b-fead-4115-9d1b-4022e8b0b981" d="M120.71,308.48h3.4v3h-3.4Zm.26,6.68h2.92v18.26H121Z" transform="translate(-6 -171.86)"></path><path class="b74daa0b-fead-4115-9d1b-4022e8b0b981" d="M128.78,327.07v-5.55c0-4.09,3-6.79,7.45-6.79s7.42,2.7,7.42,6.79v5.55c0,4.09-3,6.79-7.42,6.79S128.78,331.16,128.78,327.07Zm11.94,0v-5.48c0-2.48-1.78-4.12-4.49-4.12s-4.53,1.64-4.53,4.12V327c0,2.49,1.79,4.13,4.53,4.13S140.72,329.52,140.72,327Zm-3.06-18.91h3.47v.51l-4.06,4.45h-2.33Z" transform="translate(-6 -171.86)"></path><path class="b74daa0b-fead-4115-9d1b-4022e8b0b981" d="M163.14,320.5v12.92h-2.92V321.55a3.91,3.91,0,0,0-4.23-4.09,4.68,4.68,0,0,0-4.57,3.07v12.89H148.5V315.16h2.26l.55,2.67a6.6,6.6,0,0,1,5.84-3.1C160.73,314.73,163.14,317,163.14,320.5Z" transform="translate(-6 -171.86)"></path><path class="b74daa0b-fead-4115-9d1b-4022e8b0b981" d="M191.77,330.57v2.85H177.56V309h3.07v21.61Z" transform="translate(-6 -171.86)"></path><path class="b74daa0b-fead-4115-9d1b-4022e8b0b981" d="M209.66,321.12v12.3h-2.27l-.55-2.59c-1.09,1.9-3.25,3-6.06,3-3.69,0-6-1.93-6-5.29,0-3.55,2.59-5.77,6.83-5.77h5.14v-1.36c0-2.51-1.79-4.12-5-4.12a11.26,11.26,0,0,0-5.55,1.5v-2.67a13.19,13.19,0,0,1,6-1.42C206.84,314.73,209.66,317.28,209.66,321.12ZM206.73,328v-2.74h-5c-2.49,0-4.06,1.13-4.06,3.07s1.46,3,3.84,3A5.13,5.13,0,0,0,206.73,328Z" transform="translate(-6 -171.86)"></path><path class="b74daa0b-fead-4115-9d1b-4022e8b0b981" d="M229.88,320.79v7c0,3.61-2.52,6.06-6.24,6.06a6.15,6.15,0,0,1-5.77-3.25l-.59,2.81H215V307.86h2.92v10a6.19,6.19,0,0,1,5.7-3.1C227.36,314.73,229.88,317.17,229.88,320.79Zm-2.92.8c0-2.48-1.75-4.13-4.38-4.13a4.73,4.73,0,0,0-4.64,3.11V328a4.74,4.74,0,0,0,4.64,3.1c2.63,0,4.38-1.64,4.38-4.12Z" transform="translate(-6 -171.86)"></path><path class="b74daa0b-fead-4115-9d1b-4022e8b0b981" d="M234.08,327.07v-5.55c0-4.09,2.95-6.79,7.45-6.79s7.41,2.7,7.41,6.79v5.55c0,4.09-3,6.79-7.41,6.79S234.08,331.16,234.08,327.07ZM246,327v-5.48c0-2.48-1.79-4.12-4.49-4.12s-4.53,1.64-4.53,4.12V327c0,2.49,1.79,4.13,4.53,4.13S246,329.52,246,327Z" transform="translate(-6 -171.86)"></path><path class="b74daa0b-fead-4115-9d1b-4022e8b0b981" d="M263.07,314.73v2.95h-.73c-3,0-5,1.61-5.62,3.8v11.94h-2.93V315.16h2.27l.58,2.82a6.07,6.07,0,0,1,5.81-3.25Z" transform="translate(-6 -171.86)"></path><path class="b74daa0b-fead-4115-9d1b-4022e8b0b981" d="M280,321.12v12.3h-2.26l-.55-2.59c-1.09,1.9-3.25,3-6.06,3-3.69,0-6-1.93-6-5.29,0-3.55,2.6-5.77,6.83-5.77h5.15v-1.36c0-2.51-1.79-4.12-5-4.12a11.32,11.32,0,0,0-5.56,1.5v-2.67a13.25,13.25,0,0,1,6-1.42C277.16,314.73,280,317.28,280,321.12ZM277.05,328v-2.74h-5c-2.49,0-4.06,1.13-4.06,3.07s1.46,3,3.84,3A5.14,5.14,0,0,0,277.05,328Z" transform="translate(-6 -171.86)"></path><path class="b74daa0b-fead-4115-9d1b-4022e8b0b981" d="M285.15,329V307.86h2.93v20.45a2.3,2.3,0,0,0,2.48,2.41h.91v2.7h-1.6C287,333.42,285.15,331.67,285.15,329Z" transform="translate(-6 -171.86)"></path><path class="b74daa0b-fead-4115-9d1b-4022e8b0b981" d="M308.07,312v7.85h10.41v2.85H308.07v8.07h11.87v2.85H305V309.1h14.94V312Z" transform="translate(-6 -171.86)"></path><path class="b74daa0b-fead-4115-9d1b-4022e8b0b981" d="M350.24,320.53v13h-2.92V321.52a3.71,3.71,0,0,0-3.94-3.91,4.55,4.55,0,0,0-4.42,3v12.93H336V321.52a3.71,3.71,0,0,0-4-3.91,4.56,4.56,0,0,0-4.42,3v12.93h-2.92V315.31H327l.54,2.67a6.28,6.28,0,0,1,5.66-3.11,5.4,5.4,0,0,1,5.41,3.51,6.37,6.37,0,0,1,5.88-3.51A5.39,5.39,0,0,1,350.24,320.53Z" transform="translate(-6 -171.86)"></path><path class="b74daa0b-fead-4115-9d1b-4022e8b0b981" d="M370.54,320.93v7c0,3.61-2.52,6.06-6.25,6.06a6.17,6.17,0,0,1-5.69-3.11v9.24h-2.92V315.31h2.26l.58,2.81a6.18,6.18,0,0,1,5.77-3.25C368,314.87,370.54,317.32,370.54,320.93Zm-2.92.81c0-2.49-1.76-4.13-4.39-4.13a4.72,4.72,0,0,0-4.63,3.1v7.45a4.71,4.71,0,0,0,4.63,3.11c2.63,0,4.39-1.65,4.39-4.13Z" transform="translate(-6 -171.86)"></path><path class="b74daa0b-fead-4115-9d1b-4022e8b0b981" d="M384.81,314.87v3h-.73c-3,0-5,1.61-5.62,3.8v11.94h-2.92V315.31h2.26l.59,2.81a6.06,6.06,0,0,1,5.8-3.25Z" transform="translate(-6 -171.86)"></path><path class="b74daa0b-fead-4115-9d1b-4022e8b0b981" d="M390.33,325.61v1.64c0,2.48,1.86,4.16,5.33,4.16a12.62,12.62,0,0,0,5.77-1.46v2.67a13.2,13.2,0,0,1-6,1.39c-5,0-8-2.71-8-6.8v-5.55c0-4.09,3-6.79,7.45-6.79s7.42,2.74,7.42,6.87v3.87Zm0-4v1.53h9v-1.53c0-2.52-1.76-4.17-4.5-4.17S390.33,319.11,390.33,321.63Z" transform="translate(-6 -171.86)"></path><path class="b74daa0b-fead-4115-9d1b-4022e8b0b981" d="M406.28,332.66V330a11.66,11.66,0,0,0,5.7,1.46c2.84,0,4.45-1.1,4.45-2.77,0-1.43-1.2-2.16-2.81-2.63l-2.67-.81c-2.41-.73-4.78-2-4.78-5.15s2.48-5.22,7-5.22a10.74,10.74,0,0,1,5.11,1.13v2.67a10.24,10.24,0,0,0-5-1.24c-2.56,0-4.05,1-4.05,2.52,0,1.31,1.09,2,2.74,2.52l2.62.76c2.49.73,4.9,1.94,4.9,5.26S417,334,412.27,334A13.33,13.33,0,0,1,406.28,332.66Z" transform="translate(-6 -171.86)"></path><path class="b74daa0b-fead-4115-9d1b-4022e8b0b981" d="M437.42,321.26v12.31h-2.26l-.55-2.59c-1.09,1.9-3.25,3-6.06,3-3.69,0-6-1.94-6-5.3,0-3.54,2.6-5.77,6.83-5.77h5.15v-1.35c0-2.52-1.79-4.13-5-4.13A11.26,11.26,0,0,0,424,319v-2.67a13.19,13.19,0,0,1,6-1.42C434.61,314.87,437.42,317.43,437.42,321.26Zm-2.92,6.87v-2.74h-5c-2.49,0-4.06,1.13-4.06,3.07s1.46,3,3.84,3A5.13,5.13,0,0,0,434.5,328.13Z" transform="translate(-6 -171.86)"></path><path class="b74daa0b-fead-4115-9d1b-4022e8b0b981" d="M452.06,314.87v3h-.73c-3,0-5,1.61-5.62,3.8v11.94h-2.92V315.31h2.26l.59,2.81a6.07,6.07,0,0,1,5.8-3.25Z" transform="translate(-6 -171.86)"></path><path class="b74daa0b-fead-4115-9d1b-4022e8b0b981" d="M455.9,308.63h3.39v3H455.9Zm.25,6.68h2.92v18.26h-2.92Z" transform="translate(-6 -171.86)"></path><path class="b74daa0b-fead-4115-9d1b-4022e8b0b981" d="M478.39,321.26v12.31h-2.26l-.55-2.59c-1.1,1.9-3.25,3-6.07,3-3.68,0-6-1.94-6-5.3,0-3.54,2.59-5.77,6.83-5.77h5.15v-1.35c0-2.52-1.79-4.13-5-4.13A11.28,11.28,0,0,0,465,319v-2.67a13.19,13.19,0,0,1,6-1.42C475.58,314.87,478.39,317.43,478.39,321.26Zm-2.92,6.87v-2.74h-5c-2.48,0-4.05,1.13-4.05,3.07s1.46,3,3.83,3A5.15,5.15,0,0,0,475.47,328.13Z" transform="translate(-6 -171.86)"></path><path class="b74daa0b-fead-4115-9d1b-4022e8b0b981" d="M483.57,329.15V308h2.92v20.45a2.3,2.3,0,0,0,2.48,2.41h.92v2.7h-1.61C485.43,333.57,483.57,331.82,483.57,329.15Z" transform="translate(-6 -171.86)"></path></svg>