<svg xmlns="http://www.w3.org/2000/svg" id="b05d5d7d-3a16-48e4-9c0f-4fd5b435b4ce" data-name="a8e9db46-9036-4b5d-ae65-e89ed36f5603" viewBox="0 0 500.02 118.47"><defs><style>.ac7acd76-685b-46f4-9df8-56ba6e63ca51{fill:#0b1d51;}</style></defs><title>logo sin slogan</title><path class="ac7acd76-685b-46f4-9df8-56ba6e63ca51" d="M247.23,121.68H216.76l-5.43,16.84a1.12,1.12,0,0,1-1.06.77H192.05a1.11,1.11,0,0,1-1.07-1.15,1.28,1.28,0,0,1,.07-.34l29.77-80.51a1.12,1.12,0,0,1,1-.72h20.69a1.11,1.11,0,0,1,1.05.73l29.31,80.5a1.1,1.1,0,0,1-1,1.49H253.72a1.12,1.12,0,0,1-1.06-.77Zm-4.63-14.83-10-31h-1.16l-10,31.05Z" transform="translate(0 -22.99)"></path><path class="ac7acd76-685b-46f4-9df8-56ba6e63ca51" d="M279,122.26V52.35a1.11,1.11,0,0,1,1.11-1.11H296a1.11,1.11,0,0,1,1.12,1.1h0V118c0,4.17,1.62,5.56,5,5.56h8a1.11,1.11,0,0,1,1.11,1.11v13.49a1.11,1.11,0,0,1-1.11,1.11h-13.5C284.53,139.29,279,133.14,279,122.26Z" transform="translate(0 -22.99)"></path><path class="ac7acd76-685b-46f4-9df8-56ba6e63ca51" d="M340,52.58v13a1.13,1.13,0,0,1-1.11,1.12h-16.1a1.12,1.12,0,0,1-1.12-1.12v-13a1.13,1.13,0,0,1,1.12-1.11h16.08A1.11,1.11,0,0,1,340,52.56Zm-18.07,71.88V77.14A1.11,1.11,0,0,1,323,76h16a1.12,1.12,0,0,1,1.06,1.11V119.6c0,2.89.58,3.94,3.82,3.94h5a1.11,1.11,0,0,1,1.11,1.11v13.49a1.11,1.11,0,0,1-1.11,1.11h-11.6c-10.55-.11-15.41-5.52-15.41-14.79Z" transform="translate(0 -22.99)"></path><path class="ac7acd76-685b-46f4-9df8-56ba6e63ca51" d="M378.7,77.14v12C381,81,386.11,76.07,392.37,76.07h12.21a1.11,1.11,0,0,1,1.11,1.11V91.53a1.11,1.11,0,0,1-1.11,1.11h-15.8c-5.8,0-8,2-8,8.57v37a1.11,1.11,0,0,1-1.11,1.11h-16a1.11,1.11,0,0,1-1.11-1.11V77.14A1.11,1.11,0,0,1,363.67,76h13.88a1.12,1.12,0,0,1,1.15,1.09Z" transform="translate(0 -22.99)"></path><path class="ac7acd76-685b-46f4-9df8-56ba6e63ca51" d="M408.7,107.66c0-18.3,10.08-33.95,29.78-33.95,9.62,0,16.57,3.83,20,10.78V77.14A1.13,1.13,0,0,1,459.6,76H472a1.11,1.11,0,0,1,1.11,1.11v40.14c0,5.79.93,7.53,3.94,7.53h4.1a1.13,1.13,0,0,1,1.12,1.11v12.22a1.11,1.11,0,0,1-1.11,1.11h-9.32c-5.68,0-11-2.78-12.75-9.26-2.55,5.9-9.5,11.47-20,11.47C420.29,141.5,408.7,129,408.7,107.66Zm46.93,0c0-13.44-5.45-20.16-14.49-20.16-8.57,0-14.36,7-14.36,20.16,0,11.36,4.28,20,14.13,20C451,127.71,455.63,120.76,455.63,107.66Z" transform="translate(0 -22.99)"></path><path class="ac7acd76-685b-46f4-9df8-56ba6e63ca51" d="M491.14,76a8.87,8.87,0,1,1-8.86,8.88h0A8.84,8.84,0,0,1,491.09,76Zm0,15.87a7,7,0,1,0-7-7h0a6.94,6.94,0,0,0,6.88,7h.12Z" transform="translate(0 -22.99)"></path><path class="ac7acd76-685b-46f4-9df8-56ba6e63ca51" d="M487.58,84.88V81.44a.87.87,0,0,1,.75-1h.12a26.71,26.71,0,0,1,4,0,2.61,2.61,0,0,1,2.23,2.18,2.66,2.66,0,0,1-1.41,2.83c-.32.16-.32.28-.11.54.42.52.81,1.07,1.22,1.61a1,1,0,0,1,0,1.49c-.43.34-1,.23-1.48-.39-.65-.86-1.29-1.73-1.94-2.6a1.52,1.52,0,0,0-1.36-.31c-.18.1-.14.27-.14.42v2a1,1,0,0,1-.95,1.12c-.56,0-.89-.44-.89-1.11C487.57,87.14,487.58,86,487.58,84.88Zm3.29-.89h1.18a.83.83,0,0,0,.8-.83.8.8,0,0,0-.79-.81h-2.27c-.18,0-.32,0-.36.27-.23,1.15,0,1.39,1.12,1.39Z" transform="translate(0 -22.99)"></path><path class="ac7acd76-685b-46f4-9df8-56ba6e63ca51" d="M82.89,23H73.52a1.67,1.67,0,0,0-1.42.78L.27,136.69a1.69,1.69,0,0,0,1.43,2.6H52.92a1.69,1.69,0,0,0,1.43-.78l5-7.9a1.69,1.69,0,0,0-1.43-2.6H19.17L84.32,25.6a1.7,1.7,0,0,0-.54-2.34A1.68,1.68,0,0,0,82.89,23Z" transform="translate(0 -22.99)"></path><path class="ac7acd76-685b-46f4-9df8-56ba6e63ca51" d="M168.2,139.29H117a1.69,1.69,0,0,1-1.43-.78l-5-7.9a1.7,1.7,0,0,1,.54-2.34A1.68,1.68,0,0,1,112,128h38.77L96.4,42.57,58.5,102.14q-5.34.58-10.66,1.4l-3,.47a.83.83,0,0,0-.5.27L95,23.79a1.68,1.68,0,0,1,2.31-.55,1.8,1.8,0,0,1,.55.55L169.65,136.7a1.68,1.68,0,0,1-1.45,2.59Z" transform="translate(0 -22.99)"></path><path class="ac7acd76-685b-46f4-9df8-56ba6e63ca51" d="M125.69,105.14l-.84,2.16C120.05,119.5,103.65,128,85,128s-35.1-8.53-39.9-20.73l-.84-2.16a.74.74,0,0,1,0-.68.76.76,0,0,1,.61-.44l3-.47q5.32-.83,10.66-1.4a243.3,243.3,0,0,1,53,0l-21.3-33.7a1,1,0,0,1,0-1.08l5.51-8.64a1,1,0,0,1,1.38-.32,1,1,0,0,1,.32.32l28.22,45.6A.81.81,0,0,1,125.69,105.14Z" transform="translate(0 -22.99)"></path></svg>