<?xml version="1.0" encoding="UTF-8" standalone="no"?>
<svg
   width="593.06006"
   height="295.54483"
   version="1.1"
   id="svg60"
   sodipodi:docname="logo-prodinfo.svg"
   viewBox="0 0 609.06 303.51822"
   inkscape:version="1.3.2 (091e20e, 2023-11-25, custom)"
   xmlns:inkscape="http://www.inkscape.org/namespaces/inkscape"
   xmlns:sodipodi="http://sodipodi.sourceforge.net/DTD/sodipodi-0.dtd"
   xmlns="http://www.w3.org/2000/svg"
   xmlns:svg="http://www.w3.org/2000/svg">
  <defs
     id="defs60" />
  <sodipodi:namedview
     id="namedview60"
     pagecolor="#ffffff"
     bordercolor="#000000"
     borderopacity="0.25"
     inkscape:showpageshadow="2"
     inkscape:pageopacity="0.0"
     inkscape:pagecheckerboard="0"
     inkscape:deskcolor="#d1d1d1"
     inkscape:zoom="1.2255859"
     inkscape:cx="258.65179"
     inkscape:cy="291.69721"
     inkscape:window-width="2560"
     inkscape:window-height="1511"
     inkscape:window-x="-9"
     inkscape:window-y="-9"
     inkscape:window-maximized="1"
     inkscape:current-layer="svg60" />
  <path
     fill="#0c4275"
     d="m 351.3887,2.6430911 c 4.591,-0.469 9.834,0.377 14.182,1.9130001 9.148,3.23 16.444,10.3949998 20.557,19.1019998 5.226,11.063 4.369,21.656 0.383,32.93 l 33.04,33.357 c 6.144,6.239 12.139,13.062999 18.922,18.609999 q 1.884,-1.016 3.818,-1.934 c 9.422,-4.458 19.162,-5.977 29.136,-2.339 9.237,3.368 17.933,11.087 22.033,20.064 q 0.379,0.85 0.716,1.718 0.336,0.868 0.631,1.751 0.294,0.883 0.544,1.779 0.251,0.897 0.458,1.804 0.206,0.908 0.369,1.824 0.162,0.917 0.279,1.841 0.117,0.923 0.19,1.851 0.072,0.928 0.099,1.858 0.026,0.931 0.008,1.861 -0.019,0.931 -0.083,1.86 -0.064,0.928 -0.173,1.853 -0.109,0.924 -0.263,1.842 -0.154,0.918 -0.353,1.827 -0.199,0.91 -0.441,1.808 -0.243,0.899 -0.53,1.785 -0.286,0.885 -0.615,1.756 -0.311,0.83 -0.662,1.643 -0.351,0.814 -0.741,1.609 -0.391,0.795 -0.821,1.57 -0.429,0.775 -0.896,1.527 -0.467,0.753 -0.971,1.482 -0.504,0.729 -1.042,1.432 -0.539,0.703 -1.112,1.379 -0.573,0.676 -1.179,1.322 -0.605,0.647 -1.242,1.263 -0.636,0.616 -1.303,1.2 -0.666,0.584 -1.36,1.135 -0.694,0.55 -1.415,1.066 -0.72,0.516 -1.465,0.995 -0.745,0.479 -1.513,0.922 -0.767,0.442 -1.556,0.846 -0.789,0.404 -1.596,0.768 c -9.077,4.066 -20.538,4.253 -29.782,0.613 q -0.843,-0.335 -1.669,-0.711 -0.825,-0.376 -1.631,-0.792 -0.807,-0.416 -1.592,-0.871 -0.785,-0.455 -1.546,-0.947 -0.762,-0.493 -1.499,-1.022 -0.737,-0.529 -1.447,-1.094 -0.71,-0.564 -1.392,-1.163 -0.681,-0.599 -1.333,-1.23 -0.651,-0.631 -1.271,-1.293 -0.62,-0.663 -1.207,-1.354 -0.587,-0.692 -1.139,-1.412 -0.553,-0.72 -1.069,-1.465 -0.517,-0.746 -0.996,-1.516 -0.48,-0.77 -0.921,-1.563 -0.441,-0.793 -0.843,-1.606 -0.402,-0.813 -0.764,-1.645 c -4.654,-10.772 -3.581,-21.172 0.638,-31.815 -10.658,-11.72 -22.098,-22.659999 -33.256,-33.898999 -6.198,-6.243 -12.149,-13.355 -18.992,-18.875 -2.457,1.516 -5.114,2.925 -7.821,3.941 -11.651,4.376 -21.979,1.645 -32.866,-3.238 -7.674,7.749 -15.619,15.254 -23.344,22.959 -8.693,8.671999 -17.352,17.755999 -26.766,25.647999 2.394,4.105 4.255,8.151 5.246,12.827 q 0.187,0.865 0.331,1.738 0.144,0.873 0.246,1.752 0.101,0.879 0.159,1.762 0.058,0.883 0.072,1.768 0.015,0.884 -0.014,1.769 -0.029,0.884 -0.102,1.766 -0.072,0.882 -0.187,1.759 -0.116,0.877 -0.274,1.748 -0.159,0.871 -0.36,1.732 -0.201,0.862 -0.444,1.713 -0.243,0.851 -0.528,1.689 -0.284,0.837 -0.609,1.66 -0.326,0.823 -0.691,1.629 -0.365,0.806 -0.77,1.593 -0.404,0.787 -0.847,1.553 -0.442,0.766 -0.922,1.51 c -5.776,8.814 -14.384,14.07 -24.57,16.195 -8.43,0.933 -16.113,0.474 -23.827,-3.378 q -0.814,-0.415 -1.606,-0.87 -0.793,-0.455 -1.561,-0.949 -0.769,-0.494 -1.513,-1.025 -0.743,-0.531 -1.46,-1.098 -0.716,-0.567 -1.404,-1.169 -0.687,-0.602 -1.344,-1.237 -0.657,-0.635 -1.282,-1.302 -0.624,-0.667 -1.215,-1.364 -0.591,-0.697 -1.147,-1.422 -0.555,-0.726 -1.075,-1.478 -0.519,-0.751 -1,-1.528 -0.482,-0.777 -0.924,-1.576 -0.442,-0.8 -0.845,-1.62 -0.402,-0.82 -0.763,-1.66 -0.362,-0.839 -0.681,-1.695 -0.319,-0.856 -0.596,-1.727 c -3.131,-9.734 -1.849,-20.072 2.69,-29.087 -6.405,-5.466 -12.271,-11.669 -18.252,-17.592 l -32.866,-32.877999 c -2.258,1.397 -4.565,2.745 -7.034,3.736 q -0.868,0.352 -1.753,0.661 -0.884,0.309 -1.783,0.573 -0.899,0.264 -1.81,0.483 -0.91,0.219 -1.831,0.392 -0.921,0.173 -1.849,0.3 -0.928,0.127 -1.862,0.207 -0.933,0.081 -1.869,0.114 -0.936,0.034 -1.873,0.021 -0.937,-0.013 -1.872,-0.073 -0.935,-0.059 -1.865,-0.166 -0.931,-0.106 -1.855,-0.259 -0.925,-0.152 -1.84,-0.351 -0.916,-0.199 -1.82,-0.443 -0.905,-0.244 -1.796,-0.533 -0.891,-0.289 -1.766,-0.622 -0.876,-0.333 -1.734,-0.709 -0.819,-0.359 -1.619,-0.758 -0.8,-0.4 -1.58,-0.838 -0.779,-0.438 -1.536,-0.914 -0.757,-0.476 -1.489,-0.989 -0.733,-0.513 -1.439,-1.061 -0.707,-0.548 -1.385,-1.131 -0.679,-0.582 -1.328,-1.197 -0.649,-0.615 -1.267,-1.262 -0.617,-0.646 -1.203,-1.322 -0.585,-0.676 -1.136,-1.38 -0.551,-0.704 -1.067,-1.435 -0.516,-0.73 -0.995,-1.485 -0.479,-0.755 -0.921,-1.533 -0.441,-0.777 -0.844,-1.576 -0.402,-0.798 -0.765,-1.615 -0.363,-0.818 -0.685,-1.652 -0.335,-0.91 -0.626,-1.835 -0.29,-0.925 -0.535,-1.863 -0.245,-0.939 -0.444,-1.888 -0.199,-0.949 -0.352,-1.906 -0.152,-0.958 -0.258,-1.922 -0.105,-0.964 -0.164,-1.931 -0.059,-0.968 -0.07,-1.938 -0.011,-0.97 0.025,-1.939 0.035,-0.969 0.119,-1.935 0.083,-0.966 0.213,-1.927 0.13,-0.961 0.307,-1.914 0.176,-0.953 0.399,-1.897 0.223,-0.944 0.492,-1.875 0.269,-0.932 0.582,-1.85 0.314,-0.917 0.672,-1.818 0.358,-0.901 0.76,-1.784 c 4.145,-8.95 11.497,-15.3129998 20.731,-18.6289998 8.88,-3.1890001 19.418,-3.0040001 27.975,1.037 9.45,4.4629998 16.496,12.2369998 19.913,22.1589998 q 0.298,0.882 0.553,1.777 0.255,0.894 0.466,1.801 0.211,0.906 0.378,1.822 0.166,0.915 0.288,1.838 0.122,0.922 0.199,1.85 0.077,0.927 0.109,1.857 0.032,0.93 0.018,1.86 -0.014,0.931 -0.073,1.86 -0.058,0.928 -0.162,1.853 -0.104,0.925 -0.253,1.843 -0.149,0.919 -0.342,1.829 -0.194,0.91 -0.431,1.81 -0.238,0.9 -0.519,1.787 -0.281,0.887 -0.604,1.76 -0.324,0.872 -0.69,1.728 -0.366,0.855 -0.773,1.692 24.858,25.877 50.508,50.968999 c 3.767,-2.356 7.384,-4.334 11.687,-5.54 10.448,-2.929999 19.285,-0.856 28.541,4.397 4.834,-5.638 10.495,-10.708999 15.787,-15.920999 11.435,-11.263 23.091,-22.367 34.052,-34.094 -2.183,-4.945 -3.897,-9.71 -4.354,-15.138 q -0.077,-0.9 -0.109,-1.802 -0.032,-0.903 -0.019,-1.806 0.013,-0.903 0.07,-1.804 0.057,-0.902 0.159,-1.799 0.102,-0.897 0.249,-1.788 0.146,-0.892 0.336,-1.774 0.19,-0.883 0.424,-1.756 0.234,-0.872 0.511,-1.732 0.276,-0.859 0.595,-1.704 0.319,-0.845 0.679,-1.673 0.361,-0.828 0.762,-1.638 0.4,-0.809 0.841,-1.597 0.44,-0.789 0.919,-1.554 0.479,-0.766 0.996,-1.507 0.516,-0.741 1.069,-1.455 0.552,-0.715 1.139,-1.401 c 6.813,-8.0029998 15.871,-11.5279998 26.136,-12.4159999 z M 464.3957,158.27109 c 5.33,-1.611 9.538,-3.966 12.338,-9.021 q 0.239,-0.432 0.455,-0.875 0.217,-0.443 0.411,-0.897 0.193,-0.454 0.364,-0.917 0.17,-0.463 0.317,-0.934 0.146,-0.472 0.268,-0.95 0.123,-0.478 0.22,-0.961 0.098,-0.484 0.171,-0.972 0.073,-0.488 0.121,-0.979 0.048,-0.491 0.071,-0.984 0.023,-0.493 0.021,-0.986 -0.003,-0.494 -0.03,-0.986 -0.027,-0.493 -0.08,-0.984 -0.052,-0.49 -0.129,-0.978 -0.078,-0.487 -0.18,-0.97 -0.102,-0.482 -0.229,-0.959 -0.126,-0.477 -0.277,-0.947 c -1.708,-5.3 -5.657,-10.092 -10.726,-12.478 -4.059,-1.91 -7.715,-1.798 -12.041,-1.477 -5.436,1.514 -9.667,4.04 -12.574,9.083 q -0.265,0.464 -0.505,0.94 -0.241,0.477 -0.457,0.965 -0.217,0.488 -0.408,0.986 -0.191,0.498 -0.357,1.006 -0.166,0.507 -0.306,1.022 -0.139,0.515 -0.253,1.037 -0.113,0.522 -0.2,1.048 -0.087,0.527 -0.147,1.057 -0.061,0.531 -0.094,1.064 -0.033,0.532 -0.039,1.066 -0.006,0.534 0.015,1.067 0.021,0.534 0.069,1.066 0.047,0.531 0.122,1.06 0.075,0.528 0.177,1.052 0.101,0.524 0.229,1.043 0.128,0.518 0.282,1.029 0.136,0.454 0.295,0.9 0.16,0.447 0.342,0.884 0.182,0.438 0.387,0.865 0.204,0.428 0.431,0.844 0.226,0.417 0.473,0.821 0.248,0.404 0.516,0.795 0.268,0.391 0.555,0.768 0.288,0.376 0.595,0.737 0.307,0.362 0.632,0.707 0.325,0.345 0.667,0.672 0.342,0.328 0.701,0.638 0.359,0.309 0.733,0.6 0.375,0.291 0.763,0.562 0.389,0.271 0.791,0.521 0.403,0.251 0.817,0.481 0.415,0.229 0.841,0.437 c 4.355,2.116 9.156,2.421 13.842,1.432 z m -210.257,-0.03 c 5.447,-1.018 9.888,-3.041 13.223,-7.689 q 0.305,-0.428 0.588,-0.871 0.282,-0.442 0.543,-0.898 0.26,-0.457 0.497,-0.925 0.237,-0.469 0.451,-0.949 0.213,-0.48 0.402,-0.97 0.189,-0.49 0.353,-0.989 0.164,-0.499 0.303,-1.006 0.139,-0.507 0.252,-1.02 0.114,-0.512 0.201,-1.03 0.088,-0.518 0.149,-1.04 0.061,-0.522 0.096,-1.046 0.036,-0.524 0.044,-1.049 0.009,-0.525 -0.008,-1.05 -0.018,-0.525 -0.062,-1.049 -0.044,-0.523 -0.114,-1.044 -0.07,-0.521 -0.166,-1.037 -0.171,-0.918 -0.431,-1.815 -0.259,-0.897 -0.605,-1.764 -0.346,-0.867 -0.775,-1.696 -0.429,-0.83 -0.936,-1.613 -0.508,-0.784 -1.09,-1.514 -0.581,-0.731 -1.231,-1.401 -0.65,-0.67 -1.363,-1.273 -0.712,-0.604 -1.48,-1.135 c -3.691,-2.513 -8.403,-3.636 -12.841,-3.275 -5.729,0.903 -10.657,3.058 -14.14,7.928 -3.186,4.456 -4.239,10.325 -3.189,15.666 q 0.093,0.485 0.212,0.964 0.118,0.479 0.261,0.951 0.142,0.472 0.309,0.937 0.167,0.464 0.357,0.92 0.191,0.455 0.405,0.9 0.213,0.444 0.45,0.878 0.236,0.433 0.494,0.853 0.258,0.421 0.538,0.827 0.279,0.407 0.58,0.799 0.3,0.391 0.62,0.767 0.319,0.376 0.658,0.735 0.339,0.359 0.696,0.699 0.357,0.341 0.73,0.663 0.374,0.322 0.764,0.625 0.39,0.302 0.795,0.584 0.405,0.282 0.824,0.543 c 3.694,2.304 8.327,3.217 12.636,2.909 z M 148.7917,59.388091 c 5.779,-1.021 10.462,-3.207 13.849,-8.238 q 0.28,-0.42 0.538,-0.854 0.259,-0.434 0.496,-0.88 0.236,-0.446 0.451,-0.903 0.214,-0.457 0.406,-0.924 0.192,-0.468 0.36,-0.944 0.168,-0.476 0.313,-0.96 0.144,-0.483 0.265,-0.974 0.12,-0.49 0.216,-0.986 0.096,-0.496 0.168,-0.996 0.071,-0.5 0.118,-1.002 0.046,-0.503 0.068,-1.008 0.022,-0.504 0.018,-1.009 -0.003,-0.505 -0.031,-1.009 -0.028,-0.504 -0.082,-1.007 -0.053,-0.502 -0.131,-1.001 -0.078,-0.499 -0.18,-0.993 -0.093,-0.476 -0.21,-0.946 -0.118,-0.471 -0.259,-0.935 -0.142,-0.463 -0.307,-0.919 -0.166,-0.456 -0.355,-0.902 -0.189,-0.447 -0.4,-0.883 -0.212,-0.436 -0.446,-0.861 -0.234,-0.425 -0.49,-0.837 -0.255,-0.412 -0.532,-0.81 -0.277,-0.398 -0.574,-0.781 -0.297,-0.384 -0.613,-0.751 -0.316,-0.368 -0.651,-0.718 -0.336,-0.351 -0.688,-0.683 -0.353,-0.333 -0.722,-0.647 -0.37,-0.314 -0.755,-0.608 -0.385,-0.295 -0.785,-0.569 -0.4,-0.274 -0.814,-0.527 c -3.592,-2.175 -7.616,-2.963 -11.775,-2.777 -5.8,0.958 -10.875,3.211 -14.348,8.191 -2.987,4.282 -3.876,9.742 -2.901,14.828 q 0.092,0.49 0.209,0.975 0.118,0.486 0.26,0.964 0.142,0.478 0.308,0.949 0.167,0.47 0.357,0.931 0.191,0.462 0.404,0.913 0.214,0.45 0.451,0.89 0.237,0.439 0.496,0.865 0.259,0.427 0.539,0.84 0.281,0.412 0.582,0.81 0.302,0.398 0.623,0.779 0.322,0.382 0.663,0.747 0.34,0.364 0.699,0.711 0.359,0.347 0.735,0.674 0.377,0.328 0.769,0.636 0.393,0.308 0.801,0.596 0.408,0.287 0.83,0.553 c 3.731,2.357 7.701,3.112 12.057,2.99 z m 208.259,-1.197 c 5.654,-1.746 10.213,-4.659 12.983,-10.101 q 0.223,-0.438 0.423,-0.887 0.201,-0.448 0.379,-0.906 0.178,-0.459 0.333,-0.925 0.155,-0.466 0.286,-0.94 0.132,-0.473 0.24,-0.953 0.108,-0.479 0.192,-0.964 0.083,-0.484 0.143,-0.972 0.059,-0.488 0.095,-0.978 0.035,-0.49 0.046,-0.981 0.01,-0.492 -0.003,-0.983 -0.014,-0.491 -0.052,-0.981 -0.039,-0.49 -0.101,-0.977 -0.062,-0.488 -0.149,-0.972 -0.087,-0.483 -0.198,-0.962 -0.11,-0.479 -0.245,-0.952 -0.134,-0.473 -0.292,-0.938 -0.29,-0.859 -0.663,-1.685 -0.373,-0.825 -0.825,-1.611 -0.453,-0.785 -0.98,-1.522 -0.528,-0.736 -1.126,-1.418 -0.597,-0.681 -1.259,-1.3 -0.662,-0.619 -1.381,-1.17 -0.72,-0.551 -1.49,-1.028 -0.771,-0.478 -1.584,-0.877 c -4.023,-1.942 -8,-1.941 -12.336,-1.708 -5.559,1.406 -10.299,4.036 -13.221,9.157 -2.581,4.521 -2.992,10.192 -1.593,15.162 q 0.126,0.457 0.276,0.908 0.15,0.45 0.324,0.892 0.173,0.441 0.369,0.873 0.196,0.433 0.415,0.854 0.218,0.421 0.459,0.83 0.24,0.409 0.501,0.806 0.262,0.396 0.543,0.777 0.282,0.382 0.583,0.749 0.302,0.367 0.622,0.717 0.32,0.35 0.658,0.684 0.338,0.333 0.693,0.648 0.354,0.315 0.725,0.611 0.371,0.296 0.757,0.572 0.386,0.276 0.786,0.532 0.399,0.256 0.812,0.49 0.413,0.234 0.837,0.447 c 4.049,2.069 8.553,2.517 13.018,1.982 z"
     id="path1" />
  <path
     d="m 313.3157,182.65509 15.888,0.149 -0.277,110.07 c -4.477,0.002 -8.947,0.027 -13.419,-0.227 -0.527,-3.43 -0.637,-6.975 -0.881,-10.438 -4.956,5.296 -10.444,9.459 -17.463,11.598 -11.409,3.477 -23.206,1.79 -33.571,-3.813 q -3.708,-2.409 -6.871,-5.498 c -9.292,-9.19 -12.896,-21.234 -12.942,-34.061 -0.048,-13.177 3.454,-25.872 13.066,-35.329 7.598,-7.476 17.438,-11.201 28.059,-11.023 12.295,0.206 20.346,4.003 28.798,12.793 z m -21.689,97.748 c 7.459,-1.792 13.326,-5.542 17.399,-12.176 5.009,-8.161 5.518,-19.997 3.089,-29.081 -1.827,-6.833 -5.971,-13.089 -12.168,-16.683 -5.447,-3.158 -11.317,-3.517 -17.425,-2.942 -7.448,1.74 -13.654,5.256 -17.686,12.006 -5.001,8.373 -5.525,20.199 -3.004,29.457 1.909,7.012 6.166,13.119 12.651,16.622 5.488,2.964 11.096,3.311 17.144,2.797 z"
     id="path2"
     style="stroke:#0c4275;stroke-width:4.9;stroke-dasharray:none;stroke-opacity:1" />
  <path
     d="m 556.5117,203.64009 c 11.467,0.322 21.732,3.375 30.255,11.343 9.289,8.683 13.5,19.86 13.869,32.429 0.387,13.222 -2.872,25.186 -12.131,34.946 -8.738,9.212 -19.262,12.925 -31.756,13.173 -10.906,0.13 -21.098,-3.23 -29.391,-10.433 -9.089,-7.894 -13.889,-19.369 -14.658,-31.254 -0.853,-13.162 2.242,-26.179 11.2,-36.149 8.849,-9.848 19.742,-13.278 32.612,-14.055 z m 4.863,76.753 c 7.598,-1.634 13.504,-4.963 17.828,-11.64 5.189,-8.012 6.231,-18.759 4.139,-27.943 -1.727,-7.586 -6.044,-14.307 -12.772,-18.412 -5.719,-3.49 -11.917,-4.417 -18.502,-3.859 -7.873,1.917 -14.384,5.717 -18.654,12.849 -4.752,7.937 -5.708,18.951 -3.408,27.822 1.885,7.274 6.148,13.852 12.693,17.749 6.067,3.613 11.884,3.874 18.676,3.434 z"
     id="path3"
     style="stroke:#0c4275;stroke-width:4.9;stroke-dasharray:none;stroke-opacity:1" />
  <path
     d="m 185.3347,204.10409 c 9.726,-1.392 20.878,0.403 29.204,5.728 q 0.894,0.579 1.757,1.202 0.864,0.622 1.697,1.287 0.832,0.664 1.63,1.368 0.799,0.705 1.561,1.448 0.763,0.743 1.489,1.523 0.725,0.779 1.411,1.594 0.686,0.814 1.331,1.661 0.645,0.848 1.247,1.726 0.603,0.878 1.161,1.784 0.559,0.907 1.072,1.84 0.513,0.933 0.98,1.89 0.467,0.957 0.885,1.936 0.419,0.979 0.789,1.978 0.371,0.998 0.691,2.013 0.321,1.016 0.591,2.046 0.27,1.03 0.489,2.072 c 2.734,12.67 1.228,28.976 -5.979,40.019 -6.702,10.27 -17.126,15.403 -28.808,17.897 -11.658,1.327 -23.119,-0.996 -32.593,-8.117 -9.711,-7.299 -15.214,-18.351 -16.795,-30.256 -1.703,-12.832 0.7,-26.54 8.694,-36.957 6.937,-9.041 16.271,-14.19 27.496,-15.682 z m 10.974,75.735 c 7.173,-1.665 12.895,-4.922 16.946,-11.287 5.166,-8.118 6.209,-19.042 4.039,-28.285 -1.72,-7.327 -5.843,-13.819 -12.4,-17.747 -5.117,-3.065 -10.686,-4.055 -16.575,-3.482 -7.53,1.355 -13.742,4.714 -18.099,11.21 -5.227,7.793 -6.345,18.369 -4.453,27.415 1.548,7.404 5.428,14.497 11.908,18.67 5.642,3.634 12.105,4.385 18.634,3.506 z"
     id="path4"
     style="stroke:#0c4275;stroke-width:4.9;stroke-dasharray:none;stroke-opacity:1" />
  <path
     d="m 12.519698,182.56009 25.345,-0.085 c 14.271,-0.033 30.629,-1.307 42.366,8.381 7.09,5.852 10.28,14.076 11.112,23.028 0.961,10.336 -0.991,21.368 -7.833,29.491 -7.159,8.5 -18.097,12.226 -28.87,13.091 -8.532,0.571 -17.153,0.191 -25.697,0.011 l 0.035,37.038 -16.472,-0.037 z m 16.497,58.366 c 12.82,0.093 28.875,2.242 39.631,-5.971 4.796,-5.406 6.338,-11.452 5.953,-18.563 -0.261,-4.848 -1.701,-9.519 -5.361,-12.889 -8.617,-7.932 -29.121,-5.626 -40.232,-5.403 z"
     id="path5"
     style="stroke:#0c4275;stroke-width:4.9;stroke-dasharray:none;stroke-opacity:1" />
  <path
     d="m 415.7657,204.02509 c 1.497,-0.125 3.002,-0.251 4.504,-0.27 8.084,-0.102 16.192,2.374 21.897,8.32 11.606,12.099 8.801,32.533 8.732,47.827 l -0.129,33.442 -15.785,-0.033 -0.157,-33.149 c 0.008,-7.227 0.503,-14.763 -0.191,-21.944 -0.264,-2.727 -0.816,-5.441 -1.891,-7.97 -1.78,-4.187 -4.906,-7.386 -9.186,-9.002 -6.225,-2.351 -12.998,-1.64 -18.958,1.026 -1.683,1.056 -3.228,2.167 -4.656,3.557 -2.792,2.719 -4.558,6.072 -5.469,9.844 -1.88,7.788 -1.042,16.785 -1.021,24.74 l 0.023,32.718 -15.862,0.154 c -0.459,-29.235 -10e-4,-58.543 0.025,-87.785 l 14.909,-0.022 0.078,11.462 c 6.563,-6.766 13.962,-10.935 23.137,-12.915 z"
     id="path6"
     style="stroke:#0c4275;stroke-width:4.9;stroke-dasharray:none;stroke-opacity:1" />
  <path
     d="m 499.5827,182.63009 c 4.995,-0.028 9.991,0.535 14.964,0.968 -0.081,5.395 -0.046,10.798 -0.065,16.195 q -1.477,-0.41 -2.975,-0.739 c -6.359,-1.402 -14.074,-2.89 -19.867,1.006 -4.409,2.966 -5.51,7.343 -6.474,12.219 8.201,0.461 16.583,0.101 24.804,0.084 l 0.002,14.95 -24.577,-0.014 0.146,52.007 -0.031,13.664 h -16.369 l 0.074,-66.063 -11.641,0.011 -0.061,-17.597 c 4.226,0.464 8.441,0.867 12.597,1.8 0.719,-7.157 1.934,-13.958 6.921,-19.545 6.047,-6.773 13.965,-8.374 22.552,-8.946 z"
     id="path7"
     style="stroke:#0c4275;stroke-width:4.9;stroke-dasharray:none;stroke-opacity:1" />
  <path
     d="m 137.4647,204.56009 c 3.283,-0.355 6.615,-0.21 9.912,-0.182 l -0.281,16.28 c -8.462,0.154 -17.748,0.317 -24.193,6.702 -3.126,3.097 -4.903,7.176 -5.788,11.434 -1.481,7.124 -0.623,15.26 -0.588,22.55 l 0.006,32.164 c -5.202,0.113 -10.435,-0.011 -15.64,-0.031 l -0.978998,-0.324 c -1.186,-3.612 0.059,-71.084 0.072,-82.605 l 16.073998,0.012 -0.047,9.442 q 0.85,-1.539 1.821,-3.005 c 4.982,-7.456 11.085,-10.724 19.631,-12.437 z"
     id="path8"
     style="stroke:#0c4275;stroke-width:4.9;stroke-dasharray:none;stroke-opacity:1" />
  <path
     d="m 358.3877,207.17009 c 0.851,-0.109 1.4,-0.084 2.232,0.127 1.123,1.598 0.489,75.621 0.444,85.707 -4.386,-0.194 -8.785,-0.208 -13.174,-0.28 -0.768,-0.003 -1.298,-0.112 -2.036,-0.291 -0.297,-0.451 -0.406,-0.546 -0.539,-1.151 -0.519,-2.363 0.112,-18.128 0.112,-21.632 l -0.244,-62.33 z"
     id="path9"
     style="stroke:#0c4275;stroke-width:4.9;stroke-dasharray:none;stroke-opacity:1" />
  <path
     d="m 344.9607,182.62309 15.589,-0.024 -0.057,15.493 -15.588,0.064 q -0.061,-7.767 0.056,-15.533 z"
     id="path15"
     style="stroke:#0c4275;stroke-width:4.9;stroke-dasharray:none;stroke-opacity:1" />
</svg>
